%TF.GenerationSoftware,KiCad,Pcbnew,5.99.0-unknown-881cb3182b~117~ubuntu20.04.1*%
%TF.CreationDate,2021-02-24T10:03:54+00:00*%
%TF.ProjectId,pi400-pico-plate,70693430-302d-4706-9963-6f2d706c6174,rev?*%
%TF.SameCoordinates,Original*%
%TF.FileFunction,Copper,L2,Bot*%
%TF.FilePolarity,Positive*%
%FSLAX46Y46*%
G04 Gerber Fmt 4.6, Leading zero omitted, Abs format (unit mm)*
G04 Created by KiCad (PCBNEW 5.99.0-unknown-881cb3182b~117~ubuntu20.04.1) date 2021-02-24 10:03:54*
%MOMM*%
%LPD*%
G01*
G04 APERTURE LIST*
G04 Aperture macros list*
%AMRoundRect*
0 Rectangle with rounded corners*
0 $1 Rounding radius*
0 $2 $3 $4 $5 $6 $7 $8 $9 X,Y pos of 4 corners*
0 Add a 4 corners polygon primitive as box body*
4,1,4,$2,$3,$4,$5,$6,$7,$8,$9,$2,$3,0*
0 Add four circle primitives for the rounded corners*
1,1,$1+$1,$2,$3*
1,1,$1+$1,$4,$5*
1,1,$1+$1,$6,$7*
1,1,$1+$1,$8,$9*
0 Add four rect primitives between the rounded corners*
20,1,$1+$1,$2,$3,$4,$5,0*
20,1,$1+$1,$4,$5,$6,$7,0*
20,1,$1+$1,$6,$7,$8,$9,0*
20,1,$1+$1,$8,$9,$2,$3,0*%
G04 Aperture macros list end*
%TA.AperFunction,ComponentPad*%
%ADD10R,1.700000X1.700000*%
%TD*%
%TA.AperFunction,ComponentPad*%
%ADD11O,1.700000X1.700000*%
%TD*%
%TA.AperFunction,ComponentPad*%
%ADD12C,0.600000*%
%TD*%
%TA.AperFunction,ComponentPad*%
%ADD13RoundRect,0.400000X-1.000000X-0.400000X1.000000X-0.400000X1.000000X0.400000X-1.000000X0.400000X0*%
%TD*%
%TA.AperFunction,ComponentPad*%
%ADD14RoundRect,0.400000X-0.400000X1.000000X-0.400000X-1.000000X0.400000X-1.000000X0.400000X1.000000X0*%
%TD*%
%TA.AperFunction,ViaPad*%
%ADD15C,0.600000*%
%TD*%
%TA.AperFunction,Conductor*%
%ADD16C,0.500000*%
%TD*%
%TA.AperFunction,Conductor*%
%ADD17C,0.150000*%
%TD*%
G04 APERTURE END LIST*
D10*
%TO.P,J1,1,Pin_1*%
%TO.N,unconnected-(J1-Pad1)*%
X133985000Y-60960000D03*
D11*
%TO.P,J1,2,Pin_2*%
%TO.N,+5V*%
X131445000Y-60960000D03*
%TO.P,J1,3,Pin_3*%
%TO.N,unconnected-(J1-Pad3)*%
X133985000Y-63500000D03*
%TO.P,J1,4,Pin_4*%
%TO.N,+5V*%
X131445000Y-63500000D03*
%TO.P,J1,5,Pin_5*%
%TO.N,unconnected-(J1-Pad5)*%
X133985000Y-66040000D03*
%TO.P,J1,6,Pin_6*%
%TO.N,GND*%
X131445000Y-66040000D03*
%TO.P,J1,7,Pin_7*%
%TO.N,unconnected-(J1-Pad7)*%
X133985000Y-68580000D03*
%TO.P,J1,8,Pin_8*%
%TO.N,/PI_UART_TX*%
X131445000Y-68580000D03*
%TO.P,J1,9,Pin_9*%
%TO.N,GND*%
X133985000Y-71120000D03*
%TO.P,J1,10,Pin_10*%
%TO.N,/PI_UART_RX*%
X131445000Y-71120000D03*
%TO.P,J1,11,Pin_11*%
%TO.N,unconnected-(J1-Pad11)*%
X133985000Y-73660000D03*
%TO.P,J1,12,Pin_12*%
%TO.N,unconnected-(J1-Pad12)*%
X131445000Y-73660000D03*
%TO.P,J1,13,Pin_13*%
%TO.N,unconnected-(J1-Pad13)*%
X133985000Y-76200000D03*
%TO.P,J1,14,Pin_14*%
%TO.N,unconnected-(J1-Pad14)*%
X131445000Y-76200000D03*
%TO.P,J1,15,Pin_15*%
%TO.N,unconnected-(J1-Pad15)*%
X133985000Y-78740000D03*
%TO.P,J1,16,Pin_16*%
%TO.N,unconnected-(J1-Pad16)*%
X131445000Y-78740000D03*
%TO.P,J1,17,Pin_17*%
%TO.N,unconnected-(J1-Pad17)*%
X133985000Y-81280000D03*
%TO.P,J1,18,Pin_18*%
%TO.N,/SWDIO*%
X131445000Y-81280000D03*
%TO.P,J1,19,Pin_19*%
%TO.N,unconnected-(J1-Pad19)*%
X133985000Y-83820000D03*
%TO.P,J1,20,Pin_20*%
%TO.N,GND*%
X131445000Y-83820000D03*
%TO.P,J1,21,Pin_21*%
%TO.N,unconnected-(J1-Pad21)*%
X133985000Y-86360000D03*
%TO.P,J1,22,Pin_22*%
%TO.N,/SWCLK*%
X131445000Y-86360000D03*
%TO.P,J1,23,Pin_23*%
%TO.N,unconnected-(J1-Pad23)*%
X133985000Y-88900000D03*
%TO.P,J1,24,Pin_24*%
%TO.N,unconnected-(J1-Pad24)*%
X131445000Y-88900000D03*
%TO.P,J1,25,Pin_25*%
%TO.N,unconnected-(J1-Pad25)*%
X133985000Y-91440000D03*
%TO.P,J1,26,Pin_26*%
%TO.N,unconnected-(J1-Pad26)*%
X131445000Y-91440000D03*
%TO.P,J1,27,Pin_27*%
%TO.N,unconnected-(J1-Pad27)*%
X133985000Y-93980000D03*
%TO.P,J1,28,Pin_28*%
%TO.N,unconnected-(J1-Pad28)*%
X131445000Y-93980000D03*
%TO.P,J1,29,Pin_29*%
%TO.N,unconnected-(J1-Pad29)*%
X133985000Y-96520000D03*
%TO.P,J1,30,Pin_30*%
%TO.N,unconnected-(J1-Pad30)*%
X131445000Y-96520000D03*
%TO.P,J1,31,Pin_31*%
%TO.N,unconnected-(J1-Pad31)*%
X133985000Y-99060000D03*
%TO.P,J1,32,Pin_32*%
%TO.N,unconnected-(J1-Pad32)*%
X131445000Y-99060000D03*
%TO.P,J1,33,Pin_33*%
%TO.N,unconnected-(J1-Pad33)*%
X133985000Y-101600000D03*
%TO.P,J1,34,Pin_34*%
%TO.N,GND*%
X131445000Y-101600000D03*
%TO.P,J1,35,Pin_35*%
%TO.N,unconnected-(J1-Pad35)*%
X133985000Y-104140000D03*
%TO.P,J1,36,Pin_36*%
%TO.N,unconnected-(J1-Pad36)*%
X131445000Y-104140000D03*
%TO.P,J1,37,Pin_37*%
%TO.N,unconnected-(J1-Pad37)*%
X133985000Y-106680000D03*
%TO.P,J1,38,Pin_38*%
%TO.N,unconnected-(J1-Pad38)*%
X131445000Y-106680000D03*
%TO.P,J1,39,Pin_39*%
%TO.N,GND*%
X133985000Y-109220000D03*
%TO.P,J1,40,Pin_40*%
%TO.N,unconnected-(J1-Pad40)*%
X131445000Y-109220000D03*
%TD*%
D12*
%TO.P,U1,1,GP0*%
%TO.N,/PICO_UART_TX*%
X146345000Y-60940000D03*
D13*
X147445000Y-60940000D03*
D12*
%TO.P,U1,2,GP1*%
%TO.N,/PICO_UART_RX*%
X146345000Y-63480000D03*
D13*
X147445000Y-63480000D03*
D12*
%TO.P,U1,3,GND*%
%TO.N,GND*%
X146345000Y-66020000D03*
D13*
X147445000Y-66020000D03*
D12*
%TO.P,U1,4,GP2*%
%TO.N,unconnected-(U1-Pad4)*%
X146345000Y-68560000D03*
D13*
X147445000Y-68560000D03*
D12*
%TO.P,U1,5,GP3*%
%TO.N,unconnected-(U1-Pad5)*%
X146345000Y-71100000D03*
D13*
X147445000Y-71100000D03*
%TO.P,U1,6,GP4*%
%TO.N,unconnected-(U1-Pad6)*%
X147445000Y-73640000D03*
D12*
X146345000Y-73640000D03*
%TO.P,U1,7,GP5*%
%TO.N,unconnected-(U1-Pad7)*%
X146345000Y-76180000D03*
D13*
X147445000Y-76180000D03*
D12*
%TO.P,U1,8,GND*%
%TO.N,unconnected-(U1-Pad8)*%
X146345000Y-78720000D03*
D13*
X147445000Y-78720000D03*
%TO.P,U1,9,GP6*%
%TO.N,unconnected-(U1-Pad9)*%
X147445000Y-81260000D03*
D12*
X146345000Y-81260000D03*
D13*
%TO.P,U1,10,GP7*%
%TO.N,unconnected-(U1-Pad10)*%
X147445000Y-83800000D03*
D12*
X146345000Y-83800000D03*
%TO.P,U1,11,GP8*%
%TO.N,unconnected-(U1-Pad11)*%
X146345000Y-86340000D03*
D13*
X147445000Y-86340000D03*
D12*
%TO.P,U1,12,GP9*%
%TO.N,unconnected-(U1-Pad12)*%
X146345000Y-88880000D03*
D13*
X147445000Y-88880000D03*
%TO.P,U1,13,GND*%
%TO.N,unconnected-(U1-Pad13)*%
X147445000Y-91420000D03*
D12*
X146345000Y-91420000D03*
D13*
%TO.P,U1,14,GP10*%
%TO.N,unconnected-(U1-Pad14)*%
X147445000Y-93960000D03*
D12*
X146345000Y-93960000D03*
D13*
%TO.P,U1,15,GP11*%
%TO.N,unconnected-(U1-Pad15)*%
X147445000Y-96500000D03*
D12*
X146345000Y-96500000D03*
D13*
%TO.P,U1,16,GP12*%
%TO.N,unconnected-(U1-Pad16)*%
X147445000Y-99040000D03*
D12*
X146345000Y-99040000D03*
%TO.P,U1,17,GP13*%
%TO.N,unconnected-(U1-Pad17)*%
X146345000Y-101580000D03*
D13*
X147445000Y-101580000D03*
%TO.P,U1,18,GND*%
%TO.N,GND*%
X147445000Y-104120000D03*
D12*
X146345000Y-104120000D03*
%TO.P,U1,19,GP14*%
%TO.N,unconnected-(U1-Pad19)*%
X146345000Y-106660000D03*
D13*
X147445000Y-106660000D03*
D12*
%TO.P,U1,20,GP15*%
%TO.N,unconnected-(U1-Pad20)*%
X146345000Y-109200000D03*
D13*
X147445000Y-109200000D03*
D12*
%TO.P,U1,21,GP16*%
%TO.N,unconnected-(U1-Pad21)*%
X167345000Y-109200000D03*
D13*
X166245000Y-109200000D03*
D12*
%TO.P,U1,22,GP17*%
%TO.N,unconnected-(U1-Pad22)*%
X167345000Y-106660000D03*
D13*
X166245000Y-106660000D03*
D12*
%TO.P,U1,23,GND*%
%TO.N,GND*%
X167345000Y-104120000D03*
D13*
X166245000Y-104120000D03*
D12*
%TO.P,U1,24,GP18*%
%TO.N,unconnected-(U1-Pad24)*%
X167345000Y-101580000D03*
D13*
X166245000Y-101580000D03*
%TO.P,U1,25,GP19*%
%TO.N,unconnected-(U1-Pad25)*%
X166245000Y-99040000D03*
D12*
X167345000Y-99040000D03*
D13*
%TO.P,U1,26,GP20*%
%TO.N,unconnected-(U1-Pad26)*%
X166245000Y-96500000D03*
D12*
X167345000Y-96500000D03*
%TO.P,U1,27,GP21*%
%TO.N,unconnected-(U1-Pad27)*%
X167345000Y-93960000D03*
D13*
X166245000Y-93960000D03*
D12*
%TO.P,U1,28,GND*%
%TO.N,GND*%
X167345000Y-91420000D03*
D13*
X166245000Y-91420000D03*
%TO.P,U1,29,GP22*%
%TO.N,unconnected-(U1-Pad29)*%
X166245000Y-88880000D03*
D12*
X167345000Y-88880000D03*
%TO.P,U1,30,RUN*%
%TO.N,Net-(SW1-Pad1)*%
X167345000Y-86340000D03*
D13*
X166245000Y-86340000D03*
%TO.P,U1,31,GP26*%
%TO.N,unconnected-(U1-Pad31)*%
X166245000Y-83800000D03*
D12*
X167345000Y-83800000D03*
D13*
%TO.P,U1,32,GP27*%
%TO.N,unconnected-(U1-Pad32)*%
X166245000Y-81260000D03*
D12*
X167345000Y-81260000D03*
D13*
%TO.P,U1,33,AGND*%
%TO.N,unconnected-(U1-Pad33)*%
X166245000Y-78720000D03*
D12*
X167345000Y-78720000D03*
D13*
%TO.P,U1,34,GP28*%
%TO.N,unconnected-(U1-Pad34)*%
X166245000Y-76180000D03*
D12*
X167345000Y-76180000D03*
D13*
%TO.P,U1,35,ADC_VREF*%
%TO.N,unconnected-(U1-Pad35)*%
X166245000Y-73640000D03*
D12*
X167345000Y-73640000D03*
D13*
%TO.P,U1,36,3V3_OUT*%
%TO.N,unconnected-(U1-Pad36)*%
X166245000Y-71100000D03*
D12*
X167345000Y-71100000D03*
D13*
%TO.P,U1,37,3V3_EN*%
%TO.N,unconnected-(U1-Pad37)*%
X166245000Y-68560000D03*
D12*
X167345000Y-68560000D03*
D13*
%TO.P,U1,38,GND*%
%TO.N,GND*%
X166245000Y-66020000D03*
D12*
X167345000Y-66020000D03*
%TO.P,U1,39,VSYS*%
%TO.N,+5V*%
X167345000Y-63480000D03*
D13*
X166245000Y-63480000D03*
D12*
%TO.P,U1,40,VBUS*%
%TO.N,VBUS*%
X167345000Y-60940000D03*
D13*
X166245000Y-60940000D03*
D14*
%TO.P,U1,D1,SWCLK*%
%TO.N,/SWCLK*%
X154305000Y-109370000D03*
D12*
X154305000Y-110470000D03*
D14*
%TO.P,U1,D2,GND*%
%TO.N,GND*%
X156845000Y-109370000D03*
D12*
X156845000Y-110470000D03*
%TO.P,U1,D3,SWDIO*%
%TO.N,/SWDIO*%
X159385000Y-110470000D03*
D14*
X159385000Y-109370000D03*
%TD*%
D10*
%TO.P,J4,1,Pin_1*%
%TO.N,/PI_UART_TX*%
X137790000Y-73660000D03*
D11*
%TO.P,J4,2,Pin_2*%
%TO.N,/PICO_UART_RX*%
X140330000Y-73660000D03*
%TD*%
D10*
%TO.P,J2,1,Pin_1*%
%TO.N,/PI_UART_RX*%
X137790000Y-67310000D03*
D11*
%TO.P,J2,2,Pin_2*%
%TO.N,/PICO_UART_TX*%
X140330000Y-67310000D03*
%TD*%
D10*
%TO.P,J5,1,Pin_1*%
%TO.N,GND*%
X137790000Y-80010000D03*
D11*
%TO.P,J5,2,Pin_2*%
X140330000Y-80010000D03*
%TD*%
D10*
%TO.P,J3,1,Pin_1*%
%TO.N,+5V*%
X137790000Y-60960000D03*
D11*
%TO.P,J3,2,Pin_2*%
%TO.N,VBUS*%
X140330000Y-60960000D03*
%TD*%
D15*
%TO.N,GND*%
X145500000Y-60950000D03*
X160000000Y-107400000D03*
X135420000Y-68460000D03*
X158000000Y-103200000D03*
X153700000Y-107400000D03*
X160310000Y-90930000D03*
X146120000Y-62220000D03*
X161400000Y-64800000D03*
X161690000Y-91430000D03*
X137130000Y-72240000D03*
X145400000Y-94100000D03*
X154900000Y-107400000D03*
X157000000Y-102200000D03*
X158900000Y-102200000D03*
X161400000Y-60600000D03*
X157900000Y-101200000D03*
X137890000Y-59550000D03*
X149300000Y-94700000D03*
X154900000Y-104400000D03*
X168400000Y-59800000D03*
X158700000Y-107400000D03*
X130850000Y-69860000D03*
X132710000Y-86840000D03*
X153700000Y-105400000D03*
%TO.N,Net-(SW1-Pad1)*%
X142400000Y-108200000D03*
%TD*%
D16*
%TO.N,VBUS*%
X141550020Y-59739980D02*
X164544980Y-59739980D01*
X140330000Y-60960000D02*
X141550020Y-59739980D01*
X164544980Y-59739980D02*
X165745000Y-60940000D01*
D17*
%TO.N,Net-(SW1-Pad1)*%
X161000000Y-99200000D02*
X152400000Y-107800000D01*
X142800000Y-107800000D02*
X142400000Y-108200000D01*
X152400000Y-107800000D02*
X142800000Y-107800000D01*
X165745000Y-86340000D02*
X161000000Y-91085000D01*
X161000000Y-91085000D02*
X161000000Y-99200000D01*
%TD*%
%TA.AperFunction,Conductor*%
%TO.N,GND*%
G36*
X141272892Y-59218907D02*
G01*
X141308856Y-59268407D01*
X141308856Y-59329593D01*
X141279260Y-59373883D01*
X141279297Y-59373923D01*
X141279131Y-59374076D01*
X141278993Y-59374283D01*
X141277870Y-59375242D01*
X141277860Y-59375252D01*
X141276392Y-59376505D01*
X141237965Y-59414932D01*
X141235163Y-59417625D01*
X141194534Y-59455182D01*
X141191121Y-59461057D01*
X141184959Y-59467938D01*
X140725432Y-59927465D01*
X140670915Y-59955242D01*
X140626153Y-59952034D01*
X140546859Y-59927488D01*
X140546855Y-59927487D01*
X140542238Y-59926058D01*
X140537431Y-59925553D01*
X140537427Y-59925552D01*
X140342185Y-59905032D01*
X140342183Y-59905032D01*
X140337369Y-59904526D01*
X140269372Y-59910714D01*
X140137039Y-59922757D01*
X140137036Y-59922758D01*
X140132219Y-59923196D01*
X140127577Y-59924562D01*
X140127573Y-59924563D01*
X139939250Y-59979989D01*
X139939247Y-59979990D01*
X139934603Y-59981357D01*
X139930309Y-59983602D01*
X139756344Y-60074548D01*
X139756340Y-60074551D01*
X139752047Y-60076795D01*
X139748271Y-60079831D01*
X139748268Y-60079833D01*
X139710748Y-60110000D01*
X139591505Y-60205874D01*
X139556661Y-60247400D01*
X139462202Y-60359971D01*
X139462199Y-60359975D01*
X139459093Y-60363677D01*
X139359853Y-60544194D01*
X139358389Y-60548808D01*
X139358388Y-60548811D01*
X139326199Y-60650283D01*
X139297565Y-60740549D01*
X139297025Y-60745361D01*
X139297025Y-60745362D01*
X139275619Y-60936209D01*
X139274603Y-60945263D01*
X139291840Y-61150538D01*
X139348621Y-61348555D01*
X139442782Y-61531773D01*
X139570737Y-61693212D01*
X139727612Y-61826723D01*
X139731835Y-61829083D01*
X139731839Y-61829086D01*
X139838401Y-61888641D01*
X139907432Y-61927221D01*
X139912030Y-61928715D01*
X140098742Y-61989382D01*
X140098745Y-61989383D01*
X140103347Y-61990878D01*
X140307895Y-62015269D01*
X140312717Y-62014898D01*
X140312720Y-62014898D01*
X140508458Y-61999837D01*
X140508463Y-61999836D01*
X140513286Y-61999465D01*
X140711695Y-61944068D01*
X140716013Y-61941887D01*
X140891244Y-61853371D01*
X140891246Y-61853370D01*
X140895565Y-61851188D01*
X141057893Y-61724363D01*
X141061055Y-61720700D01*
X141061060Y-61720695D01*
X141189332Y-61572089D01*
X141192496Y-61568424D01*
X141215766Y-61527463D01*
X141291858Y-61393517D01*
X141291859Y-61393514D01*
X141294247Y-61389311D01*
X141309355Y-61343897D01*
X141357743Y-61198435D01*
X141357743Y-61198433D01*
X141359270Y-61193844D01*
X141364154Y-61155187D01*
X141384740Y-60992225D01*
X141385088Y-60989471D01*
X141385500Y-60960000D01*
X141383167Y-60936209D01*
X141365870Y-60759796D01*
X141365869Y-60759792D01*
X141365398Y-60754986D01*
X141337701Y-60663249D01*
X141338983Y-60602078D01*
X141362472Y-60564632D01*
X141707628Y-60219476D01*
X141762145Y-60191699D01*
X141777632Y-60190480D01*
X145791831Y-60190480D01*
X145850022Y-60209387D01*
X145885986Y-60258887D01*
X145885986Y-60320073D01*
X145883299Y-60327356D01*
X145860132Y-60383285D01*
X145844500Y-60502021D01*
X145844500Y-60894296D01*
X145843321Y-60909527D01*
X145839538Y-60933824D01*
X145840453Y-60940822D01*
X145840453Y-60940823D01*
X145843664Y-60965378D01*
X145844500Y-60978214D01*
X145844500Y-61377979D01*
X145860132Y-61496715D01*
X145920622Y-61642750D01*
X146016847Y-61768153D01*
X146142250Y-61864378D01*
X146288285Y-61924868D01*
X146407021Y-61940500D01*
X148482979Y-61940500D01*
X148601715Y-61924868D01*
X148747750Y-61864378D01*
X148873153Y-61768153D01*
X148969378Y-61642750D01*
X149029868Y-61496715D01*
X149045500Y-61377979D01*
X149045500Y-60502021D01*
X149029868Y-60383285D01*
X149006705Y-60327365D01*
X149001904Y-60266370D01*
X149033873Y-60214200D01*
X149090401Y-60190785D01*
X149098169Y-60190480D01*
X164317369Y-60190480D01*
X164375560Y-60209387D01*
X164387373Y-60219476D01*
X164615504Y-60447607D01*
X164643281Y-60502124D01*
X164644500Y-60517611D01*
X164644500Y-61377979D01*
X164660132Y-61496715D01*
X164720622Y-61642750D01*
X164816847Y-61768153D01*
X164942250Y-61864378D01*
X165088285Y-61924868D01*
X165207021Y-61940500D01*
X167282979Y-61940500D01*
X167401715Y-61924868D01*
X167547750Y-61864378D01*
X167673153Y-61768153D01*
X167769378Y-61642750D01*
X167829868Y-61496715D01*
X167845500Y-61377979D01*
X167845500Y-60989442D01*
X167846872Y-60973017D01*
X167849715Y-60956120D01*
X167849715Y-60956117D01*
X167850349Y-60952350D01*
X167850500Y-60940000D01*
X167846500Y-60912069D01*
X167845500Y-60898034D01*
X167845500Y-60502021D01*
X167829868Y-60383285D01*
X167769378Y-60237250D01*
X167673153Y-60111847D01*
X167547750Y-60015622D01*
X167413636Y-59960070D01*
X167407712Y-59957616D01*
X167401715Y-59955132D01*
X167282979Y-59939500D01*
X165422612Y-59939500D01*
X165364421Y-59920593D01*
X165352608Y-59910504D01*
X164886061Y-59443957D01*
X164878319Y-59435243D01*
X164861374Y-59413748D01*
X164861373Y-59413747D01*
X164856791Y-59407935D01*
X164817011Y-59380441D01*
X164779891Y-59331802D01*
X164778450Y-59270634D01*
X164813238Y-59220300D01*
X164873299Y-59200000D01*
X170943699Y-59200000D01*
X170967637Y-59202938D01*
X170968720Y-59203208D01*
X170968724Y-59203208D01*
X170974159Y-59204563D01*
X171082240Y-59206532D01*
X171087467Y-59206766D01*
X171153439Y-59211485D01*
X171160430Y-59212237D01*
X171349729Y-59239454D01*
X171356676Y-59240707D01*
X171376305Y-59244977D01*
X171406380Y-59251520D01*
X171413227Y-59253267D01*
X171596723Y-59307147D01*
X171603426Y-59309378D01*
X171616506Y-59314256D01*
X171651110Y-59327163D01*
X171657622Y-59329861D01*
X171831554Y-59409294D01*
X171837873Y-59412456D01*
X171870211Y-59430113D01*
X171879606Y-59435243D01*
X171882534Y-59436842D01*
X171888608Y-59440447D01*
X172049482Y-59543834D01*
X172055279Y-59547858D01*
X172096021Y-59578359D01*
X172101521Y-59582791D01*
X172128687Y-59606330D01*
X172246035Y-59708013D01*
X172251192Y-59712814D01*
X172287191Y-59748813D01*
X172292006Y-59753986D01*
X172417206Y-59898474D01*
X172421639Y-59903974D01*
X172422431Y-59905032D01*
X172452144Y-59944725D01*
X172456174Y-59950529D01*
X172559561Y-60111404D01*
X172563155Y-60117462D01*
X172587540Y-60162120D01*
X172590701Y-60168433D01*
X172618076Y-60228376D01*
X172670145Y-60342392D01*
X172672849Y-60348922D01*
X172690624Y-60396580D01*
X172692856Y-60403284D01*
X172746732Y-60586767D01*
X172748479Y-60593613D01*
X172759297Y-60643344D01*
X172760547Y-60650271D01*
X172787763Y-60839570D01*
X172788515Y-60846561D01*
X172793232Y-60912504D01*
X172793467Y-60917745D01*
X172795433Y-61025649D01*
X172796766Y-61031040D01*
X172796767Y-61031044D01*
X172797103Y-61032403D01*
X172800000Y-61056176D01*
X172800000Y-109443699D01*
X172797062Y-109467637D01*
X172795437Y-109474159D01*
X172795298Y-109481818D01*
X172793469Y-109582223D01*
X172793234Y-109587467D01*
X172788515Y-109653439D01*
X172787763Y-109660431D01*
X172760548Y-109849718D01*
X172760547Y-109849725D01*
X172759292Y-109856681D01*
X172748479Y-109906385D01*
X172746732Y-109913231D01*
X172692860Y-110096705D01*
X172690629Y-110103408D01*
X172686913Y-110113371D01*
X172672845Y-110151089D01*
X172670144Y-110157611D01*
X172616412Y-110275269D01*
X172590702Y-110331565D01*
X172587545Y-110337872D01*
X172568697Y-110372389D01*
X172563156Y-110382537D01*
X172559550Y-110388613D01*
X172456171Y-110549475D01*
X172452140Y-110555281D01*
X172421643Y-110596020D01*
X172417209Y-110601522D01*
X172292008Y-110746012D01*
X172287193Y-110751185D01*
X172251182Y-110787196D01*
X172246025Y-110791997D01*
X172101509Y-110917220D01*
X172096017Y-110921645D01*
X172055280Y-110952140D01*
X172049476Y-110956170D01*
X171888611Y-111059552D01*
X171882538Y-111063156D01*
X171837872Y-111087545D01*
X171831580Y-111090694D01*
X171831564Y-111090702D01*
X171657611Y-111170143D01*
X171651083Y-111172847D01*
X171628098Y-111181420D01*
X171603411Y-111190628D01*
X171596707Y-111192859D01*
X171413234Y-111246731D01*
X171406390Y-111248478D01*
X171356670Y-111259293D01*
X171349718Y-111260547D01*
X171254188Y-111274283D01*
X171160430Y-111287763D01*
X171153436Y-111288515D01*
X171087479Y-111293233D01*
X171082255Y-111293467D01*
X170974351Y-111295433D01*
X170968960Y-111296766D01*
X170968956Y-111296767D01*
X170967597Y-111297103D01*
X170943824Y-111300000D01*
X131056301Y-111300000D01*
X131032363Y-111297062D01*
X131031280Y-111296792D01*
X131031276Y-111296792D01*
X131025841Y-111295437D01*
X130917760Y-111293468D01*
X130912533Y-111293234D01*
X130846561Y-111288515D01*
X130839569Y-111287763D01*
X130650270Y-111260546D01*
X130643325Y-111259293D01*
X130608582Y-111251735D01*
X130593615Y-111248479D01*
X130586769Y-111246732D01*
X130403295Y-111192860D01*
X130396589Y-111190628D01*
X130396587Y-111190627D01*
X130348911Y-111172845D01*
X130342382Y-111170141D01*
X130168435Y-111090702D01*
X130162128Y-111087545D01*
X130127611Y-111068697D01*
X130117463Y-111063156D01*
X130111387Y-111059550D01*
X129950525Y-110956171D01*
X129944719Y-110952140D01*
X129903980Y-110921643D01*
X129898478Y-110917209D01*
X129753988Y-110792008D01*
X129748815Y-110787193D01*
X129712804Y-110751182D01*
X129708003Y-110746025D01*
X129582780Y-110601509D01*
X129578355Y-110596017D01*
X129547860Y-110555280D01*
X129543830Y-110549476D01*
X129450812Y-110404738D01*
X129440444Y-110388605D01*
X129436842Y-110382534D01*
X129412455Y-110337872D01*
X129409301Y-110331571D01*
X129409299Y-110331565D01*
X129372712Y-110251451D01*
X129329857Y-110157611D01*
X129327153Y-110151083D01*
X129313087Y-110113371D01*
X129309371Y-110103408D01*
X129307141Y-110096707D01*
X129275333Y-109988380D01*
X129253268Y-109913231D01*
X129251522Y-109906390D01*
X129240707Y-109856670D01*
X129239453Y-109849718D01*
X129214990Y-109679578D01*
X129212237Y-109660430D01*
X129211485Y-109653436D01*
X129206767Y-109587479D01*
X129206532Y-109582237D01*
X129204700Y-109481626D01*
X129204567Y-109474351D01*
X129203234Y-109468960D01*
X129203233Y-109468956D01*
X129202897Y-109467597D01*
X129200000Y-109443824D01*
X129200000Y-109205263D01*
X130389603Y-109205263D01*
X130395039Y-109270000D01*
X130406428Y-109405629D01*
X130406840Y-109410538D01*
X130408173Y-109415186D01*
X130408173Y-109415187D01*
X130425073Y-109474122D01*
X130463621Y-109608555D01*
X130465836Y-109612865D01*
X130479251Y-109638967D01*
X130557782Y-109791773D01*
X130685737Y-109953212D01*
X130689417Y-109956344D01*
X130689419Y-109956346D01*
X130725843Y-109987345D01*
X130842612Y-110086723D01*
X130846835Y-110089083D01*
X130846839Y-110089086D01*
X130957771Y-110151083D01*
X131022432Y-110187221D01*
X131027030Y-110188715D01*
X131213742Y-110249382D01*
X131213745Y-110249383D01*
X131218347Y-110250878D01*
X131422895Y-110275269D01*
X131427717Y-110274898D01*
X131427720Y-110274898D01*
X131623458Y-110259837D01*
X131623463Y-110259836D01*
X131628286Y-110259465D01*
X131826695Y-110204068D01*
X131831013Y-110201887D01*
X132006244Y-110113371D01*
X132006246Y-110113370D01*
X132010565Y-110111188D01*
X132172893Y-109984363D01*
X132176055Y-109980700D01*
X132176060Y-109980695D01*
X132283105Y-109856681D01*
X132307496Y-109828424D01*
X132326316Y-109795296D01*
X132406858Y-109653517D01*
X132406859Y-109653514D01*
X132409247Y-109649311D01*
X132410844Y-109644513D01*
X132472743Y-109458435D01*
X132472743Y-109458433D01*
X132474270Y-109453844D01*
X132479154Y-109415187D01*
X132489935Y-109329846D01*
X132940564Y-109329846D01*
X132946927Y-109405629D01*
X132948665Y-109415097D01*
X133002751Y-109603714D01*
X133006302Y-109612682D01*
X133095986Y-109787191D01*
X133101209Y-109795296D01*
X133223096Y-109949078D01*
X133229779Y-109955999D01*
X133379210Y-110083174D01*
X133387124Y-110088675D01*
X133558406Y-110184401D01*
X133567234Y-110188258D01*
X133753855Y-110248895D01*
X133763255Y-110250962D01*
X133869432Y-110263623D01*
X133882514Y-110261032D01*
X133883955Y-110259476D01*
X133885000Y-110254722D01*
X133885000Y-109335680D01*
X133882583Y-109328243D01*
X134085000Y-109328243D01*
X134085000Y-110249694D01*
X134089122Y-110262379D01*
X134091735Y-110264278D01*
X134094679Y-110264629D01*
X134163371Y-110259344D01*
X134172862Y-110257670D01*
X134361853Y-110204903D01*
X134370832Y-110201421D01*
X134545976Y-110112949D01*
X134554114Y-110107784D01*
X134708734Y-109986982D01*
X134715710Y-109980340D01*
X134843923Y-109831802D01*
X134849482Y-109823922D01*
X134946397Y-109653320D01*
X134950318Y-109644513D01*
X135012255Y-109458328D01*
X135014390Y-109448927D01*
X135028712Y-109335556D01*
X135026212Y-109322454D01*
X135024802Y-109321130D01*
X135019747Y-109320000D01*
X134100680Y-109320000D01*
X134087995Y-109324122D01*
X134085000Y-109328243D01*
X133882583Y-109328243D01*
X133880878Y-109322995D01*
X133876757Y-109320000D01*
X132955417Y-109320000D01*
X132942732Y-109324122D01*
X132940941Y-109326586D01*
X132940564Y-109329846D01*
X132489935Y-109329846D01*
X132499740Y-109252225D01*
X132500088Y-109249471D01*
X132500500Y-109220000D01*
X132498167Y-109196209D01*
X132489167Y-109104417D01*
X132941415Y-109104417D01*
X132944097Y-109117483D01*
X132945800Y-109119039D01*
X132950246Y-109120000D01*
X133869320Y-109120000D01*
X133882005Y-109115878D01*
X133885000Y-109111757D01*
X133885000Y-108190477D01*
X133883275Y-108185169D01*
X134085000Y-108185169D01*
X134085000Y-109104320D01*
X134089122Y-109117005D01*
X134093243Y-109120000D01*
X135014515Y-109120000D01*
X135027200Y-109115878D01*
X135028774Y-109113712D01*
X135029197Y-109109820D01*
X135020380Y-109019893D01*
X135018511Y-109010455D01*
X134961795Y-108822603D01*
X134958124Y-108813699D01*
X134866004Y-108640445D01*
X134860671Y-108632419D01*
X134736657Y-108480363D01*
X134729868Y-108473526D01*
X134578676Y-108348448D01*
X134570693Y-108343064D01*
X134398083Y-108249734D01*
X134389212Y-108246005D01*
X134220643Y-108193824D01*
X141894538Y-108193824D01*
X141895453Y-108200822D01*
X141912189Y-108328808D01*
X141913121Y-108335939D01*
X141915962Y-108342395D01*
X141915962Y-108342396D01*
X141917870Y-108346731D01*
X141970845Y-108467126D01*
X141975382Y-108472523D01*
X141975383Y-108472525D01*
X141978522Y-108476259D01*
X142063068Y-108576838D01*
X142068939Y-108580746D01*
X142068940Y-108580747D01*
X142081235Y-108588931D01*
X142182377Y-108656257D01*
X142189104Y-108658359D01*
X142189107Y-108658360D01*
X142312448Y-108696894D01*
X142312449Y-108696894D01*
X142319180Y-108698997D01*
X142390831Y-108700311D01*
X142455427Y-108701495D01*
X142455429Y-108701495D01*
X142462481Y-108701624D01*
X142469284Y-108699769D01*
X142469286Y-108699769D01*
X142516065Y-108687015D01*
X142600758Y-108663925D01*
X142722897Y-108588931D01*
X142819078Y-108482672D01*
X142870276Y-108377000D01*
X142878494Y-108360038D01*
X142881570Y-108353689D01*
X142883428Y-108342650D01*
X142904715Y-108216120D01*
X142904715Y-108216117D01*
X142905349Y-108212350D01*
X142905500Y-108200000D01*
X142903858Y-108188535D01*
X142914324Y-108128252D01*
X142958226Y-108085634D01*
X143001858Y-108075500D01*
X146127680Y-108075500D01*
X146185871Y-108094407D01*
X146221835Y-108143907D01*
X146221835Y-108205093D01*
X146185871Y-108254593D01*
X146165566Y-108265964D01*
X146142250Y-108275622D01*
X146016847Y-108371847D01*
X145920622Y-108497250D01*
X145860132Y-108643285D01*
X145844500Y-108762021D01*
X145844500Y-109154296D01*
X145843321Y-109169527D01*
X145839538Y-109193824D01*
X145840453Y-109200822D01*
X145840453Y-109200823D01*
X145843664Y-109225378D01*
X145844500Y-109238214D01*
X145844500Y-109637979D01*
X145860132Y-109756715D01*
X145920622Y-109902750D01*
X146016847Y-110028153D01*
X146142250Y-110124378D01*
X146288285Y-110184868D01*
X146407021Y-110200500D01*
X148482979Y-110200500D01*
X148601715Y-110184868D01*
X148747750Y-110124378D01*
X148873153Y-110028153D01*
X148969378Y-109902750D01*
X149029868Y-109756715D01*
X149045500Y-109637979D01*
X149045500Y-108762021D01*
X149029868Y-108643285D01*
X148969378Y-108497250D01*
X148873153Y-108371847D01*
X148821251Y-108332021D01*
X153304500Y-108332021D01*
X153304500Y-110407979D01*
X153320132Y-110526715D01*
X153380622Y-110672750D01*
X153476847Y-110798153D01*
X153602250Y-110894378D01*
X153748285Y-110954868D01*
X153867021Y-110970500D01*
X154305280Y-110970500D01*
X154307095Y-110970517D01*
X154360427Y-110971495D01*
X154360429Y-110971495D01*
X154367481Y-110971624D01*
X154370735Y-110970737D01*
X154374555Y-110970500D01*
X154742979Y-110970500D01*
X154861715Y-110954868D01*
X155007750Y-110894378D01*
X155133153Y-110798153D01*
X155229378Y-110672750D01*
X155289868Y-110526715D01*
X155305500Y-110407979D01*
X155305500Y-109478243D01*
X155845000Y-109478243D01*
X155845000Y-110404738D01*
X155845423Y-110411192D01*
X155859768Y-110520150D01*
X155863099Y-110532583D01*
X155918572Y-110666505D01*
X155925006Y-110677649D01*
X156013246Y-110792647D01*
X156022353Y-110801754D01*
X156137351Y-110889994D01*
X156148495Y-110896428D01*
X156282417Y-110951901D01*
X156294850Y-110955232D01*
X156403808Y-110969577D01*
X156410262Y-110970000D01*
X156844991Y-110970000D01*
X156846805Y-110970017D01*
X156900363Y-110970999D01*
X156902287Y-110970759D01*
X156914524Y-110970000D01*
X157279738Y-110970000D01*
X157286192Y-110969577D01*
X157395150Y-110955232D01*
X157407583Y-110951901D01*
X157541505Y-110896428D01*
X157552649Y-110889994D01*
X157667647Y-110801754D01*
X157676754Y-110792647D01*
X157764994Y-110677649D01*
X157771428Y-110666505D01*
X157826901Y-110532583D01*
X157830232Y-110520150D01*
X157844577Y-110411192D01*
X157845000Y-110404738D01*
X157845000Y-109485680D01*
X157840878Y-109472995D01*
X157836757Y-109470000D01*
X155860680Y-109470000D01*
X155847995Y-109474122D01*
X155845000Y-109478243D01*
X155305500Y-109478243D01*
X155305500Y-108335262D01*
X155845000Y-108335262D01*
X155845000Y-109254320D01*
X155849122Y-109267005D01*
X155853243Y-109270000D01*
X157829320Y-109270000D01*
X157842005Y-109265878D01*
X157845000Y-109261757D01*
X157845000Y-108335262D01*
X157844788Y-108332021D01*
X158384500Y-108332021D01*
X158384500Y-110407979D01*
X158400132Y-110526715D01*
X158460622Y-110672750D01*
X158556847Y-110798153D01*
X158682250Y-110894378D01*
X158828285Y-110954868D01*
X158947021Y-110970500D01*
X159385280Y-110970500D01*
X159387095Y-110970517D01*
X159440427Y-110971495D01*
X159440429Y-110971495D01*
X159447481Y-110971624D01*
X159450735Y-110970737D01*
X159454555Y-110970500D01*
X159822979Y-110970500D01*
X159941715Y-110954868D01*
X160087750Y-110894378D01*
X160213153Y-110798153D01*
X160309378Y-110672750D01*
X160369868Y-110526715D01*
X160385500Y-110407979D01*
X160385500Y-108762021D01*
X164644500Y-108762021D01*
X164644500Y-109637979D01*
X164660132Y-109756715D01*
X164720622Y-109902750D01*
X164816847Y-110028153D01*
X164942250Y-110124378D01*
X165088285Y-110184868D01*
X165207021Y-110200500D01*
X167282979Y-110200500D01*
X167401715Y-110184868D01*
X167547750Y-110124378D01*
X167673153Y-110028153D01*
X167769378Y-109902750D01*
X167829868Y-109756715D01*
X167845500Y-109637979D01*
X167845500Y-109249442D01*
X167846872Y-109233017D01*
X167849715Y-109216120D01*
X167849715Y-109216117D01*
X167850349Y-109212350D01*
X167850500Y-109200000D01*
X167846500Y-109172069D01*
X167845500Y-109158034D01*
X167845500Y-108762021D01*
X167829868Y-108643285D01*
X167769378Y-108497250D01*
X167673153Y-108371847D01*
X167547750Y-108275622D01*
X167401715Y-108215132D01*
X167282979Y-108199500D01*
X165207021Y-108199500D01*
X165088285Y-108215132D01*
X164942250Y-108275622D01*
X164816847Y-108371847D01*
X164720622Y-108497250D01*
X164660132Y-108643285D01*
X164644500Y-108762021D01*
X160385500Y-108762021D01*
X160385500Y-108332021D01*
X160369868Y-108213285D01*
X160309378Y-108067250D01*
X160213153Y-107941847D01*
X160087750Y-107845622D01*
X159941715Y-107785132D01*
X159822979Y-107769500D01*
X158947021Y-107769500D01*
X158828285Y-107785132D01*
X158682250Y-107845622D01*
X158556847Y-107941847D01*
X158460622Y-108067250D01*
X158400132Y-108213285D01*
X158384500Y-108332021D01*
X157844788Y-108332021D01*
X157844577Y-108328808D01*
X157830232Y-108219850D01*
X157826901Y-108207417D01*
X157771428Y-108073495D01*
X157764994Y-108062351D01*
X157676754Y-107947353D01*
X157667647Y-107938246D01*
X157552649Y-107850006D01*
X157541505Y-107843572D01*
X157407583Y-107788099D01*
X157395150Y-107784768D01*
X157286192Y-107770423D01*
X157279738Y-107770000D01*
X156410262Y-107770000D01*
X156403808Y-107770423D01*
X156294850Y-107784768D01*
X156282417Y-107788099D01*
X156148495Y-107843572D01*
X156137351Y-107850006D01*
X156022353Y-107938246D01*
X156013246Y-107947353D01*
X155925006Y-108062351D01*
X155918572Y-108073495D01*
X155863099Y-108207417D01*
X155859768Y-108219850D01*
X155845423Y-108328808D01*
X155845000Y-108335262D01*
X155305500Y-108335262D01*
X155305500Y-108332021D01*
X155289868Y-108213285D01*
X155229378Y-108067250D01*
X155133153Y-107941847D01*
X155007750Y-107845622D01*
X154861715Y-107785132D01*
X154742979Y-107769500D01*
X153867021Y-107769500D01*
X153748285Y-107785132D01*
X153602250Y-107845622D01*
X153476847Y-107941847D01*
X153380622Y-108067250D01*
X153320132Y-108213285D01*
X153304500Y-108332021D01*
X148821251Y-108332021D01*
X148747750Y-108275622D01*
X148724434Y-108265964D01*
X148677908Y-108226227D01*
X148663625Y-108166732D01*
X148687040Y-108110204D01*
X148739210Y-108078235D01*
X148762320Y-108075500D01*
X152365116Y-108075500D01*
X152384430Y-108077402D01*
X152400000Y-108080499D01*
X152409562Y-108078597D01*
X152425127Y-108075501D01*
X152425134Y-108075500D01*
X152425137Y-108075500D01*
X152436474Y-108073245D01*
X152497778Y-108061051D01*
X152497780Y-108061050D01*
X152507343Y-108059148D01*
X152598343Y-107998343D01*
X152607163Y-107985143D01*
X152619474Y-107970141D01*
X154367594Y-106222021D01*
X164644500Y-106222021D01*
X164644500Y-107097979D01*
X164660132Y-107216715D01*
X164720622Y-107362750D01*
X164816847Y-107488153D01*
X164942250Y-107584378D01*
X165088285Y-107644868D01*
X165207021Y-107660500D01*
X167282979Y-107660500D01*
X167401715Y-107644868D01*
X167547750Y-107584378D01*
X167673153Y-107488153D01*
X167769378Y-107362750D01*
X167829868Y-107216715D01*
X167845500Y-107097979D01*
X167845500Y-106709442D01*
X167846872Y-106693017D01*
X167849715Y-106676120D01*
X167849715Y-106676117D01*
X167850349Y-106672350D01*
X167850500Y-106660000D01*
X167846500Y-106632069D01*
X167845500Y-106618034D01*
X167845500Y-106222021D01*
X167829868Y-106103285D01*
X167769378Y-105957250D01*
X167673153Y-105831847D01*
X167547750Y-105735622D01*
X167401715Y-105675132D01*
X167282979Y-105659500D01*
X165207021Y-105659500D01*
X165088285Y-105675132D01*
X164942250Y-105735622D01*
X164816847Y-105831847D01*
X164720622Y-105957250D01*
X164660132Y-106103285D01*
X164644500Y-106222021D01*
X154367594Y-106222021D01*
X156904353Y-103685262D01*
X164645000Y-103685262D01*
X164645000Y-104554738D01*
X164645423Y-104561192D01*
X164659768Y-104670150D01*
X164663099Y-104682583D01*
X164718572Y-104816505D01*
X164725006Y-104827649D01*
X164813246Y-104942647D01*
X164822353Y-104951754D01*
X164937351Y-105039994D01*
X164948495Y-105046428D01*
X165082417Y-105101901D01*
X165094850Y-105105232D01*
X165203808Y-105119577D01*
X165210262Y-105120000D01*
X166129320Y-105120000D01*
X166142005Y-105115878D01*
X166145000Y-105111757D01*
X166145000Y-104228243D01*
X166345000Y-104228243D01*
X166345000Y-105104320D01*
X166349122Y-105117005D01*
X166353243Y-105120000D01*
X167279738Y-105120000D01*
X167286192Y-105119577D01*
X167395150Y-105105232D01*
X167407583Y-105101901D01*
X167541505Y-105046428D01*
X167552649Y-105039994D01*
X167667647Y-104951754D01*
X167676754Y-104942647D01*
X167764994Y-104827649D01*
X167771428Y-104816505D01*
X167826901Y-104682583D01*
X167830232Y-104670150D01*
X167844577Y-104561192D01*
X167845000Y-104554738D01*
X167845000Y-104235680D01*
X167840878Y-104222995D01*
X167836757Y-104220000D01*
X166360680Y-104220000D01*
X166347995Y-104224122D01*
X166345000Y-104228243D01*
X166145000Y-104228243D01*
X166145000Y-103135680D01*
X166142583Y-103128243D01*
X166345000Y-103128243D01*
X166345000Y-104004320D01*
X166349122Y-104017005D01*
X166353243Y-104020000D01*
X167829320Y-104020000D01*
X167842005Y-104015878D01*
X167845000Y-104011757D01*
X167845000Y-103685262D01*
X167844577Y-103678808D01*
X167830232Y-103569850D01*
X167826901Y-103557417D01*
X167771428Y-103423495D01*
X167764994Y-103412351D01*
X167676754Y-103297353D01*
X167667647Y-103288246D01*
X167552649Y-103200006D01*
X167541505Y-103193572D01*
X167407583Y-103138099D01*
X167395150Y-103134768D01*
X167286192Y-103120423D01*
X167279738Y-103120000D01*
X166360680Y-103120000D01*
X166347995Y-103124122D01*
X166345000Y-103128243D01*
X166142583Y-103128243D01*
X166140878Y-103122995D01*
X166136757Y-103120000D01*
X165210262Y-103120000D01*
X165203808Y-103120423D01*
X165094850Y-103134768D01*
X165082417Y-103138099D01*
X164948495Y-103193572D01*
X164937351Y-103200006D01*
X164822353Y-103288246D01*
X164813246Y-103297353D01*
X164725006Y-103412351D01*
X164718572Y-103423495D01*
X164663099Y-103557417D01*
X164659768Y-103569850D01*
X164645423Y-103678808D01*
X164645000Y-103685262D01*
X156904353Y-103685262D01*
X159447595Y-101142021D01*
X164644500Y-101142021D01*
X164644500Y-102017979D01*
X164660132Y-102136715D01*
X164720622Y-102282750D01*
X164816847Y-102408153D01*
X164942250Y-102504378D01*
X165088285Y-102564868D01*
X165207021Y-102580500D01*
X167282979Y-102580500D01*
X167401715Y-102564868D01*
X167547750Y-102504378D01*
X167673153Y-102408153D01*
X167769378Y-102282750D01*
X167829868Y-102136715D01*
X167845500Y-102017979D01*
X167845500Y-101629442D01*
X167846872Y-101613017D01*
X167849715Y-101596120D01*
X167849715Y-101596117D01*
X167850349Y-101592350D01*
X167850500Y-101580000D01*
X167846500Y-101552069D01*
X167845500Y-101538034D01*
X167845500Y-101142021D01*
X167829868Y-101023285D01*
X167769378Y-100877250D01*
X167673153Y-100751847D01*
X167547750Y-100655622D01*
X167401715Y-100595132D01*
X167282979Y-100579500D01*
X165207021Y-100579500D01*
X165088285Y-100595132D01*
X164942250Y-100655622D01*
X164816847Y-100751847D01*
X164720622Y-100877250D01*
X164660132Y-101023285D01*
X164644500Y-101142021D01*
X159447595Y-101142021D01*
X161170144Y-99419472D01*
X161185146Y-99407161D01*
X161190233Y-99403762D01*
X161198343Y-99398343D01*
X161212580Y-99377036D01*
X161212583Y-99377033D01*
X161259149Y-99307342D01*
X161280500Y-99200000D01*
X161277402Y-99184423D01*
X161275500Y-99165111D01*
X161275500Y-98602021D01*
X164644500Y-98602021D01*
X164644500Y-99477979D01*
X164660132Y-99596715D01*
X164720622Y-99742750D01*
X164816847Y-99868153D01*
X164942250Y-99964378D01*
X165088285Y-100024868D01*
X165207021Y-100040500D01*
X167282979Y-100040500D01*
X167401715Y-100024868D01*
X167547750Y-99964378D01*
X167673153Y-99868153D01*
X167769378Y-99742750D01*
X167829868Y-99596715D01*
X167845500Y-99477979D01*
X167845500Y-99089442D01*
X167846872Y-99073017D01*
X167849715Y-99056120D01*
X167849715Y-99056117D01*
X167850349Y-99052350D01*
X167850500Y-99040000D01*
X167846500Y-99012069D01*
X167845500Y-98998034D01*
X167845500Y-98602021D01*
X167829868Y-98483285D01*
X167769378Y-98337250D01*
X167673153Y-98211847D01*
X167547750Y-98115622D01*
X167401715Y-98055132D01*
X167282979Y-98039500D01*
X165207021Y-98039500D01*
X165088285Y-98055132D01*
X164942250Y-98115622D01*
X164816847Y-98211847D01*
X164720622Y-98337250D01*
X164660132Y-98483285D01*
X164644500Y-98602021D01*
X161275500Y-98602021D01*
X161275500Y-96062021D01*
X164644500Y-96062021D01*
X164644500Y-96937979D01*
X164660132Y-97056715D01*
X164720622Y-97202750D01*
X164816847Y-97328153D01*
X164942250Y-97424378D01*
X165088285Y-97484868D01*
X165207021Y-97500500D01*
X167282979Y-97500500D01*
X167401715Y-97484868D01*
X167547750Y-97424378D01*
X167673153Y-97328153D01*
X167769378Y-97202750D01*
X167829868Y-97056715D01*
X167845500Y-96937979D01*
X167845500Y-96549442D01*
X167846872Y-96533017D01*
X167849715Y-96516120D01*
X167849715Y-96516117D01*
X167850349Y-96512350D01*
X167850500Y-96500000D01*
X167846500Y-96472069D01*
X167845500Y-96458034D01*
X167845500Y-96062021D01*
X167829868Y-95943285D01*
X167769378Y-95797250D01*
X167673153Y-95671847D01*
X167547750Y-95575622D01*
X167401715Y-95515132D01*
X167282979Y-95499500D01*
X165207021Y-95499500D01*
X165088285Y-95515132D01*
X164942250Y-95575622D01*
X164816847Y-95671847D01*
X164720622Y-95797250D01*
X164660132Y-95943285D01*
X164644500Y-96062021D01*
X161275500Y-96062021D01*
X161275500Y-93522021D01*
X164644500Y-93522021D01*
X164644500Y-94397979D01*
X164660132Y-94516715D01*
X164720622Y-94662750D01*
X164816847Y-94788153D01*
X164942250Y-94884378D01*
X165088285Y-94944868D01*
X165207021Y-94960500D01*
X167282979Y-94960500D01*
X167401715Y-94944868D01*
X167547750Y-94884378D01*
X167673153Y-94788153D01*
X167769378Y-94662750D01*
X167829868Y-94516715D01*
X167845500Y-94397979D01*
X167845500Y-94009442D01*
X167846872Y-93993017D01*
X167849715Y-93976120D01*
X167849715Y-93976117D01*
X167850349Y-93972350D01*
X167850500Y-93960000D01*
X167846500Y-93932069D01*
X167845500Y-93918034D01*
X167845500Y-93522021D01*
X167829868Y-93403285D01*
X167769378Y-93257250D01*
X167673153Y-93131847D01*
X167547750Y-93035622D01*
X167401715Y-92975132D01*
X167282979Y-92959500D01*
X165207021Y-92959500D01*
X165088285Y-92975132D01*
X164942250Y-93035622D01*
X164816847Y-93131847D01*
X164720622Y-93257250D01*
X164660132Y-93403285D01*
X164644500Y-93522021D01*
X161275500Y-93522021D01*
X161275500Y-91240123D01*
X161294407Y-91181932D01*
X161304496Y-91170119D01*
X161489353Y-90985262D01*
X164645000Y-90985262D01*
X164645000Y-91854738D01*
X164645423Y-91861192D01*
X164659768Y-91970150D01*
X164663099Y-91982583D01*
X164718572Y-92116505D01*
X164725006Y-92127649D01*
X164813246Y-92242647D01*
X164822353Y-92251754D01*
X164937351Y-92339994D01*
X164948495Y-92346428D01*
X165082417Y-92401901D01*
X165094850Y-92405232D01*
X165203808Y-92419577D01*
X165210262Y-92420000D01*
X166129320Y-92420000D01*
X166142005Y-92415878D01*
X166145000Y-92411757D01*
X166145000Y-91528243D01*
X166345000Y-91528243D01*
X166345000Y-92404320D01*
X166349122Y-92417005D01*
X166353243Y-92420000D01*
X167279738Y-92420000D01*
X167286192Y-92419577D01*
X167395150Y-92405232D01*
X167407583Y-92401901D01*
X167541505Y-92346428D01*
X167552649Y-92339994D01*
X167667647Y-92251754D01*
X167676754Y-92242647D01*
X167764994Y-92127649D01*
X167771428Y-92116505D01*
X167826901Y-91982583D01*
X167830232Y-91970150D01*
X167844577Y-91861192D01*
X167845000Y-91854738D01*
X167845000Y-91535680D01*
X167840878Y-91522995D01*
X167836757Y-91520000D01*
X166360680Y-91520000D01*
X166347995Y-91524122D01*
X166345000Y-91528243D01*
X166145000Y-91528243D01*
X166145000Y-90435680D01*
X166142583Y-90428243D01*
X166345000Y-90428243D01*
X166345000Y-91304320D01*
X166349122Y-91317005D01*
X166353243Y-91320000D01*
X167829320Y-91320000D01*
X167842005Y-91315878D01*
X167845000Y-91311757D01*
X167845000Y-90985262D01*
X167844577Y-90978808D01*
X167830232Y-90869850D01*
X167826901Y-90857417D01*
X167771428Y-90723495D01*
X167764994Y-90712351D01*
X167676754Y-90597353D01*
X167667647Y-90588246D01*
X167552649Y-90500006D01*
X167541505Y-90493572D01*
X167407583Y-90438099D01*
X167395150Y-90434768D01*
X167286192Y-90420423D01*
X167279738Y-90420000D01*
X166360680Y-90420000D01*
X166347995Y-90424122D01*
X166345000Y-90428243D01*
X166142583Y-90428243D01*
X166140878Y-90422995D01*
X166136757Y-90420000D01*
X165210262Y-90420000D01*
X165203808Y-90420423D01*
X165094850Y-90434768D01*
X165082417Y-90438099D01*
X164948495Y-90493572D01*
X164937351Y-90500006D01*
X164822353Y-90588246D01*
X164813246Y-90597353D01*
X164725006Y-90712351D01*
X164718572Y-90723495D01*
X164663099Y-90857417D01*
X164659768Y-90869850D01*
X164645423Y-90978808D01*
X164645000Y-90985262D01*
X161489353Y-90985262D01*
X164032594Y-88442021D01*
X164644500Y-88442021D01*
X164644500Y-89317979D01*
X164660132Y-89436715D01*
X164720622Y-89582750D01*
X164816847Y-89708153D01*
X164942250Y-89804378D01*
X165088285Y-89864868D01*
X165207021Y-89880500D01*
X167282979Y-89880500D01*
X167401715Y-89864868D01*
X167547750Y-89804378D01*
X167673153Y-89708153D01*
X167769378Y-89582750D01*
X167829868Y-89436715D01*
X167845500Y-89317979D01*
X167845500Y-88929442D01*
X167846872Y-88913017D01*
X167849715Y-88896120D01*
X167849715Y-88896117D01*
X167850349Y-88892350D01*
X167850500Y-88880000D01*
X167846500Y-88852069D01*
X167845500Y-88838034D01*
X167845500Y-88442021D01*
X167829868Y-88323285D01*
X167769378Y-88177250D01*
X167673153Y-88051847D01*
X167547750Y-87955622D01*
X167401715Y-87895132D01*
X167282979Y-87879500D01*
X165207021Y-87879500D01*
X165088285Y-87895132D01*
X164942250Y-87955622D01*
X164816847Y-88051847D01*
X164720622Y-88177250D01*
X164660132Y-88323285D01*
X164644500Y-88442021D01*
X164032594Y-88442021D01*
X165108075Y-87366540D01*
X165162592Y-87338763D01*
X165191001Y-87338391D01*
X165203807Y-87340077D01*
X165203809Y-87340077D01*
X165207021Y-87340500D01*
X167282979Y-87340500D01*
X167401715Y-87324868D01*
X167547750Y-87264378D01*
X167673153Y-87168153D01*
X167769378Y-87042750D01*
X167829868Y-86896715D01*
X167845500Y-86777979D01*
X167845500Y-86389442D01*
X167846872Y-86373017D01*
X167849715Y-86356120D01*
X167849715Y-86356117D01*
X167850349Y-86352350D01*
X167850500Y-86340000D01*
X167846500Y-86312069D01*
X167845500Y-86298034D01*
X167845500Y-85902021D01*
X167829868Y-85783285D01*
X167769378Y-85637250D01*
X167673153Y-85511847D01*
X167547750Y-85415622D01*
X167401715Y-85355132D01*
X167282979Y-85339500D01*
X165207021Y-85339500D01*
X165088285Y-85355132D01*
X164942250Y-85415622D01*
X164816847Y-85511847D01*
X164720622Y-85637250D01*
X164660132Y-85783285D01*
X164644500Y-85902021D01*
X164644500Y-86777979D01*
X164660132Y-86896715D01*
X164662616Y-86902711D01*
X164662616Y-86902712D01*
X164675394Y-86933560D01*
X164680195Y-86994556D01*
X164653934Y-87041450D01*
X160829859Y-90865526D01*
X160814857Y-90877837D01*
X160801657Y-90886657D01*
X160740852Y-90977657D01*
X160724500Y-91059863D01*
X160724500Y-91059868D01*
X160719501Y-91085000D01*
X160721403Y-91094562D01*
X160722598Y-91100570D01*
X160724500Y-91119884D01*
X160724500Y-99044876D01*
X160705593Y-99103067D01*
X160695504Y-99114880D01*
X152314881Y-107495504D01*
X152260364Y-107523281D01*
X152244877Y-107524500D01*
X149046015Y-107524500D01*
X148987824Y-107505593D01*
X148951860Y-107456093D01*
X148951860Y-107394907D01*
X148962897Y-107373928D01*
X148962184Y-107373516D01*
X148965427Y-107367899D01*
X148969378Y-107362750D01*
X149029868Y-107216715D01*
X149045500Y-107097979D01*
X149045500Y-106222021D01*
X149029868Y-106103285D01*
X148969378Y-105957250D01*
X148873153Y-105831847D01*
X148747750Y-105735622D01*
X148601715Y-105675132D01*
X148482979Y-105659500D01*
X146407021Y-105659500D01*
X146288285Y-105675132D01*
X146142250Y-105735622D01*
X146016847Y-105831847D01*
X145920622Y-105957250D01*
X145860132Y-106103285D01*
X145844500Y-106222021D01*
X145844500Y-106614296D01*
X145843321Y-106629527D01*
X145839538Y-106653824D01*
X145840453Y-106660822D01*
X145840453Y-106660823D01*
X145843664Y-106685378D01*
X145844500Y-106698214D01*
X145844500Y-107097979D01*
X145860132Y-107216715D01*
X145920622Y-107362750D01*
X145924573Y-107367899D01*
X145927816Y-107373516D01*
X145925861Y-107374645D01*
X145942951Y-107422915D01*
X145925570Y-107481580D01*
X145877025Y-107518824D01*
X145843985Y-107524500D01*
X142834884Y-107524500D01*
X142815570Y-107522598D01*
X142809562Y-107521403D01*
X142800000Y-107519501D01*
X142790437Y-107521403D01*
X142774872Y-107524499D01*
X142774864Y-107524500D01*
X142774861Y-107524500D01*
X142774856Y-107524501D01*
X142706484Y-107538102D01*
X142692657Y-107540852D01*
X142651716Y-107568208D01*
X142622966Y-107587418D01*
X142622962Y-107587421D01*
X142609767Y-107596238D01*
X142601657Y-107601657D01*
X142596238Y-107609767D01*
X142592839Y-107614854D01*
X142580528Y-107629856D01*
X142539362Y-107671022D01*
X142484845Y-107698799D01*
X142468758Y-107700016D01*
X142353237Y-107699310D01*
X142338448Y-107699220D01*
X142331396Y-107699177D01*
X142324620Y-107701114D01*
X142324617Y-107701114D01*
X142200369Y-107736624D01*
X142200367Y-107736625D01*
X142193589Y-107738562D01*
X142072375Y-107815042D01*
X141977499Y-107922469D01*
X141916588Y-108052206D01*
X141894538Y-108193824D01*
X134220643Y-108193824D01*
X134201758Y-108187978D01*
X134192326Y-108186042D01*
X134100593Y-108176401D01*
X134087548Y-108179174D01*
X134085881Y-108181025D01*
X134085000Y-108185169D01*
X133883275Y-108185169D01*
X133880878Y-108177792D01*
X133878563Y-108176109D01*
X133874987Y-108175708D01*
X133792132Y-108183248D01*
X133782669Y-108185054D01*
X133594429Y-108240456D01*
X133585505Y-108244061D01*
X133411611Y-108334971D01*
X133403547Y-108340248D01*
X133250627Y-108463198D01*
X133243743Y-108469939D01*
X133117622Y-108620245D01*
X133112169Y-108628209D01*
X133017647Y-108800145D01*
X133013847Y-108809008D01*
X132954518Y-108996038D01*
X132952514Y-109005466D01*
X132941415Y-109104417D01*
X132489167Y-109104417D01*
X132480870Y-109019796D01*
X132480869Y-109019792D01*
X132480398Y-109014986D01*
X132477493Y-109005362D01*
X132422256Y-108822412D01*
X132420858Y-108817780D01*
X132324148Y-108635895D01*
X132193952Y-108476259D01*
X132189438Y-108472525D01*
X132038955Y-108348034D01*
X132038953Y-108348033D01*
X132035228Y-108344951D01*
X131868116Y-108254593D01*
X131858277Y-108249273D01*
X131858276Y-108249272D01*
X131854023Y-108246973D01*
X131754353Y-108216120D01*
X131661859Y-108187488D01*
X131661855Y-108187487D01*
X131657238Y-108186058D01*
X131652431Y-108185553D01*
X131652427Y-108185552D01*
X131457185Y-108165032D01*
X131457183Y-108165032D01*
X131452369Y-108164526D01*
X131384372Y-108170714D01*
X131252039Y-108182757D01*
X131252036Y-108182758D01*
X131247219Y-108183196D01*
X131242577Y-108184562D01*
X131242573Y-108184563D01*
X131054250Y-108239989D01*
X131054247Y-108239990D01*
X131049603Y-108241357D01*
X131045309Y-108243602D01*
X130871344Y-108334548D01*
X130871340Y-108334551D01*
X130867047Y-108336795D01*
X130863271Y-108339831D01*
X130863268Y-108339833D01*
X130823451Y-108371847D01*
X130706505Y-108465874D01*
X130633736Y-108552597D01*
X130577202Y-108619971D01*
X130577199Y-108619975D01*
X130574093Y-108623677D01*
X130474853Y-108804194D01*
X130473389Y-108808808D01*
X130473388Y-108808811D01*
X130470543Y-108817780D01*
X130412565Y-109000549D01*
X130412025Y-109005361D01*
X130412025Y-109005362D01*
X130390619Y-109196209D01*
X130389603Y-109205263D01*
X129200000Y-109205263D01*
X129200000Y-106665263D01*
X130389603Y-106665263D01*
X130406840Y-106870538D01*
X130463621Y-107068555D01*
X130557782Y-107251773D01*
X130685737Y-107413212D01*
X130842612Y-107546723D01*
X130846835Y-107549083D01*
X130846839Y-107549086D01*
X130940905Y-107601657D01*
X131022432Y-107647221D01*
X131027030Y-107648715D01*
X131213742Y-107709382D01*
X131213745Y-107709383D01*
X131218347Y-107710878D01*
X131422895Y-107735269D01*
X131427717Y-107734898D01*
X131427720Y-107734898D01*
X131623458Y-107719837D01*
X131623463Y-107719836D01*
X131628286Y-107719465D01*
X131826695Y-107664068D01*
X131831013Y-107661887D01*
X132006244Y-107573371D01*
X132006246Y-107573370D01*
X132010565Y-107571188D01*
X132172893Y-107444363D01*
X132176055Y-107440700D01*
X132176060Y-107440695D01*
X132304332Y-107292089D01*
X132307496Y-107288424D01*
X132330766Y-107247463D01*
X132406858Y-107113517D01*
X132406859Y-107113514D01*
X132409247Y-107109311D01*
X132424355Y-107063897D01*
X132472743Y-106918435D01*
X132472743Y-106918433D01*
X132474270Y-106913844D01*
X132479154Y-106875187D01*
X132499740Y-106712225D01*
X132500088Y-106709471D01*
X132500500Y-106680000D01*
X132499055Y-106665263D01*
X132929603Y-106665263D01*
X132946840Y-106870538D01*
X133003621Y-107068555D01*
X133097782Y-107251773D01*
X133225737Y-107413212D01*
X133382612Y-107546723D01*
X133386835Y-107549083D01*
X133386839Y-107549086D01*
X133480905Y-107601657D01*
X133562432Y-107647221D01*
X133567030Y-107648715D01*
X133753742Y-107709382D01*
X133753745Y-107709383D01*
X133758347Y-107710878D01*
X133962895Y-107735269D01*
X133967717Y-107734898D01*
X133967720Y-107734898D01*
X134163458Y-107719837D01*
X134163463Y-107719836D01*
X134168286Y-107719465D01*
X134366695Y-107664068D01*
X134371013Y-107661887D01*
X134546244Y-107573371D01*
X134546246Y-107573370D01*
X134550565Y-107571188D01*
X134712893Y-107444363D01*
X134716055Y-107440700D01*
X134716060Y-107440695D01*
X134844332Y-107292089D01*
X134847496Y-107288424D01*
X134870766Y-107247463D01*
X134946858Y-107113517D01*
X134946859Y-107113514D01*
X134949247Y-107109311D01*
X134964355Y-107063897D01*
X135012743Y-106918435D01*
X135012743Y-106918433D01*
X135014270Y-106913844D01*
X135019154Y-106875187D01*
X135039740Y-106712225D01*
X135040088Y-106709471D01*
X135040500Y-106680000D01*
X135038167Y-106656209D01*
X135020870Y-106479796D01*
X135020869Y-106479792D01*
X135020398Y-106474986D01*
X135017493Y-106465362D01*
X134962256Y-106282412D01*
X134960858Y-106277780D01*
X134864148Y-106095895D01*
X134733952Y-105936259D01*
X134575228Y-105804951D01*
X134394023Y-105706973D01*
X134299186Y-105677616D01*
X134201859Y-105647488D01*
X134201855Y-105647487D01*
X134197238Y-105646058D01*
X134192431Y-105645553D01*
X134192427Y-105645552D01*
X133997185Y-105625032D01*
X133997183Y-105625032D01*
X133992369Y-105624526D01*
X133924372Y-105630714D01*
X133792039Y-105642757D01*
X133792036Y-105642758D01*
X133787219Y-105643196D01*
X133782577Y-105644562D01*
X133782573Y-105644563D01*
X133594250Y-105699989D01*
X133594247Y-105699990D01*
X133589603Y-105701357D01*
X133585309Y-105703602D01*
X133411344Y-105794548D01*
X133411340Y-105794551D01*
X133407047Y-105796795D01*
X133403271Y-105799831D01*
X133403268Y-105799833D01*
X133363451Y-105831847D01*
X133246505Y-105925874D01*
X133173736Y-106012597D01*
X133117202Y-106079971D01*
X133117199Y-106079975D01*
X133114093Y-106083677D01*
X133014853Y-106264194D01*
X132952565Y-106460549D01*
X132952025Y-106465361D01*
X132952025Y-106465362D01*
X132930619Y-106656209D01*
X132929603Y-106665263D01*
X132499055Y-106665263D01*
X132498167Y-106656209D01*
X132480870Y-106479796D01*
X132480869Y-106479792D01*
X132480398Y-106474986D01*
X132477493Y-106465362D01*
X132422256Y-106282412D01*
X132420858Y-106277780D01*
X132324148Y-106095895D01*
X132193952Y-105936259D01*
X132035228Y-105804951D01*
X131854023Y-105706973D01*
X131759186Y-105677616D01*
X131661859Y-105647488D01*
X131661855Y-105647487D01*
X131657238Y-105646058D01*
X131652431Y-105645553D01*
X131652427Y-105645552D01*
X131457185Y-105625032D01*
X131457183Y-105625032D01*
X131452369Y-105624526D01*
X131384372Y-105630714D01*
X131252039Y-105642757D01*
X131252036Y-105642758D01*
X131247219Y-105643196D01*
X131242577Y-105644562D01*
X131242573Y-105644563D01*
X131054250Y-105699989D01*
X131054247Y-105699990D01*
X131049603Y-105701357D01*
X131045309Y-105703602D01*
X130871344Y-105794548D01*
X130871340Y-105794551D01*
X130867047Y-105796795D01*
X130863271Y-105799831D01*
X130863268Y-105799833D01*
X130823451Y-105831847D01*
X130706505Y-105925874D01*
X130633736Y-106012597D01*
X130577202Y-106079971D01*
X130577199Y-106079975D01*
X130574093Y-106083677D01*
X130474853Y-106264194D01*
X130412565Y-106460549D01*
X130412025Y-106465361D01*
X130412025Y-106465362D01*
X130390619Y-106656209D01*
X130389603Y-106665263D01*
X129200000Y-106665263D01*
X129200000Y-104125263D01*
X130389603Y-104125263D01*
X130406840Y-104330538D01*
X130463621Y-104528555D01*
X130557782Y-104711773D01*
X130685737Y-104873212D01*
X130842612Y-105006723D01*
X130846835Y-105009083D01*
X130846839Y-105009086D01*
X130963453Y-105074259D01*
X131022432Y-105107221D01*
X131027030Y-105108715D01*
X131213742Y-105169382D01*
X131213745Y-105169383D01*
X131218347Y-105170878D01*
X131422895Y-105195269D01*
X131427717Y-105194898D01*
X131427720Y-105194898D01*
X131623458Y-105179837D01*
X131623463Y-105179836D01*
X131628286Y-105179465D01*
X131826695Y-105124068D01*
X131831013Y-105121887D01*
X132006244Y-105033371D01*
X132006246Y-105033370D01*
X132010565Y-105031188D01*
X132172893Y-104904363D01*
X132176055Y-104900700D01*
X132176060Y-104900695D01*
X132304332Y-104752089D01*
X132307496Y-104748424D01*
X132330766Y-104707463D01*
X132406858Y-104573517D01*
X132406859Y-104573514D01*
X132409247Y-104569311D01*
X132424355Y-104523897D01*
X132472743Y-104378435D01*
X132472743Y-104378433D01*
X132474270Y-104373844D01*
X132479154Y-104335187D01*
X132499740Y-104172225D01*
X132500088Y-104169471D01*
X132500500Y-104140000D01*
X132499055Y-104125263D01*
X132929603Y-104125263D01*
X132946840Y-104330538D01*
X133003621Y-104528555D01*
X133097782Y-104711773D01*
X133225737Y-104873212D01*
X133382612Y-105006723D01*
X133386835Y-105009083D01*
X133386839Y-105009086D01*
X133503453Y-105074259D01*
X133562432Y-105107221D01*
X133567030Y-105108715D01*
X133753742Y-105169382D01*
X133753745Y-105169383D01*
X133758347Y-105170878D01*
X133962895Y-105195269D01*
X133967717Y-105194898D01*
X133967720Y-105194898D01*
X134163458Y-105179837D01*
X134163463Y-105179836D01*
X134168286Y-105179465D01*
X134366695Y-105124068D01*
X134371013Y-105121887D01*
X134546244Y-105033371D01*
X134546246Y-105033370D01*
X134550565Y-105031188D01*
X134712893Y-104904363D01*
X134716055Y-104900700D01*
X134716060Y-104900695D01*
X134844332Y-104752089D01*
X134847496Y-104748424D01*
X134870766Y-104707463D01*
X134946858Y-104573517D01*
X134946859Y-104573514D01*
X134949247Y-104569311D01*
X134964355Y-104523897D01*
X135012743Y-104378435D01*
X135012743Y-104378433D01*
X135014270Y-104373844D01*
X135019154Y-104335187D01*
X135032664Y-104228243D01*
X145845000Y-104228243D01*
X145845000Y-104554738D01*
X145845423Y-104561192D01*
X145859768Y-104670150D01*
X145863099Y-104682583D01*
X145918572Y-104816505D01*
X145925006Y-104827649D01*
X146013246Y-104942647D01*
X146022353Y-104951754D01*
X146137351Y-105039994D01*
X146148495Y-105046428D01*
X146282417Y-105101901D01*
X146294850Y-105105232D01*
X146403808Y-105119577D01*
X146410262Y-105120000D01*
X147329320Y-105120000D01*
X147342005Y-105115878D01*
X147345000Y-105111757D01*
X147345000Y-104235680D01*
X147340878Y-104222995D01*
X147336757Y-104220000D01*
X145860680Y-104220000D01*
X145847995Y-104224122D01*
X145845000Y-104228243D01*
X135032664Y-104228243D01*
X135039740Y-104172225D01*
X135040088Y-104169471D01*
X135040500Y-104140000D01*
X135027926Y-104011757D01*
X135020870Y-103939796D01*
X135020869Y-103939792D01*
X135020398Y-103934986D01*
X135017493Y-103925362D01*
X134962256Y-103742412D01*
X134960858Y-103737780D01*
X134932934Y-103685262D01*
X145845000Y-103685262D01*
X145845000Y-104004320D01*
X145849122Y-104017005D01*
X145853243Y-104020000D01*
X147329320Y-104020000D01*
X147342005Y-104015878D01*
X147345000Y-104011757D01*
X147345000Y-103135680D01*
X147342583Y-103128243D01*
X147545000Y-103128243D01*
X147545000Y-105104320D01*
X147549122Y-105117005D01*
X147553243Y-105120000D01*
X148479738Y-105120000D01*
X148486192Y-105119577D01*
X148595150Y-105105232D01*
X148607583Y-105101901D01*
X148741505Y-105046428D01*
X148752649Y-105039994D01*
X148867647Y-104951754D01*
X148876754Y-104942647D01*
X148964994Y-104827649D01*
X148971428Y-104816505D01*
X149026901Y-104682583D01*
X149030232Y-104670150D01*
X149044577Y-104561192D01*
X149045000Y-104554738D01*
X149045000Y-103685262D01*
X149044577Y-103678808D01*
X149030232Y-103569850D01*
X149026901Y-103557417D01*
X148971428Y-103423495D01*
X148964994Y-103412351D01*
X148876754Y-103297353D01*
X148867647Y-103288246D01*
X148752649Y-103200006D01*
X148741505Y-103193572D01*
X148607583Y-103138099D01*
X148595150Y-103134768D01*
X148486192Y-103120423D01*
X148479738Y-103120000D01*
X147560680Y-103120000D01*
X147547995Y-103124122D01*
X147545000Y-103128243D01*
X147342583Y-103128243D01*
X147340878Y-103122995D01*
X147336757Y-103120000D01*
X146410262Y-103120000D01*
X146403808Y-103120423D01*
X146294850Y-103134768D01*
X146282417Y-103138099D01*
X146148495Y-103193572D01*
X146137351Y-103200006D01*
X146022353Y-103288246D01*
X146013246Y-103297353D01*
X145925006Y-103412351D01*
X145918572Y-103423495D01*
X145863099Y-103557417D01*
X145859768Y-103569850D01*
X145845423Y-103678808D01*
X145845000Y-103685262D01*
X134932934Y-103685262D01*
X134864148Y-103555895D01*
X134733952Y-103396259D01*
X134717734Y-103382842D01*
X134578955Y-103268034D01*
X134578953Y-103268033D01*
X134575228Y-103264951D01*
X134455116Y-103200006D01*
X134398277Y-103169273D01*
X134398276Y-103169272D01*
X134394023Y-103166973D01*
X134300746Y-103138099D01*
X134201859Y-103107488D01*
X134201855Y-103107487D01*
X134197238Y-103106058D01*
X134192431Y-103105553D01*
X134192427Y-103105552D01*
X133997185Y-103085032D01*
X133997183Y-103085032D01*
X133992369Y-103084526D01*
X133924372Y-103090714D01*
X133792039Y-103102757D01*
X133792036Y-103102758D01*
X133787219Y-103103196D01*
X133782577Y-103104562D01*
X133782573Y-103104563D01*
X133594250Y-103159989D01*
X133594247Y-103159990D01*
X133589603Y-103161357D01*
X133585309Y-103163602D01*
X133411344Y-103254548D01*
X133411340Y-103254551D01*
X133407047Y-103256795D01*
X133403271Y-103259831D01*
X133403268Y-103259833D01*
X133356603Y-103297353D01*
X133246505Y-103385874D01*
X133173736Y-103472597D01*
X133117202Y-103539971D01*
X133117199Y-103539975D01*
X133114093Y-103543677D01*
X133014853Y-103724194D01*
X132952565Y-103920549D01*
X132952025Y-103925361D01*
X132952025Y-103925362D01*
X132942335Y-104011757D01*
X132929603Y-104125263D01*
X132499055Y-104125263D01*
X132487926Y-104011757D01*
X132480870Y-103939796D01*
X132480869Y-103939792D01*
X132480398Y-103934986D01*
X132477493Y-103925362D01*
X132422256Y-103742412D01*
X132420858Y-103737780D01*
X132324148Y-103555895D01*
X132193952Y-103396259D01*
X132177734Y-103382842D01*
X132038955Y-103268034D01*
X132038953Y-103268033D01*
X132035228Y-103264951D01*
X131915116Y-103200006D01*
X131858277Y-103169273D01*
X131858276Y-103169272D01*
X131854023Y-103166973D01*
X131760746Y-103138099D01*
X131661859Y-103107488D01*
X131661855Y-103107487D01*
X131657238Y-103106058D01*
X131652431Y-103105553D01*
X131652427Y-103105552D01*
X131457185Y-103085032D01*
X131457183Y-103085032D01*
X131452369Y-103084526D01*
X131384372Y-103090714D01*
X131252039Y-103102757D01*
X131252036Y-103102758D01*
X131247219Y-103103196D01*
X131242577Y-103104562D01*
X131242573Y-103104563D01*
X131054250Y-103159989D01*
X131054247Y-103159990D01*
X131049603Y-103161357D01*
X131045309Y-103163602D01*
X130871344Y-103254548D01*
X130871340Y-103254551D01*
X130867047Y-103256795D01*
X130863271Y-103259831D01*
X130863268Y-103259833D01*
X130816603Y-103297353D01*
X130706505Y-103385874D01*
X130633736Y-103472597D01*
X130577202Y-103539971D01*
X130577199Y-103539975D01*
X130574093Y-103543677D01*
X130474853Y-103724194D01*
X130412565Y-103920549D01*
X130412025Y-103925361D01*
X130412025Y-103925362D01*
X130402335Y-104011757D01*
X130389603Y-104125263D01*
X129200000Y-104125263D01*
X129200000Y-101709846D01*
X130400564Y-101709846D01*
X130406927Y-101785629D01*
X130408665Y-101795097D01*
X130462751Y-101983714D01*
X130466302Y-101992682D01*
X130555986Y-102167191D01*
X130561209Y-102175296D01*
X130683096Y-102329078D01*
X130689779Y-102335999D01*
X130839210Y-102463174D01*
X130847124Y-102468675D01*
X131018406Y-102564401D01*
X131027234Y-102568258D01*
X131213855Y-102628895D01*
X131223255Y-102630962D01*
X131329432Y-102643623D01*
X131342514Y-102641032D01*
X131343955Y-102639476D01*
X131345000Y-102634722D01*
X131345000Y-101715680D01*
X131342583Y-101708243D01*
X131545000Y-101708243D01*
X131545000Y-102629694D01*
X131549122Y-102642379D01*
X131551735Y-102644278D01*
X131554679Y-102644629D01*
X131623371Y-102639344D01*
X131632862Y-102637670D01*
X131821853Y-102584903D01*
X131830832Y-102581421D01*
X132005976Y-102492949D01*
X132014114Y-102487784D01*
X132168734Y-102366982D01*
X132175710Y-102360340D01*
X132303923Y-102211802D01*
X132309482Y-102203922D01*
X132406397Y-102033320D01*
X132410318Y-102024513D01*
X132472255Y-101838328D01*
X132474390Y-101828927D01*
X132488712Y-101715556D01*
X132486212Y-101702454D01*
X132484802Y-101701130D01*
X132479747Y-101700000D01*
X131560680Y-101700000D01*
X131547995Y-101704122D01*
X131545000Y-101708243D01*
X131342583Y-101708243D01*
X131340878Y-101702995D01*
X131336757Y-101700000D01*
X130415417Y-101700000D01*
X130402732Y-101704122D01*
X130400941Y-101706586D01*
X130400564Y-101709846D01*
X129200000Y-101709846D01*
X129200000Y-101585263D01*
X132929603Y-101585263D01*
X132937092Y-101674445D01*
X132946428Y-101785629D01*
X132946840Y-101790538D01*
X133003621Y-101988555D01*
X133097782Y-102171773D01*
X133225737Y-102333212D01*
X133229417Y-102336344D01*
X133229419Y-102336346D01*
X133265843Y-102367345D01*
X133382612Y-102466723D01*
X133386835Y-102469083D01*
X133386839Y-102469086D01*
X133454430Y-102506861D01*
X133562432Y-102567221D01*
X133567030Y-102568715D01*
X133753742Y-102629382D01*
X133753745Y-102629383D01*
X133758347Y-102630878D01*
X133962895Y-102655269D01*
X133967717Y-102654898D01*
X133967720Y-102654898D01*
X134163458Y-102639837D01*
X134163463Y-102639836D01*
X134168286Y-102639465D01*
X134366695Y-102584068D01*
X134371013Y-102581887D01*
X134546244Y-102493371D01*
X134546246Y-102493370D01*
X134550565Y-102491188D01*
X134712893Y-102364363D01*
X134716055Y-102360700D01*
X134716060Y-102360695D01*
X134844332Y-102212089D01*
X134847496Y-102208424D01*
X134866316Y-102175296D01*
X134946858Y-102033517D01*
X134946859Y-102033514D01*
X134949247Y-102029311D01*
X134950844Y-102024513D01*
X135012743Y-101838435D01*
X135012743Y-101838433D01*
X135014270Y-101833844D01*
X135019154Y-101795187D01*
X135039740Y-101632225D01*
X135040088Y-101629471D01*
X135040500Y-101600000D01*
X135038167Y-101576209D01*
X135037933Y-101573824D01*
X145839538Y-101573824D01*
X145840453Y-101580822D01*
X145840453Y-101580823D01*
X145843664Y-101605378D01*
X145844500Y-101618214D01*
X145844500Y-102017979D01*
X145860132Y-102136715D01*
X145920622Y-102282750D01*
X146016847Y-102408153D01*
X146142250Y-102504378D01*
X146288285Y-102564868D01*
X146407021Y-102580500D01*
X148482979Y-102580500D01*
X148601715Y-102564868D01*
X148747750Y-102504378D01*
X148873153Y-102408153D01*
X148969378Y-102282750D01*
X149029868Y-102136715D01*
X149045500Y-102017979D01*
X149045500Y-101142021D01*
X149029868Y-101023285D01*
X148969378Y-100877250D01*
X148873153Y-100751847D01*
X148747750Y-100655622D01*
X148601715Y-100595132D01*
X148482979Y-100579500D01*
X146407021Y-100579500D01*
X146288285Y-100595132D01*
X146142250Y-100655622D01*
X146016847Y-100751847D01*
X145920622Y-100877250D01*
X145860132Y-101023285D01*
X145844500Y-101142021D01*
X145844500Y-101534296D01*
X145843321Y-101549527D01*
X145839538Y-101573824D01*
X135037933Y-101573824D01*
X135020870Y-101399796D01*
X135020869Y-101399792D01*
X135020398Y-101394986D01*
X135017493Y-101385362D01*
X134962256Y-101202412D01*
X134960858Y-101197780D01*
X134864148Y-101015895D01*
X134733952Y-100856259D01*
X134730223Y-100853174D01*
X134578955Y-100728034D01*
X134578953Y-100728033D01*
X134575228Y-100724951D01*
X134442416Y-100653139D01*
X134398277Y-100629273D01*
X134398276Y-100629272D01*
X134394023Y-100626973D01*
X134299186Y-100597616D01*
X134201859Y-100567488D01*
X134201855Y-100567487D01*
X134197238Y-100566058D01*
X134192431Y-100565553D01*
X134192427Y-100565552D01*
X133997185Y-100545032D01*
X133997183Y-100545032D01*
X133992369Y-100544526D01*
X133924372Y-100550714D01*
X133792039Y-100562757D01*
X133792036Y-100562758D01*
X133787219Y-100563196D01*
X133782577Y-100564562D01*
X133782573Y-100564563D01*
X133594250Y-100619989D01*
X133594247Y-100619990D01*
X133589603Y-100621357D01*
X133585309Y-100623602D01*
X133411344Y-100714548D01*
X133411340Y-100714551D01*
X133407047Y-100716795D01*
X133403271Y-100719831D01*
X133403268Y-100719833D01*
X133363451Y-100751847D01*
X133246505Y-100845874D01*
X133173736Y-100932597D01*
X133117202Y-100999971D01*
X133117199Y-100999975D01*
X133114093Y-101003677D01*
X133014853Y-101184194D01*
X133013389Y-101188808D01*
X133013388Y-101188811D01*
X133010543Y-101197780D01*
X132952565Y-101380549D01*
X132952025Y-101385361D01*
X132952025Y-101385362D01*
X132930619Y-101576209D01*
X132929603Y-101585263D01*
X129200000Y-101585263D01*
X129200000Y-101484417D01*
X130401415Y-101484417D01*
X130404097Y-101497483D01*
X130405800Y-101499039D01*
X130410246Y-101500000D01*
X131329320Y-101500000D01*
X131342005Y-101495878D01*
X131345000Y-101491757D01*
X131345000Y-100570477D01*
X131343275Y-100565169D01*
X131545000Y-100565169D01*
X131545000Y-101484320D01*
X131549122Y-101497005D01*
X131553243Y-101500000D01*
X132474515Y-101500000D01*
X132487200Y-101495878D01*
X132488774Y-101493712D01*
X132489197Y-101489820D01*
X132480380Y-101399893D01*
X132478511Y-101390455D01*
X132421795Y-101202603D01*
X132418124Y-101193699D01*
X132326004Y-101020445D01*
X132320671Y-101012419D01*
X132196657Y-100860363D01*
X132189868Y-100853526D01*
X132038676Y-100728448D01*
X132030693Y-100723064D01*
X131858083Y-100629734D01*
X131849212Y-100626005D01*
X131661758Y-100567978D01*
X131652326Y-100566042D01*
X131560593Y-100556401D01*
X131547548Y-100559174D01*
X131545881Y-100561025D01*
X131545000Y-100565169D01*
X131343275Y-100565169D01*
X131340878Y-100557792D01*
X131338563Y-100556109D01*
X131334987Y-100555708D01*
X131252132Y-100563248D01*
X131242669Y-100565054D01*
X131054429Y-100620456D01*
X131045505Y-100624061D01*
X130871611Y-100714971D01*
X130863547Y-100720248D01*
X130710627Y-100843198D01*
X130703743Y-100849939D01*
X130577622Y-101000245D01*
X130572169Y-101008209D01*
X130477647Y-101180145D01*
X130473847Y-101189008D01*
X130414518Y-101376038D01*
X130412514Y-101385466D01*
X130401415Y-101484417D01*
X129200000Y-101484417D01*
X129200000Y-99045263D01*
X130389603Y-99045263D01*
X130406840Y-99250538D01*
X130408173Y-99255186D01*
X130408173Y-99255187D01*
X130455282Y-99419472D01*
X130463621Y-99448555D01*
X130557782Y-99631773D01*
X130685737Y-99793212D01*
X130842612Y-99926723D01*
X130846835Y-99929083D01*
X130846839Y-99929086D01*
X130914430Y-99966861D01*
X131022432Y-100027221D01*
X131027030Y-100028715D01*
X131213742Y-100089382D01*
X131213745Y-100089383D01*
X131218347Y-100090878D01*
X131422895Y-100115269D01*
X131427717Y-100114898D01*
X131427720Y-100114898D01*
X131623458Y-100099837D01*
X131623463Y-100099836D01*
X131628286Y-100099465D01*
X131826695Y-100044068D01*
X131831013Y-100041887D01*
X132006244Y-99953371D01*
X132006246Y-99953370D01*
X132010565Y-99951188D01*
X132172893Y-99824363D01*
X132176055Y-99820700D01*
X132176060Y-99820695D01*
X132304332Y-99672089D01*
X132307496Y-99668424D01*
X132330766Y-99627463D01*
X132406858Y-99493517D01*
X132406859Y-99493514D01*
X132409247Y-99489311D01*
X132424355Y-99443897D01*
X132472743Y-99298435D01*
X132472743Y-99298433D01*
X132474270Y-99293844D01*
X132479154Y-99255187D01*
X132499740Y-99092225D01*
X132500088Y-99089471D01*
X132500500Y-99060000D01*
X132499055Y-99045263D01*
X132929603Y-99045263D01*
X132946840Y-99250538D01*
X132948173Y-99255186D01*
X132948173Y-99255187D01*
X132995282Y-99419472D01*
X133003621Y-99448555D01*
X133097782Y-99631773D01*
X133225737Y-99793212D01*
X133382612Y-99926723D01*
X133386835Y-99929083D01*
X133386839Y-99929086D01*
X133454430Y-99966861D01*
X133562432Y-100027221D01*
X133567030Y-100028715D01*
X133753742Y-100089382D01*
X133753745Y-100089383D01*
X133758347Y-100090878D01*
X133962895Y-100115269D01*
X133967717Y-100114898D01*
X133967720Y-100114898D01*
X134163458Y-100099837D01*
X134163463Y-100099836D01*
X134168286Y-100099465D01*
X134366695Y-100044068D01*
X134371013Y-100041887D01*
X134546244Y-99953371D01*
X134546246Y-99953370D01*
X134550565Y-99951188D01*
X134712893Y-99824363D01*
X134716055Y-99820700D01*
X134716060Y-99820695D01*
X134844332Y-99672089D01*
X134847496Y-99668424D01*
X134870766Y-99627463D01*
X134946858Y-99493517D01*
X134946859Y-99493514D01*
X134949247Y-99489311D01*
X134964355Y-99443897D01*
X135012743Y-99298435D01*
X135012743Y-99298433D01*
X135014270Y-99293844D01*
X135019154Y-99255187D01*
X135039740Y-99092225D01*
X135040088Y-99089471D01*
X135040500Y-99060000D01*
X135038167Y-99036209D01*
X135037933Y-99033824D01*
X145839538Y-99033824D01*
X145840453Y-99040822D01*
X145840453Y-99040823D01*
X145843664Y-99065378D01*
X145844500Y-99078214D01*
X145844500Y-99477979D01*
X145860132Y-99596715D01*
X145920622Y-99742750D01*
X146016847Y-99868153D01*
X146142250Y-99964378D01*
X146288285Y-100024868D01*
X146407021Y-100040500D01*
X148482979Y-100040500D01*
X148601715Y-100024868D01*
X148747750Y-99964378D01*
X148873153Y-99868153D01*
X148969378Y-99742750D01*
X149029868Y-99596715D01*
X149045500Y-99477979D01*
X149045500Y-98602021D01*
X149029868Y-98483285D01*
X148969378Y-98337250D01*
X148873153Y-98211847D01*
X148747750Y-98115622D01*
X148601715Y-98055132D01*
X148482979Y-98039500D01*
X146407021Y-98039500D01*
X146288285Y-98055132D01*
X146142250Y-98115622D01*
X146016847Y-98211847D01*
X145920622Y-98337250D01*
X145860132Y-98483285D01*
X145844500Y-98602021D01*
X145844500Y-98994296D01*
X145843321Y-99009527D01*
X145839538Y-99033824D01*
X135037933Y-99033824D01*
X135020870Y-98859796D01*
X135020869Y-98859792D01*
X135020398Y-98854986D01*
X135017493Y-98845362D01*
X134962256Y-98662412D01*
X134960858Y-98657780D01*
X134864148Y-98475895D01*
X134733952Y-98316259D01*
X134575228Y-98184951D01*
X134394023Y-98086973D01*
X134299186Y-98057616D01*
X134201859Y-98027488D01*
X134201855Y-98027487D01*
X134197238Y-98026058D01*
X134192431Y-98025553D01*
X134192427Y-98025552D01*
X133997185Y-98005032D01*
X133997183Y-98005032D01*
X133992369Y-98004526D01*
X133924372Y-98010714D01*
X133792039Y-98022757D01*
X133792036Y-98022758D01*
X133787219Y-98023196D01*
X133782577Y-98024562D01*
X133782573Y-98024563D01*
X133594250Y-98079989D01*
X133594247Y-98079990D01*
X133589603Y-98081357D01*
X133585309Y-98083602D01*
X133411344Y-98174548D01*
X133411340Y-98174551D01*
X133407047Y-98176795D01*
X133403271Y-98179831D01*
X133403268Y-98179833D01*
X133363451Y-98211847D01*
X133246505Y-98305874D01*
X133173736Y-98392597D01*
X133117202Y-98459971D01*
X133117199Y-98459975D01*
X133114093Y-98463677D01*
X133014853Y-98644194D01*
X132952565Y-98840549D01*
X132952025Y-98845361D01*
X132952025Y-98845362D01*
X132930619Y-99036209D01*
X132929603Y-99045263D01*
X132499055Y-99045263D01*
X132498167Y-99036209D01*
X132480870Y-98859796D01*
X132480869Y-98859792D01*
X132480398Y-98854986D01*
X132477493Y-98845362D01*
X132422256Y-98662412D01*
X132420858Y-98657780D01*
X132324148Y-98475895D01*
X132193952Y-98316259D01*
X132035228Y-98184951D01*
X131854023Y-98086973D01*
X131759186Y-98057616D01*
X131661859Y-98027488D01*
X131661855Y-98027487D01*
X131657238Y-98026058D01*
X131652431Y-98025553D01*
X131652427Y-98025552D01*
X131457185Y-98005032D01*
X131457183Y-98005032D01*
X131452369Y-98004526D01*
X131384372Y-98010714D01*
X131252039Y-98022757D01*
X131252036Y-98022758D01*
X131247219Y-98023196D01*
X131242577Y-98024562D01*
X131242573Y-98024563D01*
X131054250Y-98079989D01*
X131054247Y-98079990D01*
X131049603Y-98081357D01*
X131045309Y-98083602D01*
X130871344Y-98174548D01*
X130871340Y-98174551D01*
X130867047Y-98176795D01*
X130863271Y-98179831D01*
X130863268Y-98179833D01*
X130823451Y-98211847D01*
X130706505Y-98305874D01*
X130633736Y-98392597D01*
X130577202Y-98459971D01*
X130577199Y-98459975D01*
X130574093Y-98463677D01*
X130474853Y-98644194D01*
X130412565Y-98840549D01*
X130412025Y-98845361D01*
X130412025Y-98845362D01*
X130390619Y-99036209D01*
X130389603Y-99045263D01*
X129200000Y-99045263D01*
X129200000Y-96505263D01*
X130389603Y-96505263D01*
X130406840Y-96710538D01*
X130463621Y-96908555D01*
X130557782Y-97091773D01*
X130685737Y-97253212D01*
X130842612Y-97386723D01*
X130846835Y-97389083D01*
X130846839Y-97389086D01*
X130914430Y-97426861D01*
X131022432Y-97487221D01*
X131027030Y-97488715D01*
X131213742Y-97549382D01*
X131213745Y-97549383D01*
X131218347Y-97550878D01*
X131422895Y-97575269D01*
X131427717Y-97574898D01*
X131427720Y-97574898D01*
X131623458Y-97559837D01*
X131623463Y-97559836D01*
X131628286Y-97559465D01*
X131826695Y-97504068D01*
X131831013Y-97501887D01*
X132006244Y-97413371D01*
X132006246Y-97413370D01*
X132010565Y-97411188D01*
X132172893Y-97284363D01*
X132176055Y-97280700D01*
X132176060Y-97280695D01*
X132304332Y-97132089D01*
X132307496Y-97128424D01*
X132330766Y-97087463D01*
X132406858Y-96953517D01*
X132406859Y-96953514D01*
X132409247Y-96949311D01*
X132424355Y-96903897D01*
X132472743Y-96758435D01*
X132472743Y-96758433D01*
X132474270Y-96753844D01*
X132479154Y-96715187D01*
X132499740Y-96552225D01*
X132500088Y-96549471D01*
X132500500Y-96520000D01*
X132499055Y-96505263D01*
X132929603Y-96505263D01*
X132946840Y-96710538D01*
X133003621Y-96908555D01*
X133097782Y-97091773D01*
X133225737Y-97253212D01*
X133382612Y-97386723D01*
X133386835Y-97389083D01*
X133386839Y-97389086D01*
X133454430Y-97426861D01*
X133562432Y-97487221D01*
X133567030Y-97488715D01*
X133753742Y-97549382D01*
X133753745Y-97549383D01*
X133758347Y-97550878D01*
X133962895Y-97575269D01*
X133967717Y-97574898D01*
X133967720Y-97574898D01*
X134163458Y-97559837D01*
X134163463Y-97559836D01*
X134168286Y-97559465D01*
X134366695Y-97504068D01*
X134371013Y-97501887D01*
X134546244Y-97413371D01*
X134546246Y-97413370D01*
X134550565Y-97411188D01*
X134712893Y-97284363D01*
X134716055Y-97280700D01*
X134716060Y-97280695D01*
X134844332Y-97132089D01*
X134847496Y-97128424D01*
X134870766Y-97087463D01*
X134946858Y-96953517D01*
X134946859Y-96953514D01*
X134949247Y-96949311D01*
X134964355Y-96903897D01*
X135012743Y-96758435D01*
X135012743Y-96758433D01*
X135014270Y-96753844D01*
X135019154Y-96715187D01*
X135039740Y-96552225D01*
X135040088Y-96549471D01*
X135040500Y-96520000D01*
X135038167Y-96496209D01*
X135037933Y-96493824D01*
X145839538Y-96493824D01*
X145840453Y-96500822D01*
X145840453Y-96500823D01*
X145843664Y-96525378D01*
X145844500Y-96538214D01*
X145844500Y-96937979D01*
X145860132Y-97056715D01*
X145920622Y-97202750D01*
X146016847Y-97328153D01*
X146142250Y-97424378D01*
X146288285Y-97484868D01*
X146407021Y-97500500D01*
X148482979Y-97500500D01*
X148601715Y-97484868D01*
X148747750Y-97424378D01*
X148873153Y-97328153D01*
X148969378Y-97202750D01*
X149029868Y-97056715D01*
X149045500Y-96937979D01*
X149045500Y-96062021D01*
X149029868Y-95943285D01*
X148969378Y-95797250D01*
X148873153Y-95671847D01*
X148747750Y-95575622D01*
X148601715Y-95515132D01*
X148482979Y-95499500D01*
X146407021Y-95499500D01*
X146288285Y-95515132D01*
X146142250Y-95575622D01*
X146016847Y-95671847D01*
X145920622Y-95797250D01*
X145860132Y-95943285D01*
X145844500Y-96062021D01*
X145844500Y-96454296D01*
X145843321Y-96469527D01*
X145839538Y-96493824D01*
X135037933Y-96493824D01*
X135020870Y-96319796D01*
X135020869Y-96319792D01*
X135020398Y-96314986D01*
X135017493Y-96305362D01*
X134962256Y-96122412D01*
X134960858Y-96117780D01*
X134864148Y-95935895D01*
X134733952Y-95776259D01*
X134575228Y-95644951D01*
X134394023Y-95546973D01*
X134299186Y-95517616D01*
X134201859Y-95487488D01*
X134201855Y-95487487D01*
X134197238Y-95486058D01*
X134192431Y-95485553D01*
X134192427Y-95485552D01*
X133997185Y-95465032D01*
X133997183Y-95465032D01*
X133992369Y-95464526D01*
X133924372Y-95470714D01*
X133792039Y-95482757D01*
X133792036Y-95482758D01*
X133787219Y-95483196D01*
X133782577Y-95484562D01*
X133782573Y-95484563D01*
X133594250Y-95539989D01*
X133594247Y-95539990D01*
X133589603Y-95541357D01*
X133585309Y-95543602D01*
X133411344Y-95634548D01*
X133411340Y-95634551D01*
X133407047Y-95636795D01*
X133403271Y-95639831D01*
X133403268Y-95639833D01*
X133363451Y-95671847D01*
X133246505Y-95765874D01*
X133173736Y-95852597D01*
X133117202Y-95919971D01*
X133117199Y-95919975D01*
X133114093Y-95923677D01*
X133014853Y-96104194D01*
X132952565Y-96300549D01*
X132952025Y-96305361D01*
X132952025Y-96305362D01*
X132930619Y-96496209D01*
X132929603Y-96505263D01*
X132499055Y-96505263D01*
X132498167Y-96496209D01*
X132480870Y-96319796D01*
X132480869Y-96319792D01*
X132480398Y-96314986D01*
X132477493Y-96305362D01*
X132422256Y-96122412D01*
X132420858Y-96117780D01*
X132324148Y-95935895D01*
X132193952Y-95776259D01*
X132035228Y-95644951D01*
X131854023Y-95546973D01*
X131759186Y-95517616D01*
X131661859Y-95487488D01*
X131661855Y-95487487D01*
X131657238Y-95486058D01*
X131652431Y-95485553D01*
X131652427Y-95485552D01*
X131457185Y-95465032D01*
X131457183Y-95465032D01*
X131452369Y-95464526D01*
X131384372Y-95470714D01*
X131252039Y-95482757D01*
X131252036Y-95482758D01*
X131247219Y-95483196D01*
X131242577Y-95484562D01*
X131242573Y-95484563D01*
X131054250Y-95539989D01*
X131054247Y-95539990D01*
X131049603Y-95541357D01*
X131045309Y-95543602D01*
X130871344Y-95634548D01*
X130871340Y-95634551D01*
X130867047Y-95636795D01*
X130863271Y-95639831D01*
X130863268Y-95639833D01*
X130823451Y-95671847D01*
X130706505Y-95765874D01*
X130633736Y-95852597D01*
X130577202Y-95919971D01*
X130577199Y-95919975D01*
X130574093Y-95923677D01*
X130474853Y-96104194D01*
X130412565Y-96300549D01*
X130412025Y-96305361D01*
X130412025Y-96305362D01*
X130390619Y-96496209D01*
X130389603Y-96505263D01*
X129200000Y-96505263D01*
X129200000Y-93965263D01*
X130389603Y-93965263D01*
X130406840Y-94170538D01*
X130463621Y-94368555D01*
X130557782Y-94551773D01*
X130685737Y-94713212D01*
X130842612Y-94846723D01*
X130846835Y-94849083D01*
X130846839Y-94849086D01*
X130914430Y-94886861D01*
X131022432Y-94947221D01*
X131027030Y-94948715D01*
X131213742Y-95009382D01*
X131213745Y-95009383D01*
X131218347Y-95010878D01*
X131422895Y-95035269D01*
X131427717Y-95034898D01*
X131427720Y-95034898D01*
X131623458Y-95019837D01*
X131623463Y-95019836D01*
X131628286Y-95019465D01*
X131826695Y-94964068D01*
X131831013Y-94961887D01*
X132006244Y-94873371D01*
X132006246Y-94873370D01*
X132010565Y-94871188D01*
X132172893Y-94744363D01*
X132176055Y-94740700D01*
X132176060Y-94740695D01*
X132304332Y-94592089D01*
X132307496Y-94588424D01*
X132330766Y-94547463D01*
X132406858Y-94413517D01*
X132406859Y-94413514D01*
X132409247Y-94409311D01*
X132424355Y-94363897D01*
X132472743Y-94218435D01*
X132472743Y-94218433D01*
X132474270Y-94213844D01*
X132479154Y-94175187D01*
X132499740Y-94012225D01*
X132500088Y-94009471D01*
X132500500Y-93980000D01*
X132499055Y-93965263D01*
X132929603Y-93965263D01*
X132946840Y-94170538D01*
X133003621Y-94368555D01*
X133097782Y-94551773D01*
X133225737Y-94713212D01*
X133382612Y-94846723D01*
X133386835Y-94849083D01*
X133386839Y-94849086D01*
X133454430Y-94886861D01*
X133562432Y-94947221D01*
X133567030Y-94948715D01*
X133753742Y-95009382D01*
X133753745Y-95009383D01*
X133758347Y-95010878D01*
X133962895Y-95035269D01*
X133967717Y-95034898D01*
X133967720Y-95034898D01*
X134163458Y-95019837D01*
X134163463Y-95019836D01*
X134168286Y-95019465D01*
X134366695Y-94964068D01*
X134371013Y-94961887D01*
X134546244Y-94873371D01*
X134546246Y-94873370D01*
X134550565Y-94871188D01*
X134712893Y-94744363D01*
X134716055Y-94740700D01*
X134716060Y-94740695D01*
X134844332Y-94592089D01*
X134847496Y-94588424D01*
X134870766Y-94547463D01*
X134946858Y-94413517D01*
X134946859Y-94413514D01*
X134949247Y-94409311D01*
X134964355Y-94363897D01*
X135012743Y-94218435D01*
X135012743Y-94218433D01*
X135014270Y-94213844D01*
X135019154Y-94175187D01*
X135039740Y-94012225D01*
X135040088Y-94009471D01*
X135040500Y-93980000D01*
X135038167Y-93956209D01*
X135037933Y-93953824D01*
X145839538Y-93953824D01*
X145840453Y-93960822D01*
X145840453Y-93960823D01*
X145843664Y-93985378D01*
X145844500Y-93998214D01*
X145844500Y-94397979D01*
X145860132Y-94516715D01*
X145920622Y-94662750D01*
X146016847Y-94788153D01*
X146142250Y-94884378D01*
X146288285Y-94944868D01*
X146407021Y-94960500D01*
X148482979Y-94960500D01*
X148601715Y-94944868D01*
X148747750Y-94884378D01*
X148873153Y-94788153D01*
X148969378Y-94662750D01*
X149029868Y-94516715D01*
X149045500Y-94397979D01*
X149045500Y-93522021D01*
X149029868Y-93403285D01*
X148969378Y-93257250D01*
X148873153Y-93131847D01*
X148747750Y-93035622D01*
X148601715Y-92975132D01*
X148482979Y-92959500D01*
X146407021Y-92959500D01*
X146288285Y-92975132D01*
X146142250Y-93035622D01*
X146016847Y-93131847D01*
X145920622Y-93257250D01*
X145860132Y-93403285D01*
X145844500Y-93522021D01*
X145844500Y-93914296D01*
X145843321Y-93929527D01*
X145839538Y-93953824D01*
X135037933Y-93953824D01*
X135020870Y-93779796D01*
X135020869Y-93779792D01*
X135020398Y-93774986D01*
X135017493Y-93765362D01*
X134962256Y-93582412D01*
X134960858Y-93577780D01*
X134864148Y-93395895D01*
X134733952Y-93236259D01*
X134575228Y-93104951D01*
X134394023Y-93006973D01*
X134299186Y-92977616D01*
X134201859Y-92947488D01*
X134201855Y-92947487D01*
X134197238Y-92946058D01*
X134192431Y-92945553D01*
X134192427Y-92945552D01*
X133997185Y-92925032D01*
X133997183Y-92925032D01*
X133992369Y-92924526D01*
X133924372Y-92930714D01*
X133792039Y-92942757D01*
X133792036Y-92942758D01*
X133787219Y-92943196D01*
X133782577Y-92944562D01*
X133782573Y-92944563D01*
X133594250Y-92999989D01*
X133594247Y-92999990D01*
X133589603Y-93001357D01*
X133585309Y-93003602D01*
X133411344Y-93094548D01*
X133411340Y-93094551D01*
X133407047Y-93096795D01*
X133403271Y-93099831D01*
X133403268Y-93099833D01*
X133363451Y-93131847D01*
X133246505Y-93225874D01*
X133173736Y-93312597D01*
X133117202Y-93379971D01*
X133117199Y-93379975D01*
X133114093Y-93383677D01*
X133014853Y-93564194D01*
X132952565Y-93760549D01*
X132952025Y-93765361D01*
X132952025Y-93765362D01*
X132930619Y-93956209D01*
X132929603Y-93965263D01*
X132499055Y-93965263D01*
X132498167Y-93956209D01*
X132480870Y-93779796D01*
X132480869Y-93779792D01*
X132480398Y-93774986D01*
X132477493Y-93765362D01*
X132422256Y-93582412D01*
X132420858Y-93577780D01*
X132324148Y-93395895D01*
X132193952Y-93236259D01*
X132035228Y-93104951D01*
X131854023Y-93006973D01*
X131759186Y-92977616D01*
X131661859Y-92947488D01*
X131661855Y-92947487D01*
X131657238Y-92946058D01*
X131652431Y-92945553D01*
X131652427Y-92945552D01*
X131457185Y-92925032D01*
X131457183Y-92925032D01*
X131452369Y-92924526D01*
X131384372Y-92930714D01*
X131252039Y-92942757D01*
X131252036Y-92942758D01*
X131247219Y-92943196D01*
X131242577Y-92944562D01*
X131242573Y-92944563D01*
X131054250Y-92999989D01*
X131054247Y-92999990D01*
X131049603Y-93001357D01*
X131045309Y-93003602D01*
X130871344Y-93094548D01*
X130871340Y-93094551D01*
X130867047Y-93096795D01*
X130863271Y-93099831D01*
X130863268Y-93099833D01*
X130823451Y-93131847D01*
X130706505Y-93225874D01*
X130633736Y-93312597D01*
X130577202Y-93379971D01*
X130577199Y-93379975D01*
X130574093Y-93383677D01*
X130474853Y-93564194D01*
X130412565Y-93760549D01*
X130412025Y-93765361D01*
X130412025Y-93765362D01*
X130390619Y-93956209D01*
X130389603Y-93965263D01*
X129200000Y-93965263D01*
X129200000Y-91425263D01*
X130389603Y-91425263D01*
X130406840Y-91630538D01*
X130463621Y-91828555D01*
X130557782Y-92011773D01*
X130685737Y-92173212D01*
X130842612Y-92306723D01*
X130846835Y-92309083D01*
X130846839Y-92309086D01*
X130914430Y-92346861D01*
X131022432Y-92407221D01*
X131027030Y-92408715D01*
X131213742Y-92469382D01*
X131213745Y-92469383D01*
X131218347Y-92470878D01*
X131422895Y-92495269D01*
X131427717Y-92494898D01*
X131427720Y-92494898D01*
X131623458Y-92479837D01*
X131623463Y-92479836D01*
X131628286Y-92479465D01*
X131826695Y-92424068D01*
X131831013Y-92421887D01*
X132006244Y-92333371D01*
X132006246Y-92333370D01*
X132010565Y-92331188D01*
X132172893Y-92204363D01*
X132176055Y-92200700D01*
X132176060Y-92200695D01*
X132304332Y-92052089D01*
X132307496Y-92048424D01*
X132330766Y-92007463D01*
X132406858Y-91873517D01*
X132406859Y-91873514D01*
X132409247Y-91869311D01*
X132424355Y-91823897D01*
X132472743Y-91678435D01*
X132472743Y-91678433D01*
X132474270Y-91673844D01*
X132479154Y-91635187D01*
X132499740Y-91472225D01*
X132500088Y-91469471D01*
X132500500Y-91440000D01*
X132499055Y-91425263D01*
X132929603Y-91425263D01*
X132946840Y-91630538D01*
X133003621Y-91828555D01*
X133097782Y-92011773D01*
X133225737Y-92173212D01*
X133382612Y-92306723D01*
X133386835Y-92309083D01*
X133386839Y-92309086D01*
X133454430Y-92346861D01*
X133562432Y-92407221D01*
X133567030Y-92408715D01*
X133753742Y-92469382D01*
X133753745Y-92469383D01*
X133758347Y-92470878D01*
X133962895Y-92495269D01*
X133967717Y-92494898D01*
X133967720Y-92494898D01*
X134163458Y-92479837D01*
X134163463Y-92479836D01*
X134168286Y-92479465D01*
X134366695Y-92424068D01*
X134371013Y-92421887D01*
X134546244Y-92333371D01*
X134546246Y-92333370D01*
X134550565Y-92331188D01*
X134712893Y-92204363D01*
X134716055Y-92200700D01*
X134716060Y-92200695D01*
X134844332Y-92052089D01*
X134847496Y-92048424D01*
X134870766Y-92007463D01*
X134946858Y-91873517D01*
X134946859Y-91873514D01*
X134949247Y-91869311D01*
X134964355Y-91823897D01*
X135012743Y-91678435D01*
X135012743Y-91678433D01*
X135014270Y-91673844D01*
X135019154Y-91635187D01*
X135039740Y-91472225D01*
X135040088Y-91469471D01*
X135040500Y-91440000D01*
X135038584Y-91420455D01*
X135037934Y-91413824D01*
X145839538Y-91413824D01*
X145840453Y-91420822D01*
X145840453Y-91420823D01*
X145843664Y-91445378D01*
X145844500Y-91458214D01*
X145844500Y-91857979D01*
X145860132Y-91976715D01*
X145920622Y-92122750D01*
X146016847Y-92248153D01*
X146142250Y-92344378D01*
X146288285Y-92404868D01*
X146407021Y-92420500D01*
X148482979Y-92420500D01*
X148601715Y-92404868D01*
X148747750Y-92344378D01*
X148873153Y-92248153D01*
X148969378Y-92122750D01*
X149029868Y-91976715D01*
X149045500Y-91857979D01*
X149045500Y-90982021D01*
X149029868Y-90863285D01*
X148969378Y-90717250D01*
X148873153Y-90591847D01*
X148747750Y-90495622D01*
X148601715Y-90435132D01*
X148482979Y-90419500D01*
X146407021Y-90419500D01*
X146288285Y-90435132D01*
X146142250Y-90495622D01*
X146016847Y-90591847D01*
X145920622Y-90717250D01*
X145860132Y-90863285D01*
X145844500Y-90982021D01*
X145844500Y-91374296D01*
X145843321Y-91389527D01*
X145839538Y-91413824D01*
X135037934Y-91413824D01*
X135020870Y-91239796D01*
X135020869Y-91239792D01*
X135020398Y-91234986D01*
X135017493Y-91225362D01*
X134998394Y-91162106D01*
X134960858Y-91037780D01*
X134864148Y-90855895D01*
X134733952Y-90696259D01*
X134717734Y-90682842D01*
X134578955Y-90568034D01*
X134578953Y-90568033D01*
X134575228Y-90564951D01*
X134447008Y-90495622D01*
X134398277Y-90469273D01*
X134398276Y-90469272D01*
X134394023Y-90466973D01*
X134299186Y-90437616D01*
X134201859Y-90407488D01*
X134201855Y-90407487D01*
X134197238Y-90406058D01*
X134192431Y-90405553D01*
X134192427Y-90405552D01*
X133997185Y-90385032D01*
X133997183Y-90385032D01*
X133992369Y-90384526D01*
X133924372Y-90390714D01*
X133792039Y-90402757D01*
X133792036Y-90402758D01*
X133787219Y-90403196D01*
X133782577Y-90404562D01*
X133782573Y-90404563D01*
X133594250Y-90459989D01*
X133594247Y-90459990D01*
X133589603Y-90461357D01*
X133585309Y-90463602D01*
X133411344Y-90554548D01*
X133411340Y-90554551D01*
X133407047Y-90556795D01*
X133403271Y-90559831D01*
X133403268Y-90559833D01*
X133363451Y-90591847D01*
X133246505Y-90685874D01*
X133173736Y-90772597D01*
X133117202Y-90839971D01*
X133117199Y-90839975D01*
X133114093Y-90843677D01*
X133014853Y-91024194D01*
X133013389Y-91028808D01*
X133013388Y-91028811D01*
X132984498Y-91119884D01*
X132952565Y-91220549D01*
X132952025Y-91225361D01*
X132952025Y-91225362D01*
X132934461Y-91381955D01*
X132929603Y-91425263D01*
X132499055Y-91425263D01*
X132498584Y-91420455D01*
X132480870Y-91239796D01*
X132480869Y-91239792D01*
X132480398Y-91234986D01*
X132477493Y-91225362D01*
X132458394Y-91162106D01*
X132420858Y-91037780D01*
X132324148Y-90855895D01*
X132193952Y-90696259D01*
X132177734Y-90682842D01*
X132038955Y-90568034D01*
X132038953Y-90568033D01*
X132035228Y-90564951D01*
X131907008Y-90495622D01*
X131858277Y-90469273D01*
X131858276Y-90469272D01*
X131854023Y-90466973D01*
X131759186Y-90437616D01*
X131661859Y-90407488D01*
X131661855Y-90407487D01*
X131657238Y-90406058D01*
X131652431Y-90405553D01*
X131652427Y-90405552D01*
X131457185Y-90385032D01*
X131457183Y-90385032D01*
X131452369Y-90384526D01*
X131384372Y-90390714D01*
X131252039Y-90402757D01*
X131252036Y-90402758D01*
X131247219Y-90403196D01*
X131242577Y-90404562D01*
X131242573Y-90404563D01*
X131054250Y-90459989D01*
X131054247Y-90459990D01*
X131049603Y-90461357D01*
X131045309Y-90463602D01*
X130871344Y-90554548D01*
X130871340Y-90554551D01*
X130867047Y-90556795D01*
X130863271Y-90559831D01*
X130863268Y-90559833D01*
X130823451Y-90591847D01*
X130706505Y-90685874D01*
X130633736Y-90772597D01*
X130577202Y-90839971D01*
X130577199Y-90839975D01*
X130574093Y-90843677D01*
X130474853Y-91024194D01*
X130473389Y-91028808D01*
X130473388Y-91028811D01*
X130444498Y-91119884D01*
X130412565Y-91220549D01*
X130412025Y-91225361D01*
X130412025Y-91225362D01*
X130394461Y-91381955D01*
X130389603Y-91425263D01*
X129200000Y-91425263D01*
X129200000Y-88885263D01*
X130389603Y-88885263D01*
X130406840Y-89090538D01*
X130463621Y-89288555D01*
X130557782Y-89471773D01*
X130685737Y-89633212D01*
X130842612Y-89766723D01*
X130846835Y-89769083D01*
X130846839Y-89769086D01*
X130914430Y-89806861D01*
X131022432Y-89867221D01*
X131027030Y-89868715D01*
X131213742Y-89929382D01*
X131213745Y-89929383D01*
X131218347Y-89930878D01*
X131422895Y-89955269D01*
X131427717Y-89954898D01*
X131427720Y-89954898D01*
X131623458Y-89939837D01*
X131623463Y-89939836D01*
X131628286Y-89939465D01*
X131826695Y-89884068D01*
X131831013Y-89881887D01*
X132006244Y-89793371D01*
X132006246Y-89793370D01*
X132010565Y-89791188D01*
X132172893Y-89664363D01*
X132176055Y-89660700D01*
X132176060Y-89660695D01*
X132304332Y-89512089D01*
X132307496Y-89508424D01*
X132330766Y-89467463D01*
X132406858Y-89333517D01*
X132406859Y-89333514D01*
X132409247Y-89329311D01*
X132424355Y-89283897D01*
X132472743Y-89138435D01*
X132472743Y-89138433D01*
X132474270Y-89133844D01*
X132479154Y-89095187D01*
X132499740Y-88932225D01*
X132500088Y-88929471D01*
X132500500Y-88900000D01*
X132499055Y-88885263D01*
X132929603Y-88885263D01*
X132946840Y-89090538D01*
X133003621Y-89288555D01*
X133097782Y-89471773D01*
X133225737Y-89633212D01*
X133382612Y-89766723D01*
X133386835Y-89769083D01*
X133386839Y-89769086D01*
X133454430Y-89806861D01*
X133562432Y-89867221D01*
X133567030Y-89868715D01*
X133753742Y-89929382D01*
X133753745Y-89929383D01*
X133758347Y-89930878D01*
X133962895Y-89955269D01*
X133967717Y-89954898D01*
X133967720Y-89954898D01*
X134163458Y-89939837D01*
X134163463Y-89939836D01*
X134168286Y-89939465D01*
X134366695Y-89884068D01*
X134371013Y-89881887D01*
X134546244Y-89793371D01*
X134546246Y-89793370D01*
X134550565Y-89791188D01*
X134712893Y-89664363D01*
X134716055Y-89660700D01*
X134716060Y-89660695D01*
X134844332Y-89512089D01*
X134847496Y-89508424D01*
X134870766Y-89467463D01*
X134946858Y-89333517D01*
X134946859Y-89333514D01*
X134949247Y-89329311D01*
X134964355Y-89283897D01*
X135012743Y-89138435D01*
X135012743Y-89138433D01*
X135014270Y-89133844D01*
X135019154Y-89095187D01*
X135039740Y-88932225D01*
X135040088Y-88929471D01*
X135040500Y-88900000D01*
X135038167Y-88876209D01*
X135037933Y-88873824D01*
X145839538Y-88873824D01*
X145840453Y-88880822D01*
X145840453Y-88880823D01*
X145843664Y-88905378D01*
X145844500Y-88918214D01*
X145844500Y-89317979D01*
X145860132Y-89436715D01*
X145920622Y-89582750D01*
X146016847Y-89708153D01*
X146142250Y-89804378D01*
X146288285Y-89864868D01*
X146407021Y-89880500D01*
X148482979Y-89880500D01*
X148601715Y-89864868D01*
X148747750Y-89804378D01*
X148873153Y-89708153D01*
X148969378Y-89582750D01*
X149029868Y-89436715D01*
X149045500Y-89317979D01*
X149045500Y-88442021D01*
X149029868Y-88323285D01*
X148969378Y-88177250D01*
X148873153Y-88051847D01*
X148747750Y-87955622D01*
X148601715Y-87895132D01*
X148482979Y-87879500D01*
X146407021Y-87879500D01*
X146288285Y-87895132D01*
X146142250Y-87955622D01*
X146016847Y-88051847D01*
X145920622Y-88177250D01*
X145860132Y-88323285D01*
X145844500Y-88442021D01*
X145844500Y-88834296D01*
X145843321Y-88849527D01*
X145839538Y-88873824D01*
X135037933Y-88873824D01*
X135020870Y-88699796D01*
X135020869Y-88699792D01*
X135020398Y-88694986D01*
X135017493Y-88685362D01*
X134962256Y-88502412D01*
X134960858Y-88497780D01*
X134864148Y-88315895D01*
X134733952Y-88156259D01*
X134575228Y-88024951D01*
X134394023Y-87926973D01*
X134299186Y-87897616D01*
X134201859Y-87867488D01*
X134201855Y-87867487D01*
X134197238Y-87866058D01*
X134192431Y-87865553D01*
X134192427Y-87865552D01*
X133997185Y-87845032D01*
X133997183Y-87845032D01*
X133992369Y-87844526D01*
X133924372Y-87850714D01*
X133792039Y-87862757D01*
X133792036Y-87862758D01*
X133787219Y-87863196D01*
X133782577Y-87864562D01*
X133782573Y-87864563D01*
X133594250Y-87919989D01*
X133594247Y-87919990D01*
X133589603Y-87921357D01*
X133585309Y-87923602D01*
X133411344Y-88014548D01*
X133411340Y-88014551D01*
X133407047Y-88016795D01*
X133403271Y-88019831D01*
X133403268Y-88019833D01*
X133363451Y-88051847D01*
X133246505Y-88145874D01*
X133173736Y-88232597D01*
X133117202Y-88299971D01*
X133117199Y-88299975D01*
X133114093Y-88303677D01*
X133014853Y-88484194D01*
X132952565Y-88680549D01*
X132952025Y-88685361D01*
X132952025Y-88685362D01*
X132930619Y-88876209D01*
X132929603Y-88885263D01*
X132499055Y-88885263D01*
X132498167Y-88876209D01*
X132480870Y-88699796D01*
X132480869Y-88699792D01*
X132480398Y-88694986D01*
X132477493Y-88685362D01*
X132422256Y-88502412D01*
X132420858Y-88497780D01*
X132324148Y-88315895D01*
X132193952Y-88156259D01*
X132035228Y-88024951D01*
X131854023Y-87926973D01*
X131759186Y-87897616D01*
X131661859Y-87867488D01*
X131661855Y-87867487D01*
X131657238Y-87866058D01*
X131652431Y-87865553D01*
X131652427Y-87865552D01*
X131457185Y-87845032D01*
X131457183Y-87845032D01*
X131452369Y-87844526D01*
X131384372Y-87850714D01*
X131252039Y-87862757D01*
X131252036Y-87862758D01*
X131247219Y-87863196D01*
X131242577Y-87864562D01*
X131242573Y-87864563D01*
X131054250Y-87919989D01*
X131054247Y-87919990D01*
X131049603Y-87921357D01*
X131045309Y-87923602D01*
X130871344Y-88014548D01*
X130871340Y-88014551D01*
X130867047Y-88016795D01*
X130863271Y-88019831D01*
X130863268Y-88019833D01*
X130823451Y-88051847D01*
X130706505Y-88145874D01*
X130633736Y-88232597D01*
X130577202Y-88299971D01*
X130577199Y-88299975D01*
X130574093Y-88303677D01*
X130474853Y-88484194D01*
X130412565Y-88680549D01*
X130412025Y-88685361D01*
X130412025Y-88685362D01*
X130390619Y-88876209D01*
X130389603Y-88885263D01*
X129200000Y-88885263D01*
X129200000Y-86345263D01*
X130389603Y-86345263D01*
X130406840Y-86550538D01*
X130463621Y-86748555D01*
X130557782Y-86931773D01*
X130685737Y-87093212D01*
X130842612Y-87226723D01*
X130846835Y-87229083D01*
X130846839Y-87229086D01*
X130914430Y-87266861D01*
X131022432Y-87327221D01*
X131027030Y-87328715D01*
X131213742Y-87389382D01*
X131213745Y-87389383D01*
X131218347Y-87390878D01*
X131422895Y-87415269D01*
X131427717Y-87414898D01*
X131427720Y-87414898D01*
X131623458Y-87399837D01*
X131623463Y-87399836D01*
X131628286Y-87399465D01*
X131826695Y-87344068D01*
X131831013Y-87341887D01*
X132006244Y-87253371D01*
X132006246Y-87253370D01*
X132010565Y-87251188D01*
X132172893Y-87124363D01*
X132176055Y-87120700D01*
X132176060Y-87120695D01*
X132260123Y-87023306D01*
X132307496Y-86968424D01*
X132330766Y-86927463D01*
X132406858Y-86793517D01*
X132406859Y-86793514D01*
X132409247Y-86789311D01*
X132424355Y-86743897D01*
X132472743Y-86598435D01*
X132472743Y-86598433D01*
X132474270Y-86593844D01*
X132479154Y-86555187D01*
X132499740Y-86392225D01*
X132500088Y-86389471D01*
X132500500Y-86360000D01*
X132499055Y-86345263D01*
X132929603Y-86345263D01*
X132946840Y-86550538D01*
X133003621Y-86748555D01*
X133097782Y-86931773D01*
X133225737Y-87093212D01*
X133382612Y-87226723D01*
X133386835Y-87229083D01*
X133386839Y-87229086D01*
X133454430Y-87266861D01*
X133562432Y-87327221D01*
X133567030Y-87328715D01*
X133753742Y-87389382D01*
X133753745Y-87389383D01*
X133758347Y-87390878D01*
X133962895Y-87415269D01*
X133967717Y-87414898D01*
X133967720Y-87414898D01*
X134163458Y-87399837D01*
X134163463Y-87399836D01*
X134168286Y-87399465D01*
X134366695Y-87344068D01*
X134371013Y-87341887D01*
X134546244Y-87253371D01*
X134546246Y-87253370D01*
X134550565Y-87251188D01*
X134712893Y-87124363D01*
X134716055Y-87120700D01*
X134716060Y-87120695D01*
X134800123Y-87023306D01*
X134847496Y-86968424D01*
X134870766Y-86927463D01*
X134946858Y-86793517D01*
X134946859Y-86793514D01*
X134949247Y-86789311D01*
X134964355Y-86743897D01*
X135012743Y-86598435D01*
X135012743Y-86598433D01*
X135014270Y-86593844D01*
X135019154Y-86555187D01*
X135039740Y-86392225D01*
X135040088Y-86389471D01*
X135040500Y-86360000D01*
X135038167Y-86336209D01*
X135037933Y-86333824D01*
X145839538Y-86333824D01*
X145840453Y-86340822D01*
X145840453Y-86340823D01*
X145843664Y-86365378D01*
X145844500Y-86378214D01*
X145844500Y-86777979D01*
X145860132Y-86896715D01*
X145920622Y-87042750D01*
X146016847Y-87168153D01*
X146142250Y-87264378D01*
X146288285Y-87324868D01*
X146407021Y-87340500D01*
X148482979Y-87340500D01*
X148601715Y-87324868D01*
X148747750Y-87264378D01*
X148873153Y-87168153D01*
X148969378Y-87042750D01*
X149029868Y-86896715D01*
X149045500Y-86777979D01*
X149045500Y-85902021D01*
X149029868Y-85783285D01*
X148969378Y-85637250D01*
X148873153Y-85511847D01*
X148747750Y-85415622D01*
X148601715Y-85355132D01*
X148482979Y-85339500D01*
X146407021Y-85339500D01*
X146288285Y-85355132D01*
X146142250Y-85415622D01*
X146016847Y-85511847D01*
X145920622Y-85637250D01*
X145860132Y-85783285D01*
X145844500Y-85902021D01*
X145844500Y-86294296D01*
X145843321Y-86309527D01*
X145839538Y-86333824D01*
X135037933Y-86333824D01*
X135020870Y-86159796D01*
X135020869Y-86159792D01*
X135020398Y-86154986D01*
X135017493Y-86145362D01*
X134962256Y-85962412D01*
X134960858Y-85957780D01*
X134864148Y-85775895D01*
X134733952Y-85616259D01*
X134575228Y-85484951D01*
X134394023Y-85386973D01*
X134299186Y-85357616D01*
X134201859Y-85327488D01*
X134201855Y-85327487D01*
X134197238Y-85326058D01*
X134192431Y-85325553D01*
X134192427Y-85325552D01*
X133997185Y-85305032D01*
X133997183Y-85305032D01*
X133992369Y-85304526D01*
X133924372Y-85310714D01*
X133792039Y-85322757D01*
X133792036Y-85322758D01*
X133787219Y-85323196D01*
X133782577Y-85324562D01*
X133782573Y-85324563D01*
X133594250Y-85379989D01*
X133594247Y-85379990D01*
X133589603Y-85381357D01*
X133585309Y-85383602D01*
X133411344Y-85474548D01*
X133411340Y-85474551D01*
X133407047Y-85476795D01*
X133403271Y-85479831D01*
X133403268Y-85479833D01*
X133363451Y-85511847D01*
X133246505Y-85605874D01*
X133173736Y-85692597D01*
X133117202Y-85759971D01*
X133117199Y-85759975D01*
X133114093Y-85763677D01*
X133014853Y-85944194D01*
X132952565Y-86140549D01*
X132952025Y-86145361D01*
X132952025Y-86145362D01*
X132930619Y-86336209D01*
X132929603Y-86345263D01*
X132499055Y-86345263D01*
X132498167Y-86336209D01*
X132480870Y-86159796D01*
X132480869Y-86159792D01*
X132480398Y-86154986D01*
X132477493Y-86145362D01*
X132422256Y-85962412D01*
X132420858Y-85957780D01*
X132324148Y-85775895D01*
X132193952Y-85616259D01*
X132035228Y-85484951D01*
X131854023Y-85386973D01*
X131759186Y-85357616D01*
X131661859Y-85327488D01*
X131661855Y-85327487D01*
X131657238Y-85326058D01*
X131652431Y-85325553D01*
X131652427Y-85325552D01*
X131457185Y-85305032D01*
X131457183Y-85305032D01*
X131452369Y-85304526D01*
X131384372Y-85310714D01*
X131252039Y-85322757D01*
X131252036Y-85322758D01*
X131247219Y-85323196D01*
X131242577Y-85324562D01*
X131242573Y-85324563D01*
X131054250Y-85379989D01*
X131054247Y-85379990D01*
X131049603Y-85381357D01*
X131045309Y-85383602D01*
X130871344Y-85474548D01*
X130871340Y-85474551D01*
X130867047Y-85476795D01*
X130863271Y-85479831D01*
X130863268Y-85479833D01*
X130823451Y-85511847D01*
X130706505Y-85605874D01*
X130633736Y-85692597D01*
X130577202Y-85759971D01*
X130577199Y-85759975D01*
X130574093Y-85763677D01*
X130474853Y-85944194D01*
X130412565Y-86140549D01*
X130412025Y-86145361D01*
X130412025Y-86145362D01*
X130390619Y-86336209D01*
X130389603Y-86345263D01*
X129200000Y-86345263D01*
X129200000Y-83929846D01*
X130400564Y-83929846D01*
X130406927Y-84005629D01*
X130408665Y-84015097D01*
X130462751Y-84203714D01*
X130466302Y-84212682D01*
X130555986Y-84387191D01*
X130561209Y-84395296D01*
X130683096Y-84549078D01*
X130689779Y-84555999D01*
X130839210Y-84683174D01*
X130847124Y-84688675D01*
X131018406Y-84784401D01*
X131027234Y-84788258D01*
X131213855Y-84848895D01*
X131223255Y-84850962D01*
X131329432Y-84863623D01*
X131342514Y-84861032D01*
X131343955Y-84859476D01*
X131345000Y-84854722D01*
X131345000Y-83935680D01*
X131342583Y-83928243D01*
X131545000Y-83928243D01*
X131545000Y-84849694D01*
X131549122Y-84862379D01*
X131551735Y-84864278D01*
X131554679Y-84864629D01*
X131623371Y-84859344D01*
X131632862Y-84857670D01*
X131821853Y-84804903D01*
X131830832Y-84801421D01*
X132005976Y-84712949D01*
X132014114Y-84707784D01*
X132168734Y-84586982D01*
X132175710Y-84580340D01*
X132303923Y-84431802D01*
X132309482Y-84423922D01*
X132406397Y-84253320D01*
X132410318Y-84244513D01*
X132472255Y-84058328D01*
X132474390Y-84048927D01*
X132488712Y-83935556D01*
X132486212Y-83922454D01*
X132484802Y-83921130D01*
X132479747Y-83920000D01*
X131560680Y-83920000D01*
X131547995Y-83924122D01*
X131545000Y-83928243D01*
X131342583Y-83928243D01*
X131340878Y-83922995D01*
X131336757Y-83920000D01*
X130415417Y-83920000D01*
X130402732Y-83924122D01*
X130400941Y-83926586D01*
X130400564Y-83929846D01*
X129200000Y-83929846D01*
X129200000Y-83805263D01*
X132929603Y-83805263D01*
X132937092Y-83894445D01*
X132946428Y-84005629D01*
X132946840Y-84010538D01*
X133003621Y-84208555D01*
X133097782Y-84391773D01*
X133225737Y-84553212D01*
X133229417Y-84556344D01*
X133229419Y-84556346D01*
X133265843Y-84587345D01*
X133382612Y-84686723D01*
X133386835Y-84689083D01*
X133386839Y-84689086D01*
X133454430Y-84726861D01*
X133562432Y-84787221D01*
X133567030Y-84788715D01*
X133753742Y-84849382D01*
X133753745Y-84849383D01*
X133758347Y-84850878D01*
X133962895Y-84875269D01*
X133967717Y-84874898D01*
X133967720Y-84874898D01*
X134163458Y-84859837D01*
X134163463Y-84859836D01*
X134168286Y-84859465D01*
X134366695Y-84804068D01*
X134371013Y-84801887D01*
X134546244Y-84713371D01*
X134546246Y-84713370D01*
X134550565Y-84711188D01*
X134712893Y-84584363D01*
X134716055Y-84580700D01*
X134716060Y-84580695D01*
X134844332Y-84432089D01*
X134847496Y-84428424D01*
X134866316Y-84395296D01*
X134946858Y-84253517D01*
X134946859Y-84253514D01*
X134949247Y-84249311D01*
X134950844Y-84244513D01*
X135012743Y-84058435D01*
X135012743Y-84058433D01*
X135014270Y-84053844D01*
X135019154Y-84015187D01*
X135039740Y-83852225D01*
X135040088Y-83849471D01*
X135040500Y-83820000D01*
X135038167Y-83796209D01*
X135037933Y-83793824D01*
X145839538Y-83793824D01*
X145840453Y-83800822D01*
X145840453Y-83800823D01*
X145843664Y-83825378D01*
X145844500Y-83838214D01*
X145844500Y-84237979D01*
X145860132Y-84356715D01*
X145920622Y-84502750D01*
X146016847Y-84628153D01*
X146142250Y-84724378D01*
X146288285Y-84784868D01*
X146407021Y-84800500D01*
X148482979Y-84800500D01*
X148601715Y-84784868D01*
X148747750Y-84724378D01*
X148873153Y-84628153D01*
X148969378Y-84502750D01*
X149029868Y-84356715D01*
X149045500Y-84237979D01*
X149045500Y-83362021D01*
X164644500Y-83362021D01*
X164644500Y-84237979D01*
X164660132Y-84356715D01*
X164720622Y-84502750D01*
X164816847Y-84628153D01*
X164942250Y-84724378D01*
X165088285Y-84784868D01*
X165207021Y-84800500D01*
X167282979Y-84800500D01*
X167401715Y-84784868D01*
X167547750Y-84724378D01*
X167673153Y-84628153D01*
X167769378Y-84502750D01*
X167829868Y-84356715D01*
X167845500Y-84237979D01*
X167845500Y-83849442D01*
X167846872Y-83833017D01*
X167849715Y-83816120D01*
X167849715Y-83816117D01*
X167850349Y-83812350D01*
X167850500Y-83800000D01*
X167846500Y-83772069D01*
X167845500Y-83758034D01*
X167845500Y-83362021D01*
X167829868Y-83243285D01*
X167769378Y-83097250D01*
X167673153Y-82971847D01*
X167547750Y-82875622D01*
X167401715Y-82815132D01*
X167282979Y-82799500D01*
X165207021Y-82799500D01*
X165088285Y-82815132D01*
X164942250Y-82875622D01*
X164816847Y-82971847D01*
X164720622Y-83097250D01*
X164660132Y-83243285D01*
X164644500Y-83362021D01*
X149045500Y-83362021D01*
X149029868Y-83243285D01*
X148969378Y-83097250D01*
X148873153Y-82971847D01*
X148747750Y-82875622D01*
X148601715Y-82815132D01*
X148482979Y-82799500D01*
X146407021Y-82799500D01*
X146288285Y-82815132D01*
X146142250Y-82875622D01*
X146016847Y-82971847D01*
X145920622Y-83097250D01*
X145860132Y-83243285D01*
X145844500Y-83362021D01*
X145844500Y-83754296D01*
X145843321Y-83769527D01*
X145839538Y-83793824D01*
X135037933Y-83793824D01*
X135020870Y-83619796D01*
X135020869Y-83619792D01*
X135020398Y-83614986D01*
X135017493Y-83605362D01*
X134962256Y-83422412D01*
X134960858Y-83417780D01*
X134864148Y-83235895D01*
X134733952Y-83076259D01*
X134730223Y-83073174D01*
X134578955Y-82948034D01*
X134578953Y-82948033D01*
X134575228Y-82944951D01*
X134442416Y-82873139D01*
X134398277Y-82849273D01*
X134398276Y-82849272D01*
X134394023Y-82846973D01*
X134299186Y-82817616D01*
X134201859Y-82787488D01*
X134201855Y-82787487D01*
X134197238Y-82786058D01*
X134192431Y-82785553D01*
X134192427Y-82785552D01*
X133997185Y-82765032D01*
X133997183Y-82765032D01*
X133992369Y-82764526D01*
X133924372Y-82770714D01*
X133792039Y-82782757D01*
X133792036Y-82782758D01*
X133787219Y-82783196D01*
X133782577Y-82784562D01*
X133782573Y-82784563D01*
X133594250Y-82839989D01*
X133594247Y-82839990D01*
X133589603Y-82841357D01*
X133585309Y-82843602D01*
X133411344Y-82934548D01*
X133411340Y-82934551D01*
X133407047Y-82936795D01*
X133403271Y-82939831D01*
X133403268Y-82939833D01*
X133363451Y-82971847D01*
X133246505Y-83065874D01*
X133173736Y-83152597D01*
X133117202Y-83219971D01*
X133117199Y-83219975D01*
X133114093Y-83223677D01*
X133014853Y-83404194D01*
X133013389Y-83408808D01*
X133013388Y-83408811D01*
X133010543Y-83417780D01*
X132952565Y-83600549D01*
X132952025Y-83605361D01*
X132952025Y-83605362D01*
X132930619Y-83796209D01*
X132929603Y-83805263D01*
X129200000Y-83805263D01*
X129200000Y-83704417D01*
X130401415Y-83704417D01*
X130404097Y-83717483D01*
X130405800Y-83719039D01*
X130410246Y-83720000D01*
X131329320Y-83720000D01*
X131342005Y-83715878D01*
X131345000Y-83711757D01*
X131345000Y-82790477D01*
X131343275Y-82785169D01*
X131545000Y-82785169D01*
X131545000Y-83704320D01*
X131549122Y-83717005D01*
X131553243Y-83720000D01*
X132474515Y-83720000D01*
X132487200Y-83715878D01*
X132488774Y-83713712D01*
X132489197Y-83709820D01*
X132480380Y-83619893D01*
X132478511Y-83610455D01*
X132421795Y-83422603D01*
X132418124Y-83413699D01*
X132326004Y-83240445D01*
X132320671Y-83232419D01*
X132196657Y-83080363D01*
X132189868Y-83073526D01*
X132038676Y-82948448D01*
X132030693Y-82943064D01*
X131858083Y-82849734D01*
X131849212Y-82846005D01*
X131661758Y-82787978D01*
X131652326Y-82786042D01*
X131560593Y-82776401D01*
X131547548Y-82779174D01*
X131545881Y-82781025D01*
X131545000Y-82785169D01*
X131343275Y-82785169D01*
X131340878Y-82777792D01*
X131338563Y-82776109D01*
X131334987Y-82775708D01*
X131252132Y-82783248D01*
X131242669Y-82785054D01*
X131054429Y-82840456D01*
X131045505Y-82844061D01*
X130871611Y-82934971D01*
X130863547Y-82940248D01*
X130710627Y-83063198D01*
X130703743Y-83069939D01*
X130577622Y-83220245D01*
X130572169Y-83228209D01*
X130477647Y-83400145D01*
X130473847Y-83409008D01*
X130414518Y-83596038D01*
X130412514Y-83605466D01*
X130401415Y-83704417D01*
X129200000Y-83704417D01*
X129200000Y-81265263D01*
X130389603Y-81265263D01*
X130406840Y-81470538D01*
X130463621Y-81668555D01*
X130557782Y-81851773D01*
X130685737Y-82013212D01*
X130842612Y-82146723D01*
X130846835Y-82149083D01*
X130846839Y-82149086D01*
X130914430Y-82186861D01*
X131022432Y-82247221D01*
X131027030Y-82248715D01*
X131213742Y-82309382D01*
X131213745Y-82309383D01*
X131218347Y-82310878D01*
X131422895Y-82335269D01*
X131427717Y-82334898D01*
X131427720Y-82334898D01*
X131623458Y-82319837D01*
X131623463Y-82319836D01*
X131628286Y-82319465D01*
X131826695Y-82264068D01*
X131831013Y-82261887D01*
X132006244Y-82173371D01*
X132006246Y-82173370D01*
X132010565Y-82171188D01*
X132172893Y-82044363D01*
X132176055Y-82040700D01*
X132176060Y-82040695D01*
X132304332Y-81892089D01*
X132307496Y-81888424D01*
X132330766Y-81847463D01*
X132406858Y-81713517D01*
X132406859Y-81713514D01*
X132409247Y-81709311D01*
X132424355Y-81663897D01*
X132472743Y-81518435D01*
X132472743Y-81518433D01*
X132474270Y-81513844D01*
X132479154Y-81475187D01*
X132499740Y-81312225D01*
X132500088Y-81309471D01*
X132500500Y-81280000D01*
X132499055Y-81265263D01*
X132929603Y-81265263D01*
X132946840Y-81470538D01*
X133003621Y-81668555D01*
X133097782Y-81851773D01*
X133225737Y-82013212D01*
X133382612Y-82146723D01*
X133386835Y-82149083D01*
X133386839Y-82149086D01*
X133454430Y-82186861D01*
X133562432Y-82247221D01*
X133567030Y-82248715D01*
X133753742Y-82309382D01*
X133753745Y-82309383D01*
X133758347Y-82310878D01*
X133962895Y-82335269D01*
X133967717Y-82334898D01*
X133967720Y-82334898D01*
X134163458Y-82319837D01*
X134163463Y-82319836D01*
X134168286Y-82319465D01*
X134366695Y-82264068D01*
X134371013Y-82261887D01*
X134546244Y-82173371D01*
X134546246Y-82173370D01*
X134550565Y-82171188D01*
X134712893Y-82044363D01*
X134716055Y-82040700D01*
X134716060Y-82040695D01*
X134844332Y-81892089D01*
X134847496Y-81888424D01*
X134870766Y-81847463D01*
X134946858Y-81713517D01*
X134946859Y-81713514D01*
X134949247Y-81709311D01*
X134964355Y-81663897D01*
X135012743Y-81518435D01*
X135012743Y-81518433D01*
X135014270Y-81513844D01*
X135019154Y-81475187D01*
X135039740Y-81312225D01*
X135040088Y-81309471D01*
X135040500Y-81280000D01*
X135038167Y-81256209D01*
X135037933Y-81253824D01*
X145839538Y-81253824D01*
X145840453Y-81260822D01*
X145840453Y-81260823D01*
X145843664Y-81285378D01*
X145844500Y-81298214D01*
X145844500Y-81697979D01*
X145860132Y-81816715D01*
X145920622Y-81962750D01*
X146016847Y-82088153D01*
X146142250Y-82184378D01*
X146288285Y-82244868D01*
X146407021Y-82260500D01*
X148482979Y-82260500D01*
X148601715Y-82244868D01*
X148747750Y-82184378D01*
X148873153Y-82088153D01*
X148969378Y-81962750D01*
X149029868Y-81816715D01*
X149045500Y-81697979D01*
X149045500Y-80822021D01*
X164644500Y-80822021D01*
X164644500Y-81697979D01*
X164660132Y-81816715D01*
X164720622Y-81962750D01*
X164816847Y-82088153D01*
X164942250Y-82184378D01*
X165088285Y-82244868D01*
X165207021Y-82260500D01*
X167282979Y-82260500D01*
X167401715Y-82244868D01*
X167547750Y-82184378D01*
X167673153Y-82088153D01*
X167769378Y-81962750D01*
X167829868Y-81816715D01*
X167845500Y-81697979D01*
X167845500Y-81309442D01*
X167846872Y-81293017D01*
X167849715Y-81276120D01*
X167849715Y-81276117D01*
X167850349Y-81272350D01*
X167850500Y-81260000D01*
X167846500Y-81232069D01*
X167845500Y-81218034D01*
X167845500Y-80822021D01*
X167829868Y-80703285D01*
X167769378Y-80557250D01*
X167673153Y-80431847D01*
X167547750Y-80335622D01*
X167401715Y-80275132D01*
X167282979Y-80259500D01*
X165207021Y-80259500D01*
X165088285Y-80275132D01*
X164942250Y-80335622D01*
X164816847Y-80431847D01*
X164720622Y-80557250D01*
X164660132Y-80703285D01*
X164644500Y-80822021D01*
X149045500Y-80822021D01*
X149029868Y-80703285D01*
X148969378Y-80557250D01*
X148873153Y-80431847D01*
X148747750Y-80335622D01*
X148601715Y-80275132D01*
X148482979Y-80259500D01*
X146407021Y-80259500D01*
X146288285Y-80275132D01*
X146142250Y-80335622D01*
X146016847Y-80431847D01*
X145920622Y-80557250D01*
X145860132Y-80703285D01*
X145844500Y-80822021D01*
X145844500Y-81214296D01*
X145843321Y-81229527D01*
X145839538Y-81253824D01*
X135037933Y-81253824D01*
X135020870Y-81079796D01*
X135020869Y-81079792D01*
X135020398Y-81074986D01*
X135017493Y-81065362D01*
X134996806Y-80996847D01*
X134960858Y-80877780D01*
X134864148Y-80695895D01*
X134733952Y-80536259D01*
X134613969Y-80437000D01*
X134578955Y-80408034D01*
X134578953Y-80408033D01*
X134575228Y-80404951D01*
X134394023Y-80306973D01*
X134299186Y-80277616D01*
X134201859Y-80247488D01*
X134201855Y-80247487D01*
X134197238Y-80246058D01*
X134192431Y-80245553D01*
X134192427Y-80245552D01*
X133997185Y-80225032D01*
X133997183Y-80225032D01*
X133992369Y-80224526D01*
X133924372Y-80230714D01*
X133792039Y-80242757D01*
X133792036Y-80242758D01*
X133787219Y-80243196D01*
X133782577Y-80244562D01*
X133782573Y-80244563D01*
X133594250Y-80299989D01*
X133594247Y-80299990D01*
X133589603Y-80301357D01*
X133585309Y-80303602D01*
X133411344Y-80394548D01*
X133411340Y-80394551D01*
X133407047Y-80396795D01*
X133403271Y-80399831D01*
X133403268Y-80399833D01*
X133250276Y-80522842D01*
X133246505Y-80525874D01*
X133203445Y-80577191D01*
X133117202Y-80679971D01*
X133117199Y-80679975D01*
X133114093Y-80683677D01*
X133014853Y-80864194D01*
X133013389Y-80868808D01*
X133013388Y-80868811D01*
X132979893Y-80974401D01*
X132952565Y-81060549D01*
X132952025Y-81065361D01*
X132952025Y-81065362D01*
X132930619Y-81256209D01*
X132929603Y-81265263D01*
X132499055Y-81265263D01*
X132498167Y-81256209D01*
X132480870Y-81079796D01*
X132480869Y-81079792D01*
X132480398Y-81074986D01*
X132477493Y-81065362D01*
X132456806Y-80996847D01*
X132420858Y-80877780D01*
X132324148Y-80695895D01*
X132193952Y-80536259D01*
X132073969Y-80437000D01*
X132038955Y-80408034D01*
X132038953Y-80408033D01*
X132035228Y-80404951D01*
X131854023Y-80306973D01*
X131759186Y-80277616D01*
X131661859Y-80247488D01*
X131661855Y-80247487D01*
X131657238Y-80246058D01*
X131652431Y-80245553D01*
X131652427Y-80245552D01*
X131457185Y-80225032D01*
X131457183Y-80225032D01*
X131452369Y-80224526D01*
X131384372Y-80230714D01*
X131252039Y-80242757D01*
X131252036Y-80242758D01*
X131247219Y-80243196D01*
X131242577Y-80244562D01*
X131242573Y-80244563D01*
X131054250Y-80299989D01*
X131054247Y-80299990D01*
X131049603Y-80301357D01*
X131045309Y-80303602D01*
X130871344Y-80394548D01*
X130871340Y-80394551D01*
X130867047Y-80396795D01*
X130863271Y-80399831D01*
X130863268Y-80399833D01*
X130710276Y-80522842D01*
X130706505Y-80525874D01*
X130663445Y-80577191D01*
X130577202Y-80679971D01*
X130577199Y-80679975D01*
X130574093Y-80683677D01*
X130474853Y-80864194D01*
X130473389Y-80868808D01*
X130473388Y-80868811D01*
X130439893Y-80974401D01*
X130412565Y-81060549D01*
X130412025Y-81065361D01*
X130412025Y-81065362D01*
X130390619Y-81256209D01*
X130389603Y-81265263D01*
X129200000Y-81265263D01*
X129200000Y-80118243D01*
X136735000Y-80118243D01*
X136735000Y-80855142D01*
X136735948Y-80864763D01*
X136748703Y-80928888D01*
X136756022Y-80946557D01*
X136789624Y-80996847D01*
X136803153Y-81010376D01*
X136853443Y-81043978D01*
X136871112Y-81051297D01*
X136935237Y-81064052D01*
X136944858Y-81065000D01*
X137674320Y-81065000D01*
X137687005Y-81060878D01*
X137690000Y-81056757D01*
X137690000Y-80125680D01*
X137687583Y-80118243D01*
X137890000Y-80118243D01*
X137890000Y-81049320D01*
X137894122Y-81062005D01*
X137898243Y-81065000D01*
X138635142Y-81065000D01*
X138644763Y-81064052D01*
X138708888Y-81051297D01*
X138726557Y-81043978D01*
X138776847Y-81010376D01*
X138790376Y-80996847D01*
X138823978Y-80946557D01*
X138831297Y-80928888D01*
X138844052Y-80864763D01*
X138845000Y-80855142D01*
X138845000Y-80125680D01*
X138843104Y-80119846D01*
X139285564Y-80119846D01*
X139291927Y-80195629D01*
X139293665Y-80205097D01*
X139347751Y-80393714D01*
X139351302Y-80402682D01*
X139440986Y-80577191D01*
X139446209Y-80585296D01*
X139568096Y-80739078D01*
X139574779Y-80745999D01*
X139724210Y-80873174D01*
X139732124Y-80878675D01*
X139903406Y-80974401D01*
X139912234Y-80978258D01*
X140098855Y-81038895D01*
X140108255Y-81040962D01*
X140214432Y-81053623D01*
X140227514Y-81051032D01*
X140228955Y-81049476D01*
X140230000Y-81044722D01*
X140230000Y-80125680D01*
X140227583Y-80118243D01*
X140430000Y-80118243D01*
X140430000Y-81039694D01*
X140434122Y-81052379D01*
X140436735Y-81054278D01*
X140439679Y-81054629D01*
X140508371Y-81049344D01*
X140517862Y-81047670D01*
X140706853Y-80994903D01*
X140715832Y-80991421D01*
X140890976Y-80902949D01*
X140899114Y-80897784D01*
X141053734Y-80776982D01*
X141060710Y-80770340D01*
X141188923Y-80621802D01*
X141194482Y-80613922D01*
X141291397Y-80443320D01*
X141295318Y-80434513D01*
X141357255Y-80248328D01*
X141359390Y-80238927D01*
X141373712Y-80125556D01*
X141371212Y-80112454D01*
X141369802Y-80111130D01*
X141364747Y-80110000D01*
X140445680Y-80110000D01*
X140432995Y-80114122D01*
X140430000Y-80118243D01*
X140227583Y-80118243D01*
X140225878Y-80112995D01*
X140221757Y-80110000D01*
X139300417Y-80110000D01*
X139287732Y-80114122D01*
X139285941Y-80116586D01*
X139285564Y-80119846D01*
X138843104Y-80119846D01*
X138840878Y-80112995D01*
X138836757Y-80110000D01*
X137905680Y-80110000D01*
X137892995Y-80114122D01*
X137890000Y-80118243D01*
X137687583Y-80118243D01*
X137685878Y-80112995D01*
X137681757Y-80110000D01*
X136750680Y-80110000D01*
X136737995Y-80114122D01*
X136735000Y-80118243D01*
X129200000Y-80118243D01*
X129200000Y-78725263D01*
X130389603Y-78725263D01*
X130406840Y-78930538D01*
X130408173Y-78935186D01*
X130408173Y-78935187D01*
X130447818Y-79073443D01*
X130463621Y-79128555D01*
X130557782Y-79311773D01*
X130685737Y-79473212D01*
X130842612Y-79606723D01*
X130846835Y-79609083D01*
X130846839Y-79609086D01*
X130914430Y-79646861D01*
X131022432Y-79707221D01*
X131027030Y-79708715D01*
X131213742Y-79769382D01*
X131213745Y-79769383D01*
X131218347Y-79770878D01*
X131422895Y-79795269D01*
X131427717Y-79794898D01*
X131427720Y-79794898D01*
X131623458Y-79779837D01*
X131623463Y-79779836D01*
X131628286Y-79779465D01*
X131826695Y-79724068D01*
X131831013Y-79721887D01*
X132006244Y-79633371D01*
X132006246Y-79633370D01*
X132010565Y-79631188D01*
X132172893Y-79504363D01*
X132176055Y-79500700D01*
X132176060Y-79500695D01*
X132304332Y-79352089D01*
X132307496Y-79348424D01*
X132330766Y-79307463D01*
X132406858Y-79173517D01*
X132406859Y-79173514D01*
X132409247Y-79169311D01*
X132422242Y-79130248D01*
X132472743Y-78978435D01*
X132472743Y-78978433D01*
X132474270Y-78973844D01*
X132474920Y-78968703D01*
X132499740Y-78772225D01*
X132500088Y-78769471D01*
X132500500Y-78740000D01*
X132499055Y-78725263D01*
X132929603Y-78725263D01*
X132946840Y-78930538D01*
X132948173Y-78935186D01*
X132948173Y-78935187D01*
X132987818Y-79073443D01*
X133003621Y-79128555D01*
X133097782Y-79311773D01*
X133225737Y-79473212D01*
X133382612Y-79606723D01*
X133386835Y-79609083D01*
X133386839Y-79609086D01*
X133454430Y-79646861D01*
X133562432Y-79707221D01*
X133567030Y-79708715D01*
X133753742Y-79769382D01*
X133753745Y-79769383D01*
X133758347Y-79770878D01*
X133962895Y-79795269D01*
X133967717Y-79794898D01*
X133967720Y-79794898D01*
X134163458Y-79779837D01*
X134163463Y-79779836D01*
X134168286Y-79779465D01*
X134366695Y-79724068D01*
X134371013Y-79721887D01*
X134546244Y-79633371D01*
X134546246Y-79633370D01*
X134550565Y-79631188D01*
X134712893Y-79504363D01*
X134716055Y-79500700D01*
X134716060Y-79500695D01*
X134844332Y-79352089D01*
X134847496Y-79348424D01*
X134870766Y-79307463D01*
X134946858Y-79173517D01*
X134946859Y-79173514D01*
X134949247Y-79169311D01*
X134950728Y-79164858D01*
X136735000Y-79164858D01*
X136735000Y-79894320D01*
X136739122Y-79907005D01*
X136743243Y-79910000D01*
X137674320Y-79910000D01*
X137687005Y-79905878D01*
X137690000Y-79901757D01*
X137690000Y-78970680D01*
X137687583Y-78963243D01*
X137890000Y-78963243D01*
X137890000Y-79894320D01*
X137894122Y-79907005D01*
X137898243Y-79910000D01*
X138829320Y-79910000D01*
X138842005Y-79905878D01*
X138845000Y-79901757D01*
X138845000Y-79894417D01*
X139286415Y-79894417D01*
X139289097Y-79907483D01*
X139290800Y-79909039D01*
X139295246Y-79910000D01*
X140214320Y-79910000D01*
X140227005Y-79905878D01*
X140230000Y-79901757D01*
X140230000Y-78980477D01*
X140228275Y-78975169D01*
X140430000Y-78975169D01*
X140430000Y-79894320D01*
X140434122Y-79907005D01*
X140438243Y-79910000D01*
X141359515Y-79910000D01*
X141372200Y-79905878D01*
X141373774Y-79903712D01*
X141374197Y-79899820D01*
X141365380Y-79809893D01*
X141363511Y-79800455D01*
X141306795Y-79612603D01*
X141303124Y-79603699D01*
X141211004Y-79430445D01*
X141205671Y-79422419D01*
X141081657Y-79270363D01*
X141074868Y-79263526D01*
X140923676Y-79138448D01*
X140915693Y-79133064D01*
X140743083Y-79039734D01*
X140734212Y-79036005D01*
X140546758Y-78977978D01*
X140537326Y-78976042D01*
X140445593Y-78966401D01*
X140432548Y-78969174D01*
X140430881Y-78971025D01*
X140430000Y-78975169D01*
X140228275Y-78975169D01*
X140225878Y-78967792D01*
X140223563Y-78966109D01*
X140219987Y-78965708D01*
X140137132Y-78973248D01*
X140127669Y-78975054D01*
X139939429Y-79030456D01*
X139930505Y-79034061D01*
X139756611Y-79124971D01*
X139748547Y-79130248D01*
X139595627Y-79253198D01*
X139588743Y-79259939D01*
X139462622Y-79410245D01*
X139457169Y-79418209D01*
X139362647Y-79590145D01*
X139358847Y-79599008D01*
X139299518Y-79786038D01*
X139297514Y-79795466D01*
X139286415Y-79894417D01*
X138845000Y-79894417D01*
X138845000Y-79164858D01*
X138844052Y-79155237D01*
X138831297Y-79091112D01*
X138823978Y-79073443D01*
X138790376Y-79023153D01*
X138776847Y-79009624D01*
X138726557Y-78976022D01*
X138708888Y-78968703D01*
X138644763Y-78955948D01*
X138635142Y-78955000D01*
X137905680Y-78955000D01*
X137892995Y-78959122D01*
X137890000Y-78963243D01*
X137687583Y-78963243D01*
X137685878Y-78957995D01*
X137681757Y-78955000D01*
X136944858Y-78955000D01*
X136935237Y-78955948D01*
X136871112Y-78968703D01*
X136853443Y-78976022D01*
X136803153Y-79009624D01*
X136789624Y-79023153D01*
X136756022Y-79073443D01*
X136748703Y-79091112D01*
X136735948Y-79155237D01*
X136735000Y-79164858D01*
X134950728Y-79164858D01*
X134962242Y-79130248D01*
X135012743Y-78978435D01*
X135012743Y-78978433D01*
X135014270Y-78973844D01*
X135014920Y-78968703D01*
X135039740Y-78772225D01*
X135040088Y-78769471D01*
X135040500Y-78740000D01*
X135038167Y-78716209D01*
X135037933Y-78713824D01*
X145839538Y-78713824D01*
X145840453Y-78720822D01*
X145840453Y-78720823D01*
X145843664Y-78745378D01*
X145844500Y-78758214D01*
X145844500Y-79157979D01*
X145860132Y-79276715D01*
X145920622Y-79422750D01*
X146016847Y-79548153D01*
X146142250Y-79644378D01*
X146288285Y-79704868D01*
X146407021Y-79720500D01*
X148482979Y-79720500D01*
X148601715Y-79704868D01*
X148747750Y-79644378D01*
X148873153Y-79548153D01*
X148969378Y-79422750D01*
X149029868Y-79276715D01*
X149045500Y-79157979D01*
X149045500Y-78282021D01*
X164644500Y-78282021D01*
X164644500Y-79157979D01*
X164660132Y-79276715D01*
X164720622Y-79422750D01*
X164816847Y-79548153D01*
X164942250Y-79644378D01*
X165088285Y-79704868D01*
X165207021Y-79720500D01*
X167282979Y-79720500D01*
X167401715Y-79704868D01*
X167547750Y-79644378D01*
X167673153Y-79548153D01*
X167769378Y-79422750D01*
X167829868Y-79276715D01*
X167845500Y-79157979D01*
X167845500Y-78769442D01*
X167846872Y-78753017D01*
X167849715Y-78736120D01*
X167849715Y-78736117D01*
X167850349Y-78732350D01*
X167850500Y-78720000D01*
X167846500Y-78692069D01*
X167845500Y-78678034D01*
X167845500Y-78282021D01*
X167829868Y-78163285D01*
X167769378Y-78017250D01*
X167673153Y-77891847D01*
X167547750Y-77795622D01*
X167401715Y-77735132D01*
X167282979Y-77719500D01*
X165207021Y-77719500D01*
X165088285Y-77735132D01*
X164942250Y-77795622D01*
X164816847Y-77891847D01*
X164720622Y-78017250D01*
X164660132Y-78163285D01*
X164644500Y-78282021D01*
X149045500Y-78282021D01*
X149029868Y-78163285D01*
X148969378Y-78017250D01*
X148873153Y-77891847D01*
X148747750Y-77795622D01*
X148601715Y-77735132D01*
X148482979Y-77719500D01*
X146407021Y-77719500D01*
X146288285Y-77735132D01*
X146142250Y-77795622D01*
X146016847Y-77891847D01*
X145920622Y-78017250D01*
X145860132Y-78163285D01*
X145844500Y-78282021D01*
X145844500Y-78674296D01*
X145843321Y-78689527D01*
X145839538Y-78713824D01*
X135037933Y-78713824D01*
X135020870Y-78539796D01*
X135020869Y-78539792D01*
X135020398Y-78534986D01*
X135017493Y-78525362D01*
X134962256Y-78342412D01*
X134960858Y-78337780D01*
X134864148Y-78155895D01*
X134733952Y-77996259D01*
X134575228Y-77864951D01*
X134394023Y-77766973D01*
X134299186Y-77737616D01*
X134201859Y-77707488D01*
X134201855Y-77707487D01*
X134197238Y-77706058D01*
X134192431Y-77705553D01*
X134192427Y-77705552D01*
X133997185Y-77685032D01*
X133997183Y-77685032D01*
X133992369Y-77684526D01*
X133924372Y-77690714D01*
X133792039Y-77702757D01*
X133792036Y-77702758D01*
X133787219Y-77703196D01*
X133782577Y-77704562D01*
X133782573Y-77704563D01*
X133594250Y-77759989D01*
X133594247Y-77759990D01*
X133589603Y-77761357D01*
X133585309Y-77763602D01*
X133411344Y-77854548D01*
X133411340Y-77854551D01*
X133407047Y-77856795D01*
X133403271Y-77859831D01*
X133403268Y-77859833D01*
X133363451Y-77891847D01*
X133246505Y-77985874D01*
X133173736Y-78072597D01*
X133117202Y-78139971D01*
X133117199Y-78139975D01*
X133114093Y-78143677D01*
X133014853Y-78324194D01*
X132952565Y-78520549D01*
X132952025Y-78525361D01*
X132952025Y-78525362D01*
X132930619Y-78716209D01*
X132929603Y-78725263D01*
X132499055Y-78725263D01*
X132498167Y-78716209D01*
X132480870Y-78539796D01*
X132480869Y-78539792D01*
X132480398Y-78534986D01*
X132477493Y-78525362D01*
X132422256Y-78342412D01*
X132420858Y-78337780D01*
X132324148Y-78155895D01*
X132193952Y-77996259D01*
X132035228Y-77864951D01*
X131854023Y-77766973D01*
X131759186Y-77737616D01*
X131661859Y-77707488D01*
X131661855Y-77707487D01*
X131657238Y-77706058D01*
X131652431Y-77705553D01*
X131652427Y-77705552D01*
X131457185Y-77685032D01*
X131457183Y-77685032D01*
X131452369Y-77684526D01*
X131384372Y-77690714D01*
X131252039Y-77702757D01*
X131252036Y-77702758D01*
X131247219Y-77703196D01*
X131242577Y-77704562D01*
X131242573Y-77704563D01*
X131054250Y-77759989D01*
X131054247Y-77759990D01*
X131049603Y-77761357D01*
X131045309Y-77763602D01*
X130871344Y-77854548D01*
X130871340Y-77854551D01*
X130867047Y-77856795D01*
X130863271Y-77859831D01*
X130863268Y-77859833D01*
X130823451Y-77891847D01*
X130706505Y-77985874D01*
X130633736Y-78072597D01*
X130577202Y-78139971D01*
X130577199Y-78139975D01*
X130574093Y-78143677D01*
X130474853Y-78324194D01*
X130412565Y-78520549D01*
X130412025Y-78525361D01*
X130412025Y-78525362D01*
X130390619Y-78716209D01*
X130389603Y-78725263D01*
X129200000Y-78725263D01*
X129200000Y-76185263D01*
X130389603Y-76185263D01*
X130406840Y-76390538D01*
X130463621Y-76588555D01*
X130557782Y-76771773D01*
X130685737Y-76933212D01*
X130842612Y-77066723D01*
X130846835Y-77069083D01*
X130846839Y-77069086D01*
X130914430Y-77106861D01*
X131022432Y-77167221D01*
X131027030Y-77168715D01*
X131213742Y-77229382D01*
X131213745Y-77229383D01*
X131218347Y-77230878D01*
X131422895Y-77255269D01*
X131427717Y-77254898D01*
X131427720Y-77254898D01*
X131623458Y-77239837D01*
X131623463Y-77239836D01*
X131628286Y-77239465D01*
X131826695Y-77184068D01*
X131831013Y-77181887D01*
X132006244Y-77093371D01*
X132006246Y-77093370D01*
X132010565Y-77091188D01*
X132172893Y-76964363D01*
X132176055Y-76960700D01*
X132176060Y-76960695D01*
X132304332Y-76812089D01*
X132307496Y-76808424D01*
X132330766Y-76767463D01*
X132406858Y-76633517D01*
X132406859Y-76633514D01*
X132409247Y-76629311D01*
X132424355Y-76583897D01*
X132472743Y-76438435D01*
X132472743Y-76438433D01*
X132474270Y-76433844D01*
X132479154Y-76395187D01*
X132499740Y-76232225D01*
X132500088Y-76229471D01*
X132500500Y-76200000D01*
X132499055Y-76185263D01*
X132929603Y-76185263D01*
X132946840Y-76390538D01*
X133003621Y-76588555D01*
X133097782Y-76771773D01*
X133225737Y-76933212D01*
X133382612Y-77066723D01*
X133386835Y-77069083D01*
X133386839Y-77069086D01*
X133454430Y-77106861D01*
X133562432Y-77167221D01*
X133567030Y-77168715D01*
X133753742Y-77229382D01*
X133753745Y-77229383D01*
X133758347Y-77230878D01*
X133962895Y-77255269D01*
X133967717Y-77254898D01*
X133967720Y-77254898D01*
X134163458Y-77239837D01*
X134163463Y-77239836D01*
X134168286Y-77239465D01*
X134366695Y-77184068D01*
X134371013Y-77181887D01*
X134546244Y-77093371D01*
X134546246Y-77093370D01*
X134550565Y-77091188D01*
X134712893Y-76964363D01*
X134716055Y-76960700D01*
X134716060Y-76960695D01*
X134844332Y-76812089D01*
X134847496Y-76808424D01*
X134870766Y-76767463D01*
X134946858Y-76633517D01*
X134946859Y-76633514D01*
X134949247Y-76629311D01*
X134964355Y-76583897D01*
X135012743Y-76438435D01*
X135012743Y-76438433D01*
X135014270Y-76433844D01*
X135019154Y-76395187D01*
X135039740Y-76232225D01*
X135040088Y-76229471D01*
X135040500Y-76200000D01*
X135038167Y-76176209D01*
X135037933Y-76173824D01*
X145839538Y-76173824D01*
X145840453Y-76180822D01*
X145840453Y-76180823D01*
X145843664Y-76205378D01*
X145844500Y-76218214D01*
X145844500Y-76617979D01*
X145860132Y-76736715D01*
X145920622Y-76882750D01*
X146016847Y-77008153D01*
X146142250Y-77104378D01*
X146288285Y-77164868D01*
X146407021Y-77180500D01*
X148482979Y-77180500D01*
X148601715Y-77164868D01*
X148747750Y-77104378D01*
X148873153Y-77008153D01*
X148969378Y-76882750D01*
X149029868Y-76736715D01*
X149045500Y-76617979D01*
X149045500Y-75742021D01*
X164644500Y-75742021D01*
X164644500Y-76617979D01*
X164660132Y-76736715D01*
X164720622Y-76882750D01*
X164816847Y-77008153D01*
X164942250Y-77104378D01*
X165088285Y-77164868D01*
X165207021Y-77180500D01*
X167282979Y-77180500D01*
X167401715Y-77164868D01*
X167547750Y-77104378D01*
X167673153Y-77008153D01*
X167769378Y-76882750D01*
X167829868Y-76736715D01*
X167845500Y-76617979D01*
X167845500Y-76229442D01*
X167846872Y-76213017D01*
X167849715Y-76196120D01*
X167849715Y-76196117D01*
X167850349Y-76192350D01*
X167850500Y-76180000D01*
X167846500Y-76152069D01*
X167845500Y-76138034D01*
X167845500Y-75742021D01*
X167829868Y-75623285D01*
X167769378Y-75477250D01*
X167673153Y-75351847D01*
X167547750Y-75255622D01*
X167401715Y-75195132D01*
X167282979Y-75179500D01*
X165207021Y-75179500D01*
X165088285Y-75195132D01*
X164942250Y-75255622D01*
X164816847Y-75351847D01*
X164720622Y-75477250D01*
X164660132Y-75623285D01*
X164644500Y-75742021D01*
X149045500Y-75742021D01*
X149029868Y-75623285D01*
X148969378Y-75477250D01*
X148873153Y-75351847D01*
X148747750Y-75255622D01*
X148601715Y-75195132D01*
X148482979Y-75179500D01*
X146407021Y-75179500D01*
X146288285Y-75195132D01*
X146142250Y-75255622D01*
X146016847Y-75351847D01*
X145920622Y-75477250D01*
X145860132Y-75623285D01*
X145844500Y-75742021D01*
X145844500Y-76134296D01*
X145843321Y-76149527D01*
X145839538Y-76173824D01*
X135037933Y-76173824D01*
X135020870Y-75999796D01*
X135020869Y-75999792D01*
X135020398Y-75994986D01*
X135017493Y-75985362D01*
X134962256Y-75802412D01*
X134960858Y-75797780D01*
X134864148Y-75615895D01*
X134733952Y-75456259D01*
X134575228Y-75324951D01*
X134394023Y-75226973D01*
X134299186Y-75197616D01*
X134201859Y-75167488D01*
X134201855Y-75167487D01*
X134197238Y-75166058D01*
X134192431Y-75165553D01*
X134192427Y-75165552D01*
X133997185Y-75145032D01*
X133997183Y-75145032D01*
X133992369Y-75144526D01*
X133924372Y-75150714D01*
X133792039Y-75162757D01*
X133792036Y-75162758D01*
X133787219Y-75163196D01*
X133782577Y-75164562D01*
X133782573Y-75164563D01*
X133594250Y-75219989D01*
X133594247Y-75219990D01*
X133589603Y-75221357D01*
X133585309Y-75223602D01*
X133411344Y-75314548D01*
X133411340Y-75314551D01*
X133407047Y-75316795D01*
X133403271Y-75319831D01*
X133403268Y-75319833D01*
X133363451Y-75351847D01*
X133246505Y-75445874D01*
X133173736Y-75532597D01*
X133117202Y-75599971D01*
X133117199Y-75599975D01*
X133114093Y-75603677D01*
X133014853Y-75784194D01*
X132952565Y-75980549D01*
X132952025Y-75985361D01*
X132952025Y-75985362D01*
X132930619Y-76176209D01*
X132929603Y-76185263D01*
X132499055Y-76185263D01*
X132498167Y-76176209D01*
X132480870Y-75999796D01*
X132480869Y-75999792D01*
X132480398Y-75994986D01*
X132477493Y-75985362D01*
X132422256Y-75802412D01*
X132420858Y-75797780D01*
X132324148Y-75615895D01*
X132193952Y-75456259D01*
X132035228Y-75324951D01*
X131854023Y-75226973D01*
X131759186Y-75197616D01*
X131661859Y-75167488D01*
X131661855Y-75167487D01*
X131657238Y-75166058D01*
X131652431Y-75165553D01*
X131652427Y-75165552D01*
X131457185Y-75145032D01*
X131457183Y-75145032D01*
X131452369Y-75144526D01*
X131384372Y-75150714D01*
X131252039Y-75162757D01*
X131252036Y-75162758D01*
X131247219Y-75163196D01*
X131242577Y-75164562D01*
X131242573Y-75164563D01*
X131054250Y-75219989D01*
X131054247Y-75219990D01*
X131049603Y-75221357D01*
X131045309Y-75223602D01*
X130871344Y-75314548D01*
X130871340Y-75314551D01*
X130867047Y-75316795D01*
X130863271Y-75319831D01*
X130863268Y-75319833D01*
X130823451Y-75351847D01*
X130706505Y-75445874D01*
X130633736Y-75532597D01*
X130577202Y-75599971D01*
X130577199Y-75599975D01*
X130574093Y-75603677D01*
X130474853Y-75784194D01*
X130412565Y-75980549D01*
X130412025Y-75985361D01*
X130412025Y-75985362D01*
X130390619Y-76176209D01*
X130389603Y-76185263D01*
X129200000Y-76185263D01*
X129200000Y-73645263D01*
X130389603Y-73645263D01*
X130406840Y-73850538D01*
X130463621Y-74048555D01*
X130557782Y-74231773D01*
X130685737Y-74393212D01*
X130842612Y-74526723D01*
X130846835Y-74529083D01*
X130846839Y-74529086D01*
X130953401Y-74588641D01*
X131022432Y-74627221D01*
X131027030Y-74628715D01*
X131213742Y-74689382D01*
X131213745Y-74689383D01*
X131218347Y-74690878D01*
X131422895Y-74715269D01*
X131427717Y-74714898D01*
X131427720Y-74714898D01*
X131623458Y-74699837D01*
X131623463Y-74699836D01*
X131628286Y-74699465D01*
X131826695Y-74644068D01*
X131831013Y-74641887D01*
X132006244Y-74553371D01*
X132006246Y-74553370D01*
X132010565Y-74551188D01*
X132172893Y-74424363D01*
X132176055Y-74420700D01*
X132176060Y-74420695D01*
X132304332Y-74272089D01*
X132307496Y-74268424D01*
X132330766Y-74227463D01*
X132406858Y-74093517D01*
X132406859Y-74093514D01*
X132409247Y-74089311D01*
X132424355Y-74043897D01*
X132472743Y-73898435D01*
X132472743Y-73898433D01*
X132474270Y-73893844D01*
X132479154Y-73855187D01*
X132499740Y-73692225D01*
X132500088Y-73689471D01*
X132500500Y-73660000D01*
X132499055Y-73645263D01*
X132929603Y-73645263D01*
X132946840Y-73850538D01*
X133003621Y-74048555D01*
X133097782Y-74231773D01*
X133225737Y-74393212D01*
X133382612Y-74526723D01*
X133386835Y-74529083D01*
X133386839Y-74529086D01*
X133493401Y-74588641D01*
X133562432Y-74627221D01*
X133567030Y-74628715D01*
X133753742Y-74689382D01*
X133753745Y-74689383D01*
X133758347Y-74690878D01*
X133962895Y-74715269D01*
X133967717Y-74714898D01*
X133967720Y-74714898D01*
X134163458Y-74699837D01*
X134163463Y-74699836D01*
X134168286Y-74699465D01*
X134366695Y-74644068D01*
X134371013Y-74641887D01*
X134546244Y-74553371D01*
X134546246Y-74553370D01*
X134550565Y-74551188D01*
X134712893Y-74424363D01*
X134716055Y-74420700D01*
X134716060Y-74420695D01*
X134844332Y-74272089D01*
X134847496Y-74268424D01*
X134870766Y-74227463D01*
X134946858Y-74093517D01*
X134946859Y-74093514D01*
X134949247Y-74089311D01*
X134964355Y-74043897D01*
X135012743Y-73898435D01*
X135012743Y-73898433D01*
X135014270Y-73893844D01*
X135019154Y-73855187D01*
X135039740Y-73692225D01*
X135040088Y-73689471D01*
X135040500Y-73660000D01*
X135038167Y-73636209D01*
X135020870Y-73459796D01*
X135020869Y-73459792D01*
X135020398Y-73454986D01*
X135017493Y-73445362D01*
X134962256Y-73262412D01*
X134960858Y-73257780D01*
X134864148Y-73075895D01*
X134733952Y-72916259D01*
X134613969Y-72817000D01*
X134605507Y-72810000D01*
X136734500Y-72810000D01*
X136734500Y-74510000D01*
X136738297Y-74529086D01*
X136745811Y-74566861D01*
X136750143Y-74588641D01*
X136794690Y-74655310D01*
X136861359Y-74699857D01*
X136870922Y-74701759D01*
X136870924Y-74701760D01*
X136896200Y-74706787D01*
X136940000Y-74715500D01*
X138640000Y-74715500D01*
X138683800Y-74706787D01*
X138709076Y-74701760D01*
X138709078Y-74701759D01*
X138718641Y-74699857D01*
X138785310Y-74655310D01*
X138829857Y-74588641D01*
X138834190Y-74566861D01*
X138841703Y-74529086D01*
X138845500Y-74510000D01*
X138845500Y-73645263D01*
X139274603Y-73645263D01*
X139291840Y-73850538D01*
X139348621Y-74048555D01*
X139442782Y-74231773D01*
X139570737Y-74393212D01*
X139727612Y-74526723D01*
X139731835Y-74529083D01*
X139731839Y-74529086D01*
X139838401Y-74588641D01*
X139907432Y-74627221D01*
X139912030Y-74628715D01*
X140098742Y-74689382D01*
X140098745Y-74689383D01*
X140103347Y-74690878D01*
X140307895Y-74715269D01*
X140312717Y-74714898D01*
X140312720Y-74714898D01*
X140508458Y-74699837D01*
X140508463Y-74699836D01*
X140513286Y-74699465D01*
X140711695Y-74644068D01*
X140716013Y-74641887D01*
X140891244Y-74553371D01*
X140891246Y-74553370D01*
X140895565Y-74551188D01*
X141057893Y-74424363D01*
X141061055Y-74420700D01*
X141061060Y-74420695D01*
X141189332Y-74272089D01*
X141192496Y-74268424D01*
X141215766Y-74227463D01*
X141291858Y-74093517D01*
X141291859Y-74093514D01*
X141294247Y-74089311D01*
X141309355Y-74043897D01*
X141357743Y-73898435D01*
X141357743Y-73898433D01*
X141359270Y-73893844D01*
X141364154Y-73855187D01*
X141384740Y-73692225D01*
X141385088Y-73689471D01*
X141385500Y-73660000D01*
X141383167Y-73636209D01*
X141382933Y-73633824D01*
X145839538Y-73633824D01*
X145840453Y-73640822D01*
X145840453Y-73640823D01*
X145843664Y-73665378D01*
X145844500Y-73678214D01*
X145844500Y-74077979D01*
X145860132Y-74196715D01*
X145920622Y-74342750D01*
X146016847Y-74468153D01*
X146142250Y-74564378D01*
X146288285Y-74624868D01*
X146407021Y-74640500D01*
X148482979Y-74640500D01*
X148601715Y-74624868D01*
X148747750Y-74564378D01*
X148873153Y-74468153D01*
X148969378Y-74342750D01*
X149029868Y-74196715D01*
X149045500Y-74077979D01*
X149045500Y-73202021D01*
X164644500Y-73202021D01*
X164644500Y-74077979D01*
X164660132Y-74196715D01*
X164720622Y-74342750D01*
X164816847Y-74468153D01*
X164942250Y-74564378D01*
X165088285Y-74624868D01*
X165207021Y-74640500D01*
X167282979Y-74640500D01*
X167401715Y-74624868D01*
X167547750Y-74564378D01*
X167673153Y-74468153D01*
X167769378Y-74342750D01*
X167829868Y-74196715D01*
X167845500Y-74077979D01*
X167845500Y-73689442D01*
X167846872Y-73673017D01*
X167849715Y-73656120D01*
X167849715Y-73656117D01*
X167850349Y-73652350D01*
X167850500Y-73640000D01*
X167846500Y-73612069D01*
X167845500Y-73598034D01*
X167845500Y-73202021D01*
X167829868Y-73083285D01*
X167769378Y-72937250D01*
X167673153Y-72811847D01*
X167547750Y-72715622D01*
X167401715Y-72655132D01*
X167282979Y-72639500D01*
X165207021Y-72639500D01*
X165088285Y-72655132D01*
X164942250Y-72715622D01*
X164816847Y-72811847D01*
X164720622Y-72937250D01*
X164660132Y-73083285D01*
X164644500Y-73202021D01*
X149045500Y-73202021D01*
X149029868Y-73083285D01*
X148969378Y-72937250D01*
X148873153Y-72811847D01*
X148747750Y-72715622D01*
X148601715Y-72655132D01*
X148482979Y-72639500D01*
X146407021Y-72639500D01*
X146288285Y-72655132D01*
X146142250Y-72715622D01*
X146016847Y-72811847D01*
X145920622Y-72937250D01*
X145860132Y-73083285D01*
X145844500Y-73202021D01*
X145844500Y-73594296D01*
X145843321Y-73609527D01*
X145839538Y-73633824D01*
X141382933Y-73633824D01*
X141365870Y-73459796D01*
X141365869Y-73459792D01*
X141365398Y-73454986D01*
X141362493Y-73445362D01*
X141307256Y-73262412D01*
X141305858Y-73257780D01*
X141209148Y-73075895D01*
X141078952Y-72916259D01*
X140958969Y-72817000D01*
X140923955Y-72788034D01*
X140923953Y-72788033D01*
X140920228Y-72784951D01*
X140811050Y-72725918D01*
X140743277Y-72689273D01*
X140743276Y-72689272D01*
X140739023Y-72686973D01*
X140644186Y-72657616D01*
X140546859Y-72627488D01*
X140546855Y-72627487D01*
X140542238Y-72626058D01*
X140537431Y-72625553D01*
X140537427Y-72625552D01*
X140342185Y-72605032D01*
X140342183Y-72605032D01*
X140337369Y-72604526D01*
X140269372Y-72610714D01*
X140137039Y-72622757D01*
X140137036Y-72622758D01*
X140132219Y-72623196D01*
X140127577Y-72624562D01*
X140127573Y-72624563D01*
X139939250Y-72679989D01*
X139939247Y-72679990D01*
X139934603Y-72681357D01*
X139930309Y-72683602D01*
X139756344Y-72774548D01*
X139756340Y-72774551D01*
X139752047Y-72776795D01*
X139748271Y-72779831D01*
X139748268Y-72779833D01*
X139710748Y-72810000D01*
X139591505Y-72905874D01*
X139518736Y-72992597D01*
X139462202Y-73059971D01*
X139462199Y-73059975D01*
X139459093Y-73063677D01*
X139359853Y-73244194D01*
X139297565Y-73440549D01*
X139297025Y-73445361D01*
X139297025Y-73445362D01*
X139275619Y-73636209D01*
X139274603Y-73645263D01*
X138845500Y-73645263D01*
X138845500Y-72810000D01*
X138829857Y-72731359D01*
X138785310Y-72664690D01*
X138718641Y-72620143D01*
X138709078Y-72618241D01*
X138709076Y-72618240D01*
X138683800Y-72613213D01*
X138640000Y-72604500D01*
X136940000Y-72604500D01*
X136896200Y-72613213D01*
X136870924Y-72618240D01*
X136870922Y-72618241D01*
X136861359Y-72620143D01*
X136794690Y-72664690D01*
X136750143Y-72731359D01*
X136734500Y-72810000D01*
X134605507Y-72810000D01*
X134578955Y-72788034D01*
X134578953Y-72788033D01*
X134575228Y-72784951D01*
X134466050Y-72725918D01*
X134398277Y-72689273D01*
X134398276Y-72689272D01*
X134394023Y-72686973D01*
X134299186Y-72657616D01*
X134201859Y-72627488D01*
X134201855Y-72627487D01*
X134197238Y-72626058D01*
X134192431Y-72625553D01*
X134192427Y-72625552D01*
X133997185Y-72605032D01*
X133997183Y-72605032D01*
X133992369Y-72604526D01*
X133924372Y-72610714D01*
X133792039Y-72622757D01*
X133792036Y-72622758D01*
X133787219Y-72623196D01*
X133782577Y-72624562D01*
X133782573Y-72624563D01*
X133594250Y-72679989D01*
X133594247Y-72679990D01*
X133589603Y-72681357D01*
X133585309Y-72683602D01*
X133411344Y-72774548D01*
X133411340Y-72774551D01*
X133407047Y-72776795D01*
X133403271Y-72779831D01*
X133403268Y-72779833D01*
X133365748Y-72810000D01*
X133246505Y-72905874D01*
X133173736Y-72992597D01*
X133117202Y-73059971D01*
X133117199Y-73059975D01*
X133114093Y-73063677D01*
X133014853Y-73244194D01*
X132952565Y-73440549D01*
X132952025Y-73445361D01*
X132952025Y-73445362D01*
X132930619Y-73636209D01*
X132929603Y-73645263D01*
X132499055Y-73645263D01*
X132498167Y-73636209D01*
X132480870Y-73459796D01*
X132480869Y-73459792D01*
X132480398Y-73454986D01*
X132477493Y-73445362D01*
X132422256Y-73262412D01*
X132420858Y-73257780D01*
X132324148Y-73075895D01*
X132193952Y-72916259D01*
X132073969Y-72817000D01*
X132038955Y-72788034D01*
X132038953Y-72788033D01*
X132035228Y-72784951D01*
X131926050Y-72725918D01*
X131858277Y-72689273D01*
X131858276Y-72689272D01*
X131854023Y-72686973D01*
X131759186Y-72657616D01*
X131661859Y-72627488D01*
X131661855Y-72627487D01*
X131657238Y-72626058D01*
X131652431Y-72625553D01*
X131652427Y-72625552D01*
X131457185Y-72605032D01*
X131457183Y-72605032D01*
X131452369Y-72604526D01*
X131384372Y-72610714D01*
X131252039Y-72622757D01*
X131252036Y-72622758D01*
X131247219Y-72623196D01*
X131242577Y-72624562D01*
X131242573Y-72624563D01*
X131054250Y-72679989D01*
X131054247Y-72679990D01*
X131049603Y-72681357D01*
X131045309Y-72683602D01*
X130871344Y-72774548D01*
X130871340Y-72774551D01*
X130867047Y-72776795D01*
X130863271Y-72779831D01*
X130863268Y-72779833D01*
X130825748Y-72810000D01*
X130706505Y-72905874D01*
X130633736Y-72992597D01*
X130577202Y-73059971D01*
X130577199Y-73059975D01*
X130574093Y-73063677D01*
X130474853Y-73244194D01*
X130412565Y-73440549D01*
X130412025Y-73445361D01*
X130412025Y-73445362D01*
X130390619Y-73636209D01*
X130389603Y-73645263D01*
X129200000Y-73645263D01*
X129200000Y-71105263D01*
X130389603Y-71105263D01*
X130397092Y-71194445D01*
X130406428Y-71305629D01*
X130406840Y-71310538D01*
X130463621Y-71508555D01*
X130557782Y-71691773D01*
X130685737Y-71853212D01*
X130689417Y-71856344D01*
X130689419Y-71856346D01*
X130725843Y-71887345D01*
X130842612Y-71986723D01*
X130846835Y-71989083D01*
X130846839Y-71989086D01*
X130914430Y-72026861D01*
X131022432Y-72087221D01*
X131027030Y-72088715D01*
X131213742Y-72149382D01*
X131213745Y-72149383D01*
X131218347Y-72150878D01*
X131422895Y-72175269D01*
X131427717Y-72174898D01*
X131427720Y-72174898D01*
X131623458Y-72159837D01*
X131623463Y-72159836D01*
X131628286Y-72159465D01*
X131826695Y-72104068D01*
X131831013Y-72101887D01*
X132006244Y-72013371D01*
X132006246Y-72013370D01*
X132010565Y-72011188D01*
X132172893Y-71884363D01*
X132176055Y-71880700D01*
X132176060Y-71880695D01*
X132304332Y-71732089D01*
X132307496Y-71728424D01*
X132326316Y-71695296D01*
X132406858Y-71553517D01*
X132406859Y-71553514D01*
X132409247Y-71549311D01*
X132410844Y-71544513D01*
X132472743Y-71358435D01*
X132472743Y-71358433D01*
X132474270Y-71353844D01*
X132479154Y-71315187D01*
X132489935Y-71229846D01*
X132940564Y-71229846D01*
X132946927Y-71305629D01*
X132948665Y-71315097D01*
X133002751Y-71503714D01*
X133006302Y-71512682D01*
X133095986Y-71687191D01*
X133101209Y-71695296D01*
X133223096Y-71849078D01*
X133229779Y-71855999D01*
X133379210Y-71983174D01*
X133387124Y-71988675D01*
X133558406Y-72084401D01*
X133567234Y-72088258D01*
X133753855Y-72148895D01*
X133763255Y-72150962D01*
X133869432Y-72163623D01*
X133882514Y-72161032D01*
X133883955Y-72159476D01*
X133885000Y-72154722D01*
X133885000Y-71235680D01*
X133882583Y-71228243D01*
X134085000Y-71228243D01*
X134085000Y-72149694D01*
X134089122Y-72162379D01*
X134091735Y-72164278D01*
X134094679Y-72164629D01*
X134163371Y-72159344D01*
X134172862Y-72157670D01*
X134361853Y-72104903D01*
X134370832Y-72101421D01*
X134545976Y-72012949D01*
X134554114Y-72007784D01*
X134708734Y-71886982D01*
X134715710Y-71880340D01*
X134843923Y-71731802D01*
X134849482Y-71723922D01*
X134946397Y-71553320D01*
X134950318Y-71544513D01*
X135012255Y-71358328D01*
X135014390Y-71348927D01*
X135028712Y-71235556D01*
X135026212Y-71222454D01*
X135024802Y-71221130D01*
X135019747Y-71220000D01*
X134100680Y-71220000D01*
X134087995Y-71224122D01*
X134085000Y-71228243D01*
X133882583Y-71228243D01*
X133880878Y-71222995D01*
X133876757Y-71220000D01*
X132955417Y-71220000D01*
X132942732Y-71224122D01*
X132940941Y-71226586D01*
X132940564Y-71229846D01*
X132489935Y-71229846D01*
X132499740Y-71152225D01*
X132500088Y-71149471D01*
X132500500Y-71120000D01*
X132498167Y-71096209D01*
X132497933Y-71093824D01*
X145839538Y-71093824D01*
X145840453Y-71100822D01*
X145840453Y-71100823D01*
X145843664Y-71125378D01*
X145844500Y-71138214D01*
X145844500Y-71537979D01*
X145860132Y-71656715D01*
X145920622Y-71802750D01*
X146016847Y-71928153D01*
X146142250Y-72024378D01*
X146288285Y-72084868D01*
X146407021Y-72100500D01*
X148482979Y-72100500D01*
X148601715Y-72084868D01*
X148747750Y-72024378D01*
X148873153Y-71928153D01*
X148969378Y-71802750D01*
X149029868Y-71656715D01*
X149045500Y-71537979D01*
X149045500Y-70662021D01*
X164644500Y-70662021D01*
X164644500Y-71537979D01*
X164660132Y-71656715D01*
X164720622Y-71802750D01*
X164816847Y-71928153D01*
X164942250Y-72024378D01*
X165088285Y-72084868D01*
X165207021Y-72100500D01*
X167282979Y-72100500D01*
X167401715Y-72084868D01*
X167547750Y-72024378D01*
X167673153Y-71928153D01*
X167769378Y-71802750D01*
X167829868Y-71656715D01*
X167845500Y-71537979D01*
X167845500Y-71149442D01*
X167846872Y-71133017D01*
X167849715Y-71116120D01*
X167849715Y-71116117D01*
X167850349Y-71112350D01*
X167850500Y-71100000D01*
X167846500Y-71072069D01*
X167845500Y-71058034D01*
X167845500Y-70662021D01*
X167829868Y-70543285D01*
X167769378Y-70397250D01*
X167673153Y-70271847D01*
X167547750Y-70175622D01*
X167401715Y-70115132D01*
X167282979Y-70099500D01*
X165207021Y-70099500D01*
X165088285Y-70115132D01*
X164942250Y-70175622D01*
X164816847Y-70271847D01*
X164720622Y-70397250D01*
X164660132Y-70543285D01*
X164644500Y-70662021D01*
X149045500Y-70662021D01*
X149029868Y-70543285D01*
X148969378Y-70397250D01*
X148873153Y-70271847D01*
X148747750Y-70175622D01*
X148601715Y-70115132D01*
X148482979Y-70099500D01*
X146407021Y-70099500D01*
X146288285Y-70115132D01*
X146142250Y-70175622D01*
X146016847Y-70271847D01*
X145920622Y-70397250D01*
X145860132Y-70543285D01*
X145844500Y-70662021D01*
X145844500Y-71054296D01*
X145843321Y-71069527D01*
X145839538Y-71093824D01*
X132497933Y-71093824D01*
X132489167Y-71004417D01*
X132941415Y-71004417D01*
X132944097Y-71017483D01*
X132945800Y-71019039D01*
X132950246Y-71020000D01*
X133869320Y-71020000D01*
X133882005Y-71015878D01*
X133885000Y-71011757D01*
X133885000Y-70090477D01*
X133883275Y-70085169D01*
X134085000Y-70085169D01*
X134085000Y-71004320D01*
X134089122Y-71017005D01*
X134093243Y-71020000D01*
X135014515Y-71020000D01*
X135027200Y-71015878D01*
X135028774Y-71013712D01*
X135029197Y-71009820D01*
X135020380Y-70919893D01*
X135018511Y-70910455D01*
X134961795Y-70722603D01*
X134958124Y-70713699D01*
X134866004Y-70540445D01*
X134860671Y-70532419D01*
X134736657Y-70380363D01*
X134729868Y-70373526D01*
X134578676Y-70248448D01*
X134570693Y-70243064D01*
X134398083Y-70149734D01*
X134389212Y-70146005D01*
X134201758Y-70087978D01*
X134192326Y-70086042D01*
X134100593Y-70076401D01*
X134087548Y-70079174D01*
X134085881Y-70081025D01*
X134085000Y-70085169D01*
X133883275Y-70085169D01*
X133880878Y-70077792D01*
X133878563Y-70076109D01*
X133874987Y-70075708D01*
X133792132Y-70083248D01*
X133782669Y-70085054D01*
X133594429Y-70140456D01*
X133585505Y-70144061D01*
X133411611Y-70234971D01*
X133403547Y-70240248D01*
X133250627Y-70363198D01*
X133243743Y-70369939D01*
X133117622Y-70520245D01*
X133112169Y-70528209D01*
X133017647Y-70700145D01*
X133013847Y-70709008D01*
X132954518Y-70896038D01*
X132952514Y-70905466D01*
X132941415Y-71004417D01*
X132489167Y-71004417D01*
X132480870Y-70919796D01*
X132480869Y-70919792D01*
X132480398Y-70914986D01*
X132477493Y-70905362D01*
X132422256Y-70722412D01*
X132420858Y-70717780D01*
X132324148Y-70535895D01*
X132193952Y-70376259D01*
X132190223Y-70373174D01*
X132038955Y-70248034D01*
X132038953Y-70248033D01*
X132035228Y-70244951D01*
X131902416Y-70173139D01*
X131858277Y-70149273D01*
X131858276Y-70149272D01*
X131854023Y-70146973D01*
X131759186Y-70117616D01*
X131661859Y-70087488D01*
X131661855Y-70087487D01*
X131657238Y-70086058D01*
X131652431Y-70085553D01*
X131652427Y-70085552D01*
X131457185Y-70065032D01*
X131457183Y-70065032D01*
X131452369Y-70064526D01*
X131384372Y-70070714D01*
X131252039Y-70082757D01*
X131252036Y-70082758D01*
X131247219Y-70083196D01*
X131242577Y-70084562D01*
X131242573Y-70084563D01*
X131054250Y-70139989D01*
X131054247Y-70139990D01*
X131049603Y-70141357D01*
X131045309Y-70143602D01*
X130871344Y-70234548D01*
X130871340Y-70234551D01*
X130867047Y-70236795D01*
X130863271Y-70239831D01*
X130863268Y-70239833D01*
X130823451Y-70271847D01*
X130706505Y-70365874D01*
X130633736Y-70452597D01*
X130577202Y-70519971D01*
X130577199Y-70519975D01*
X130574093Y-70523677D01*
X130474853Y-70704194D01*
X130473389Y-70708808D01*
X130473388Y-70708811D01*
X130470543Y-70717780D01*
X130412565Y-70900549D01*
X130412025Y-70905361D01*
X130412025Y-70905362D01*
X130390619Y-71096209D01*
X130389603Y-71105263D01*
X129200000Y-71105263D01*
X129200000Y-68565263D01*
X130389603Y-68565263D01*
X130406840Y-68770538D01*
X130463621Y-68968555D01*
X130557782Y-69151773D01*
X130685737Y-69313212D01*
X130842612Y-69446723D01*
X130846835Y-69449083D01*
X130846839Y-69449086D01*
X130914430Y-69486861D01*
X131022432Y-69547221D01*
X131027030Y-69548715D01*
X131213742Y-69609382D01*
X131213745Y-69609383D01*
X131218347Y-69610878D01*
X131422895Y-69635269D01*
X131427717Y-69634898D01*
X131427720Y-69634898D01*
X131623458Y-69619837D01*
X131623463Y-69619836D01*
X131628286Y-69619465D01*
X131826695Y-69564068D01*
X131831013Y-69561887D01*
X132006244Y-69473371D01*
X132006246Y-69473370D01*
X132010565Y-69471188D01*
X132172893Y-69344363D01*
X132176055Y-69340700D01*
X132176060Y-69340695D01*
X132304332Y-69192089D01*
X132307496Y-69188424D01*
X132330766Y-69147463D01*
X132406858Y-69013517D01*
X132406859Y-69013514D01*
X132409247Y-69009311D01*
X132424355Y-68963897D01*
X132472743Y-68818435D01*
X132472743Y-68818433D01*
X132474270Y-68813844D01*
X132479154Y-68775187D01*
X132499740Y-68612225D01*
X132500088Y-68609471D01*
X132500500Y-68580000D01*
X132499055Y-68565263D01*
X132929603Y-68565263D01*
X132946840Y-68770538D01*
X133003621Y-68968555D01*
X133097782Y-69151773D01*
X133225737Y-69313212D01*
X133382612Y-69446723D01*
X133386835Y-69449083D01*
X133386839Y-69449086D01*
X133454430Y-69486861D01*
X133562432Y-69547221D01*
X133567030Y-69548715D01*
X133753742Y-69609382D01*
X133753745Y-69609383D01*
X133758347Y-69610878D01*
X133962895Y-69635269D01*
X133967717Y-69634898D01*
X133967720Y-69634898D01*
X134163458Y-69619837D01*
X134163463Y-69619836D01*
X134168286Y-69619465D01*
X134366695Y-69564068D01*
X134371013Y-69561887D01*
X134546244Y-69473371D01*
X134546246Y-69473370D01*
X134550565Y-69471188D01*
X134712893Y-69344363D01*
X134716055Y-69340700D01*
X134716060Y-69340695D01*
X134844332Y-69192089D01*
X134847496Y-69188424D01*
X134870766Y-69147463D01*
X134946858Y-69013517D01*
X134946859Y-69013514D01*
X134949247Y-69009311D01*
X134964355Y-68963897D01*
X135012743Y-68818435D01*
X135012743Y-68818433D01*
X135014270Y-68813844D01*
X135019154Y-68775187D01*
X135039740Y-68612225D01*
X135040088Y-68609471D01*
X135040500Y-68580000D01*
X135038167Y-68556209D01*
X135037933Y-68553824D01*
X145839538Y-68553824D01*
X145840453Y-68560822D01*
X145840453Y-68560823D01*
X145843664Y-68585378D01*
X145844500Y-68598214D01*
X145844500Y-68997979D01*
X145860132Y-69116715D01*
X145920622Y-69262750D01*
X146016847Y-69388153D01*
X146142250Y-69484378D01*
X146288285Y-69544868D01*
X146407021Y-69560500D01*
X148482979Y-69560500D01*
X148601715Y-69544868D01*
X148747750Y-69484378D01*
X148873153Y-69388153D01*
X148969378Y-69262750D01*
X149029868Y-69116715D01*
X149045500Y-68997979D01*
X149045500Y-68122021D01*
X164644500Y-68122021D01*
X164644500Y-68997979D01*
X164660132Y-69116715D01*
X164720622Y-69262750D01*
X164816847Y-69388153D01*
X164942250Y-69484378D01*
X165088285Y-69544868D01*
X165207021Y-69560500D01*
X167282979Y-69560500D01*
X167401715Y-69544868D01*
X167547750Y-69484378D01*
X167673153Y-69388153D01*
X167769378Y-69262750D01*
X167829868Y-69116715D01*
X167845500Y-68997979D01*
X167845500Y-68609442D01*
X167846872Y-68593017D01*
X167849715Y-68576120D01*
X167849715Y-68576117D01*
X167850349Y-68572350D01*
X167850500Y-68560000D01*
X167846500Y-68532069D01*
X167845500Y-68518034D01*
X167845500Y-68122021D01*
X167829868Y-68003285D01*
X167769378Y-67857250D01*
X167673153Y-67731847D01*
X167547750Y-67635622D01*
X167401715Y-67575132D01*
X167282979Y-67559500D01*
X165207021Y-67559500D01*
X165088285Y-67575132D01*
X164942250Y-67635622D01*
X164816847Y-67731847D01*
X164720622Y-67857250D01*
X164660132Y-68003285D01*
X164644500Y-68122021D01*
X149045500Y-68122021D01*
X149029868Y-68003285D01*
X148969378Y-67857250D01*
X148873153Y-67731847D01*
X148747750Y-67635622D01*
X148601715Y-67575132D01*
X148482979Y-67559500D01*
X146407021Y-67559500D01*
X146288285Y-67575132D01*
X146142250Y-67635622D01*
X146016847Y-67731847D01*
X145920622Y-67857250D01*
X145860132Y-68003285D01*
X145844500Y-68122021D01*
X145844500Y-68514296D01*
X145843321Y-68529527D01*
X145839538Y-68553824D01*
X135037933Y-68553824D01*
X135020870Y-68379796D01*
X135020869Y-68379792D01*
X135020398Y-68374986D01*
X135017493Y-68365362D01*
X134990168Y-68274860D01*
X134960858Y-68177780D01*
X134864148Y-67995895D01*
X134733952Y-67836259D01*
X134717734Y-67822842D01*
X134578955Y-67708034D01*
X134578953Y-67708033D01*
X134575228Y-67704951D01*
X134394023Y-67606973D01*
X134299186Y-67577616D01*
X134201859Y-67547488D01*
X134201855Y-67547487D01*
X134197238Y-67546058D01*
X134192431Y-67545553D01*
X134192427Y-67545552D01*
X133997185Y-67525032D01*
X133997183Y-67525032D01*
X133992369Y-67524526D01*
X133924372Y-67530714D01*
X133792039Y-67542757D01*
X133792036Y-67542758D01*
X133787219Y-67543196D01*
X133782577Y-67544562D01*
X133782573Y-67544563D01*
X133594250Y-67599989D01*
X133594247Y-67599990D01*
X133589603Y-67601357D01*
X133585309Y-67603602D01*
X133411344Y-67694548D01*
X133411340Y-67694551D01*
X133407047Y-67696795D01*
X133403271Y-67699831D01*
X133403268Y-67699833D01*
X133250276Y-67822842D01*
X133246505Y-67825874D01*
X133196416Y-67885568D01*
X133117202Y-67979971D01*
X133117199Y-67979975D01*
X133114093Y-67983677D01*
X133014853Y-68164194D01*
X133013389Y-68168808D01*
X133013388Y-68168811D01*
X133002425Y-68203371D01*
X132952565Y-68360549D01*
X132952025Y-68365361D01*
X132952025Y-68365362D01*
X132930619Y-68556209D01*
X132929603Y-68565263D01*
X132499055Y-68565263D01*
X132498167Y-68556209D01*
X132480870Y-68379796D01*
X132480869Y-68379792D01*
X132480398Y-68374986D01*
X132477493Y-68365362D01*
X132450168Y-68274860D01*
X132420858Y-68177780D01*
X132324148Y-67995895D01*
X132193952Y-67836259D01*
X132177734Y-67822842D01*
X132038955Y-67708034D01*
X132038953Y-67708033D01*
X132035228Y-67704951D01*
X131854023Y-67606973D01*
X131759186Y-67577616D01*
X131661859Y-67547488D01*
X131661855Y-67547487D01*
X131657238Y-67546058D01*
X131652431Y-67545553D01*
X131652427Y-67545552D01*
X131457185Y-67525032D01*
X131457183Y-67525032D01*
X131452369Y-67524526D01*
X131384372Y-67530714D01*
X131252039Y-67542757D01*
X131252036Y-67542758D01*
X131247219Y-67543196D01*
X131242577Y-67544562D01*
X131242573Y-67544563D01*
X131054250Y-67599989D01*
X131054247Y-67599990D01*
X131049603Y-67601357D01*
X131045309Y-67603602D01*
X130871344Y-67694548D01*
X130871340Y-67694551D01*
X130867047Y-67696795D01*
X130863271Y-67699831D01*
X130863268Y-67699833D01*
X130710276Y-67822842D01*
X130706505Y-67825874D01*
X130656416Y-67885568D01*
X130577202Y-67979971D01*
X130577199Y-67979975D01*
X130574093Y-67983677D01*
X130474853Y-68164194D01*
X130473389Y-68168808D01*
X130473388Y-68168811D01*
X130462425Y-68203371D01*
X130412565Y-68360549D01*
X130412025Y-68365361D01*
X130412025Y-68365362D01*
X130390619Y-68556209D01*
X130389603Y-68565263D01*
X129200000Y-68565263D01*
X129200000Y-66149846D01*
X130400564Y-66149846D01*
X130406927Y-66225629D01*
X130408665Y-66235097D01*
X130462751Y-66423714D01*
X130466302Y-66432682D01*
X130555986Y-66607191D01*
X130561209Y-66615296D01*
X130683096Y-66769078D01*
X130689779Y-66775999D01*
X130839210Y-66903174D01*
X130847124Y-66908675D01*
X131018406Y-67004401D01*
X131027234Y-67008258D01*
X131213855Y-67068895D01*
X131223255Y-67070962D01*
X131329432Y-67083623D01*
X131342514Y-67081032D01*
X131343955Y-67079476D01*
X131345000Y-67074722D01*
X131345000Y-66155680D01*
X131342583Y-66148243D01*
X131545000Y-66148243D01*
X131545000Y-67069694D01*
X131549122Y-67082379D01*
X131551735Y-67084278D01*
X131554679Y-67084629D01*
X131623371Y-67079344D01*
X131632862Y-67077670D01*
X131821853Y-67024903D01*
X131830832Y-67021421D01*
X132005976Y-66932949D01*
X132014114Y-66927784D01*
X132168734Y-66806982D01*
X132175710Y-66800340D01*
X132303923Y-66651802D01*
X132309482Y-66643922D01*
X132406397Y-66473320D01*
X132410318Y-66464513D01*
X132472255Y-66278328D01*
X132474390Y-66268927D01*
X132488712Y-66155556D01*
X132486212Y-66142454D01*
X132484802Y-66141130D01*
X132479747Y-66140000D01*
X131560680Y-66140000D01*
X131547995Y-66144122D01*
X131545000Y-66148243D01*
X131342583Y-66148243D01*
X131340878Y-66142995D01*
X131336757Y-66140000D01*
X130415417Y-66140000D01*
X130402732Y-66144122D01*
X130400941Y-66146586D01*
X130400564Y-66149846D01*
X129200000Y-66149846D01*
X129200000Y-66025263D01*
X132929603Y-66025263D01*
X132937092Y-66114445D01*
X132946428Y-66225629D01*
X132946840Y-66230538D01*
X132948173Y-66235186D01*
X132948173Y-66235187D01*
X132990088Y-66381359D01*
X133003621Y-66428555D01*
X133005836Y-66432865D01*
X133017077Y-66454738D01*
X133097782Y-66611773D01*
X133225737Y-66773212D01*
X133229417Y-66776344D01*
X133229419Y-66776346D01*
X133265843Y-66807345D01*
X133382612Y-66906723D01*
X133386835Y-66909083D01*
X133386839Y-66909086D01*
X133503453Y-66974259D01*
X133562432Y-67007221D01*
X133567030Y-67008715D01*
X133753742Y-67069382D01*
X133753745Y-67069383D01*
X133758347Y-67070878D01*
X133962895Y-67095269D01*
X133967717Y-67094898D01*
X133967720Y-67094898D01*
X134163458Y-67079837D01*
X134163463Y-67079836D01*
X134168286Y-67079465D01*
X134366695Y-67024068D01*
X134371013Y-67021887D01*
X134546244Y-66933371D01*
X134546246Y-66933370D01*
X134550565Y-66931188D01*
X134712893Y-66804363D01*
X134716055Y-66800700D01*
X134716060Y-66800695D01*
X134844332Y-66652089D01*
X134847496Y-66648424D01*
X134866316Y-66615296D01*
X134946858Y-66473517D01*
X134946859Y-66473514D01*
X134949247Y-66469311D01*
X134950844Y-66464513D01*
X134952345Y-66460000D01*
X136734500Y-66460000D01*
X136734500Y-68160000D01*
X136750143Y-68238641D01*
X136794690Y-68305310D01*
X136861359Y-68349857D01*
X136870922Y-68351759D01*
X136870924Y-68351760D01*
X136891909Y-68355934D01*
X136940000Y-68365500D01*
X138640000Y-68365500D01*
X138688091Y-68355934D01*
X138709076Y-68351760D01*
X138709078Y-68351759D01*
X138718641Y-68349857D01*
X138785310Y-68305310D01*
X138829857Y-68238641D01*
X138845500Y-68160000D01*
X138845500Y-67295263D01*
X139274603Y-67295263D01*
X139291840Y-67500538D01*
X139293173Y-67505186D01*
X139293173Y-67505187D01*
X139323020Y-67609273D01*
X139348621Y-67698555D01*
X139350836Y-67702865D01*
X139363699Y-67727893D01*
X139442782Y-67881773D01*
X139570737Y-68043212D01*
X139727612Y-68176723D01*
X139731835Y-68179083D01*
X139731839Y-68179086D01*
X139838401Y-68238641D01*
X139907432Y-68277221D01*
X139912030Y-68278715D01*
X140098742Y-68339382D01*
X140098745Y-68339383D01*
X140103347Y-68340878D01*
X140307895Y-68365269D01*
X140312717Y-68364898D01*
X140312720Y-68364898D01*
X140508458Y-68349837D01*
X140508463Y-68349836D01*
X140513286Y-68349465D01*
X140711695Y-68294068D01*
X140742089Y-68278715D01*
X140891244Y-68203371D01*
X140891246Y-68203370D01*
X140895565Y-68201188D01*
X141057893Y-68074363D01*
X141061055Y-68070700D01*
X141061060Y-68070695D01*
X141189332Y-67922089D01*
X141192496Y-67918424D01*
X141215766Y-67877463D01*
X141291858Y-67743517D01*
X141291859Y-67743514D01*
X141294247Y-67739311D01*
X141298046Y-67727893D01*
X141357743Y-67548435D01*
X141357743Y-67548433D01*
X141359270Y-67543844D01*
X141361647Y-67525032D01*
X141384740Y-67342225D01*
X141385088Y-67339471D01*
X141385500Y-67310000D01*
X141365398Y-67104986D01*
X141362493Y-67095362D01*
X141341360Y-67025369D01*
X141305858Y-66907780D01*
X141209148Y-66725895D01*
X141078952Y-66566259D01*
X141062734Y-66552842D01*
X140923955Y-66438034D01*
X140923953Y-66438033D01*
X140920228Y-66434951D01*
X140811051Y-66375918D01*
X140743277Y-66339273D01*
X140743276Y-66339272D01*
X140739023Y-66336973D01*
X140649532Y-66309271D01*
X140546859Y-66277488D01*
X140546855Y-66277487D01*
X140542238Y-66276058D01*
X140537431Y-66275553D01*
X140537427Y-66275552D01*
X140342185Y-66255032D01*
X140342183Y-66255032D01*
X140337369Y-66254526D01*
X140269372Y-66260714D01*
X140137039Y-66272757D01*
X140137036Y-66272758D01*
X140132219Y-66273196D01*
X140127577Y-66274562D01*
X140127573Y-66274563D01*
X139939250Y-66329989D01*
X139939247Y-66329990D01*
X139934603Y-66331357D01*
X139930309Y-66333602D01*
X139756344Y-66424548D01*
X139756340Y-66424551D01*
X139752047Y-66426795D01*
X139748271Y-66429831D01*
X139748268Y-66429833D01*
X139595276Y-66552842D01*
X139591505Y-66555874D01*
X139541644Y-66615296D01*
X139462202Y-66709971D01*
X139462199Y-66709975D01*
X139459093Y-66713677D01*
X139359853Y-66894194D01*
X139358389Y-66898808D01*
X139358388Y-66898811D01*
X139321252Y-67015878D01*
X139297565Y-67090549D01*
X139274603Y-67295263D01*
X138845500Y-67295263D01*
X138845500Y-66460000D01*
X138829857Y-66381359D01*
X138785310Y-66314690D01*
X138718641Y-66270143D01*
X138709078Y-66268241D01*
X138709076Y-66268240D01*
X138683800Y-66263213D01*
X138640000Y-66254500D01*
X136940000Y-66254500D01*
X136896200Y-66263213D01*
X136870924Y-66268240D01*
X136870922Y-66268241D01*
X136861359Y-66270143D01*
X136794690Y-66314690D01*
X136750143Y-66381359D01*
X136734500Y-66460000D01*
X134952345Y-66460000D01*
X135012743Y-66278435D01*
X135012743Y-66278433D01*
X135014270Y-66273844D01*
X135016647Y-66255032D01*
X135032664Y-66128243D01*
X145845000Y-66128243D01*
X145845000Y-66454738D01*
X145845423Y-66461192D01*
X145859768Y-66570150D01*
X145863099Y-66582583D01*
X145918572Y-66716505D01*
X145925006Y-66727649D01*
X146013246Y-66842647D01*
X146022353Y-66851754D01*
X146137351Y-66939994D01*
X146148495Y-66946428D01*
X146282417Y-67001901D01*
X146294850Y-67005232D01*
X146403808Y-67019577D01*
X146410262Y-67020000D01*
X147329320Y-67020000D01*
X147342005Y-67015878D01*
X147345000Y-67011757D01*
X147345000Y-66135680D01*
X147340878Y-66122995D01*
X147336757Y-66120000D01*
X145860680Y-66120000D01*
X145847995Y-66124122D01*
X145845000Y-66128243D01*
X135032664Y-66128243D01*
X135039740Y-66072225D01*
X135040088Y-66069471D01*
X135040500Y-66040000D01*
X135030291Y-65935878D01*
X135020870Y-65839796D01*
X135020869Y-65839792D01*
X135020398Y-65834986D01*
X135017493Y-65825362D01*
X134962256Y-65642412D01*
X134960858Y-65637780D01*
X134932934Y-65585262D01*
X145845000Y-65585262D01*
X145845000Y-65904320D01*
X145849122Y-65917005D01*
X145853243Y-65920000D01*
X147329320Y-65920000D01*
X147342005Y-65915878D01*
X147345000Y-65911757D01*
X147345000Y-65035680D01*
X147342583Y-65028243D01*
X147545000Y-65028243D01*
X147545000Y-67004320D01*
X147549122Y-67017005D01*
X147553243Y-67020000D01*
X148479738Y-67020000D01*
X148486192Y-67019577D01*
X148595150Y-67005232D01*
X148607583Y-67001901D01*
X148741505Y-66946428D01*
X148752649Y-66939994D01*
X148867647Y-66851754D01*
X148876754Y-66842647D01*
X148964994Y-66727649D01*
X148971428Y-66716505D01*
X149026901Y-66582583D01*
X149030232Y-66570150D01*
X149044577Y-66461192D01*
X149045000Y-66454738D01*
X149045000Y-65585262D01*
X164645000Y-65585262D01*
X164645000Y-66454738D01*
X164645423Y-66461192D01*
X164659768Y-66570150D01*
X164663099Y-66582583D01*
X164718572Y-66716505D01*
X164725006Y-66727649D01*
X164813246Y-66842647D01*
X164822353Y-66851754D01*
X164937351Y-66939994D01*
X164948495Y-66946428D01*
X165082417Y-67001901D01*
X165094850Y-67005232D01*
X165203808Y-67019577D01*
X165210262Y-67020000D01*
X166129320Y-67020000D01*
X166142005Y-67015878D01*
X166145000Y-67011757D01*
X166145000Y-66128243D01*
X166345000Y-66128243D01*
X166345000Y-67004320D01*
X166349122Y-67017005D01*
X166353243Y-67020000D01*
X167279738Y-67020000D01*
X167286192Y-67019577D01*
X167395150Y-67005232D01*
X167407583Y-67001901D01*
X167541505Y-66946428D01*
X167552649Y-66939994D01*
X167667647Y-66851754D01*
X167676754Y-66842647D01*
X167764994Y-66727649D01*
X167771428Y-66716505D01*
X167826901Y-66582583D01*
X167830232Y-66570150D01*
X167844577Y-66461192D01*
X167845000Y-66454738D01*
X167845000Y-66135680D01*
X167840878Y-66122995D01*
X167836757Y-66120000D01*
X166360680Y-66120000D01*
X166347995Y-66124122D01*
X166345000Y-66128243D01*
X166145000Y-66128243D01*
X166145000Y-65035680D01*
X166142583Y-65028243D01*
X166345000Y-65028243D01*
X166345000Y-65904320D01*
X166349122Y-65917005D01*
X166353243Y-65920000D01*
X167829320Y-65920000D01*
X167842005Y-65915878D01*
X167845000Y-65911757D01*
X167845000Y-65585262D01*
X167844577Y-65578808D01*
X167830232Y-65469850D01*
X167826901Y-65457417D01*
X167771428Y-65323495D01*
X167764994Y-65312351D01*
X167676754Y-65197353D01*
X167667647Y-65188246D01*
X167552649Y-65100006D01*
X167541505Y-65093572D01*
X167407583Y-65038099D01*
X167395150Y-65034768D01*
X167286192Y-65020423D01*
X167279738Y-65020000D01*
X166360680Y-65020000D01*
X166347995Y-65024122D01*
X166345000Y-65028243D01*
X166142583Y-65028243D01*
X166140878Y-65022995D01*
X166136757Y-65020000D01*
X165210262Y-65020000D01*
X165203808Y-65020423D01*
X165094850Y-65034768D01*
X165082417Y-65038099D01*
X164948495Y-65093572D01*
X164937351Y-65100006D01*
X164822353Y-65188246D01*
X164813246Y-65197353D01*
X164725006Y-65312351D01*
X164718572Y-65323495D01*
X164663099Y-65457417D01*
X164659768Y-65469850D01*
X164645423Y-65578808D01*
X164645000Y-65585262D01*
X149045000Y-65585262D01*
X149044577Y-65578808D01*
X149030232Y-65469850D01*
X149026901Y-65457417D01*
X148971428Y-65323495D01*
X148964994Y-65312351D01*
X148876754Y-65197353D01*
X148867647Y-65188246D01*
X148752649Y-65100006D01*
X148741505Y-65093572D01*
X148607583Y-65038099D01*
X148595150Y-65034768D01*
X148486192Y-65020423D01*
X148479738Y-65020000D01*
X147560680Y-65020000D01*
X147547995Y-65024122D01*
X147545000Y-65028243D01*
X147342583Y-65028243D01*
X147340878Y-65022995D01*
X147336757Y-65020000D01*
X146410262Y-65020000D01*
X146403808Y-65020423D01*
X146294850Y-65034768D01*
X146282417Y-65038099D01*
X146148495Y-65093572D01*
X146137351Y-65100006D01*
X146022353Y-65188246D01*
X146013246Y-65197353D01*
X145925006Y-65312351D01*
X145918572Y-65323495D01*
X145863099Y-65457417D01*
X145859768Y-65469850D01*
X145845423Y-65578808D01*
X145845000Y-65585262D01*
X134932934Y-65585262D01*
X134864148Y-65455895D01*
X134733952Y-65296259D01*
X134730223Y-65293174D01*
X134578955Y-65168034D01*
X134578953Y-65168033D01*
X134575228Y-65164951D01*
X134455116Y-65100006D01*
X134398277Y-65069273D01*
X134398276Y-65069272D01*
X134394023Y-65066973D01*
X134300746Y-65038099D01*
X134201859Y-65007488D01*
X134201855Y-65007487D01*
X134197238Y-65006058D01*
X134192431Y-65005553D01*
X134192427Y-65005552D01*
X133997185Y-64985032D01*
X133997183Y-64985032D01*
X133992369Y-64984526D01*
X133924372Y-64990714D01*
X133792039Y-65002757D01*
X133792036Y-65002758D01*
X133787219Y-65003196D01*
X133782577Y-65004562D01*
X133782573Y-65004563D01*
X133594250Y-65059989D01*
X133594247Y-65059990D01*
X133589603Y-65061357D01*
X133585309Y-65063602D01*
X133411344Y-65154548D01*
X133411340Y-65154551D01*
X133407047Y-65156795D01*
X133403271Y-65159831D01*
X133403268Y-65159833D01*
X133356603Y-65197353D01*
X133246505Y-65285874D01*
X133173736Y-65372597D01*
X133117202Y-65439971D01*
X133117199Y-65439975D01*
X133114093Y-65443677D01*
X133014853Y-65624194D01*
X133013389Y-65628808D01*
X133013388Y-65628811D01*
X133010543Y-65637780D01*
X132952565Y-65820549D01*
X132952025Y-65825361D01*
X132952025Y-65825362D01*
X132939167Y-65940000D01*
X132929603Y-66025263D01*
X129200000Y-66025263D01*
X129200000Y-65924417D01*
X130401415Y-65924417D01*
X130404097Y-65937483D01*
X130405800Y-65939039D01*
X130410246Y-65940000D01*
X131329320Y-65940000D01*
X131342005Y-65935878D01*
X131345000Y-65931757D01*
X131345000Y-65010477D01*
X131343275Y-65005169D01*
X131545000Y-65005169D01*
X131545000Y-65924320D01*
X131549122Y-65937005D01*
X131553243Y-65940000D01*
X132474515Y-65940000D01*
X132487200Y-65935878D01*
X132488774Y-65933712D01*
X132489197Y-65929820D01*
X132480380Y-65839893D01*
X132478511Y-65830455D01*
X132421795Y-65642603D01*
X132418124Y-65633699D01*
X132326004Y-65460445D01*
X132320671Y-65452419D01*
X132196657Y-65300363D01*
X132189868Y-65293526D01*
X132038676Y-65168448D01*
X132030693Y-65163064D01*
X131858083Y-65069734D01*
X131849212Y-65066005D01*
X131661758Y-65007978D01*
X131652326Y-65006042D01*
X131560593Y-64996401D01*
X131547548Y-64999174D01*
X131545881Y-65001025D01*
X131545000Y-65005169D01*
X131343275Y-65005169D01*
X131340878Y-64997792D01*
X131338563Y-64996109D01*
X131334987Y-64995708D01*
X131252132Y-65003248D01*
X131242669Y-65005054D01*
X131054429Y-65060456D01*
X131045505Y-65064061D01*
X130871611Y-65154971D01*
X130863547Y-65160248D01*
X130710627Y-65283198D01*
X130703743Y-65289939D01*
X130577622Y-65440245D01*
X130572169Y-65448209D01*
X130477647Y-65620145D01*
X130473847Y-65629008D01*
X130414518Y-65816038D01*
X130412514Y-65825466D01*
X130401415Y-65924417D01*
X129200000Y-65924417D01*
X129200000Y-63485263D01*
X130389603Y-63485263D01*
X130406840Y-63690538D01*
X130463621Y-63888555D01*
X130557782Y-64071773D01*
X130685737Y-64233212D01*
X130842612Y-64366723D01*
X130846835Y-64369083D01*
X130846839Y-64369086D01*
X130914430Y-64406861D01*
X131022432Y-64467221D01*
X131027030Y-64468715D01*
X131213742Y-64529382D01*
X131213745Y-64529383D01*
X131218347Y-64530878D01*
X131422895Y-64555269D01*
X131427717Y-64554898D01*
X131427720Y-64554898D01*
X131623458Y-64539837D01*
X131623463Y-64539836D01*
X131628286Y-64539465D01*
X131826695Y-64484068D01*
X131831013Y-64481887D01*
X132006244Y-64393371D01*
X132006246Y-64393370D01*
X132010565Y-64391188D01*
X132172893Y-64264363D01*
X132176055Y-64260700D01*
X132176060Y-64260695D01*
X132304332Y-64112089D01*
X132307496Y-64108424D01*
X132330766Y-64067463D01*
X132406858Y-63933517D01*
X132406859Y-63933514D01*
X132409247Y-63929311D01*
X132424355Y-63883897D01*
X132472743Y-63738435D01*
X132472743Y-63738433D01*
X132474270Y-63733844D01*
X132479154Y-63695187D01*
X132499740Y-63532225D01*
X132500088Y-63529471D01*
X132500500Y-63500000D01*
X132499055Y-63485263D01*
X132929603Y-63485263D01*
X132946840Y-63690538D01*
X133003621Y-63888555D01*
X133097782Y-64071773D01*
X133225737Y-64233212D01*
X133382612Y-64366723D01*
X133386835Y-64369083D01*
X133386839Y-64369086D01*
X133454430Y-64406861D01*
X133562432Y-64467221D01*
X133567030Y-64468715D01*
X133753742Y-64529382D01*
X133753745Y-64529383D01*
X133758347Y-64530878D01*
X133962895Y-64555269D01*
X133967717Y-64554898D01*
X133967720Y-64554898D01*
X134163458Y-64539837D01*
X134163463Y-64539836D01*
X134168286Y-64539465D01*
X134366695Y-64484068D01*
X134371013Y-64481887D01*
X134546244Y-64393371D01*
X134546246Y-64393370D01*
X134550565Y-64391188D01*
X134712893Y-64264363D01*
X134716055Y-64260700D01*
X134716060Y-64260695D01*
X134844332Y-64112089D01*
X134847496Y-64108424D01*
X134870766Y-64067463D01*
X134946858Y-63933517D01*
X134946859Y-63933514D01*
X134949247Y-63929311D01*
X134964355Y-63883897D01*
X135012743Y-63738435D01*
X135012743Y-63738433D01*
X135014270Y-63733844D01*
X135019154Y-63695187D01*
X135039740Y-63532225D01*
X135040088Y-63529471D01*
X135040500Y-63500000D01*
X135038167Y-63476209D01*
X135037933Y-63473824D01*
X145839538Y-63473824D01*
X145840453Y-63480822D01*
X145840453Y-63480823D01*
X145843664Y-63505378D01*
X145844500Y-63518214D01*
X145844500Y-63917979D01*
X145860132Y-64036715D01*
X145920622Y-64182750D01*
X146016847Y-64308153D01*
X146142250Y-64404378D01*
X146288285Y-64464868D01*
X146407021Y-64480500D01*
X148482979Y-64480500D01*
X148601715Y-64464868D01*
X148747750Y-64404378D01*
X148873153Y-64308153D01*
X148969378Y-64182750D01*
X149029868Y-64036715D01*
X149045500Y-63917979D01*
X149045500Y-63042021D01*
X164644500Y-63042021D01*
X164644500Y-63917979D01*
X164660132Y-64036715D01*
X164720622Y-64182750D01*
X164816847Y-64308153D01*
X164942250Y-64404378D01*
X165088285Y-64464868D01*
X165207021Y-64480500D01*
X167282979Y-64480500D01*
X167401715Y-64464868D01*
X167547750Y-64404378D01*
X167673153Y-64308153D01*
X167769378Y-64182750D01*
X167829868Y-64036715D01*
X167845500Y-63917979D01*
X167845500Y-63529442D01*
X167846872Y-63513017D01*
X167849715Y-63496120D01*
X167849715Y-63496117D01*
X167850349Y-63492350D01*
X167850500Y-63480000D01*
X167846500Y-63452069D01*
X167845500Y-63438034D01*
X167845500Y-63042021D01*
X167829868Y-62923285D01*
X167769378Y-62777250D01*
X167673153Y-62651847D01*
X167547750Y-62555622D01*
X167401715Y-62495132D01*
X167282979Y-62479500D01*
X165207021Y-62479500D01*
X165088285Y-62495132D01*
X164942250Y-62555622D01*
X164816847Y-62651847D01*
X164720622Y-62777250D01*
X164660132Y-62923285D01*
X164644500Y-63042021D01*
X149045500Y-63042021D01*
X149029868Y-62923285D01*
X148969378Y-62777250D01*
X148873153Y-62651847D01*
X148747750Y-62555622D01*
X148601715Y-62495132D01*
X148482979Y-62479500D01*
X146407021Y-62479500D01*
X146288285Y-62495132D01*
X146142250Y-62555622D01*
X146016847Y-62651847D01*
X145920622Y-62777250D01*
X145860132Y-62923285D01*
X145844500Y-63042021D01*
X145844500Y-63434296D01*
X145843321Y-63449527D01*
X145839538Y-63473824D01*
X135037933Y-63473824D01*
X135020870Y-63299796D01*
X135020869Y-63299792D01*
X135020398Y-63294986D01*
X135017493Y-63285362D01*
X134962256Y-63102412D01*
X134960858Y-63097780D01*
X134864148Y-62915895D01*
X134733952Y-62756259D01*
X134575228Y-62624951D01*
X134394023Y-62526973D01*
X134299186Y-62497616D01*
X134201859Y-62467488D01*
X134201855Y-62467487D01*
X134197238Y-62466058D01*
X134192431Y-62465553D01*
X134192427Y-62465552D01*
X133997185Y-62445032D01*
X133997183Y-62445032D01*
X133992369Y-62444526D01*
X133924372Y-62450714D01*
X133792039Y-62462757D01*
X133792036Y-62462758D01*
X133787219Y-62463196D01*
X133782577Y-62464562D01*
X133782573Y-62464563D01*
X133594250Y-62519989D01*
X133594247Y-62519990D01*
X133589603Y-62521357D01*
X133585309Y-62523602D01*
X133411344Y-62614548D01*
X133411340Y-62614551D01*
X133407047Y-62616795D01*
X133403271Y-62619831D01*
X133403268Y-62619833D01*
X133363451Y-62651847D01*
X133246505Y-62745874D01*
X133173736Y-62832597D01*
X133117202Y-62899971D01*
X133117199Y-62899975D01*
X133114093Y-62903677D01*
X133014853Y-63084194D01*
X132952565Y-63280549D01*
X132952025Y-63285361D01*
X132952025Y-63285362D01*
X132930619Y-63476209D01*
X132929603Y-63485263D01*
X132499055Y-63485263D01*
X132498167Y-63476209D01*
X132480870Y-63299796D01*
X132480869Y-63299792D01*
X132480398Y-63294986D01*
X132477493Y-63285362D01*
X132422256Y-63102412D01*
X132420858Y-63097780D01*
X132324148Y-62915895D01*
X132193952Y-62756259D01*
X132035228Y-62624951D01*
X131854023Y-62526973D01*
X131759186Y-62497616D01*
X131661859Y-62467488D01*
X131661855Y-62467487D01*
X131657238Y-62466058D01*
X131652431Y-62465553D01*
X131652427Y-62465552D01*
X131457185Y-62445032D01*
X131457183Y-62445032D01*
X131452369Y-62444526D01*
X131384372Y-62450714D01*
X131252039Y-62462757D01*
X131252036Y-62462758D01*
X131247219Y-62463196D01*
X131242577Y-62464562D01*
X131242573Y-62464563D01*
X131054250Y-62519989D01*
X131054247Y-62519990D01*
X131049603Y-62521357D01*
X131045309Y-62523602D01*
X130871344Y-62614548D01*
X130871340Y-62614551D01*
X130867047Y-62616795D01*
X130863271Y-62619831D01*
X130863268Y-62619833D01*
X130823451Y-62651847D01*
X130706505Y-62745874D01*
X130633736Y-62832597D01*
X130577202Y-62899971D01*
X130577199Y-62899975D01*
X130574093Y-62903677D01*
X130474853Y-63084194D01*
X130412565Y-63280549D01*
X130412025Y-63285361D01*
X130412025Y-63285362D01*
X130390619Y-63476209D01*
X130389603Y-63485263D01*
X129200000Y-63485263D01*
X129200000Y-61056301D01*
X129202938Y-61032363D01*
X129203208Y-61031280D01*
X129203208Y-61031276D01*
X129204563Y-61025841D01*
X129206031Y-60945263D01*
X130389603Y-60945263D01*
X130406840Y-61150538D01*
X130463621Y-61348555D01*
X130557782Y-61531773D01*
X130685737Y-61693212D01*
X130842612Y-61826723D01*
X130846835Y-61829083D01*
X130846839Y-61829086D01*
X130953401Y-61888641D01*
X131022432Y-61927221D01*
X131027030Y-61928715D01*
X131213742Y-61989382D01*
X131213745Y-61989383D01*
X131218347Y-61990878D01*
X131422895Y-62015269D01*
X131427717Y-62014898D01*
X131427720Y-62014898D01*
X131623458Y-61999837D01*
X131623463Y-61999836D01*
X131628286Y-61999465D01*
X131826695Y-61944068D01*
X131831013Y-61941887D01*
X132006244Y-61853371D01*
X132006246Y-61853370D01*
X132010565Y-61851188D01*
X132172893Y-61724363D01*
X132176055Y-61720700D01*
X132176060Y-61720695D01*
X132304332Y-61572089D01*
X132307496Y-61568424D01*
X132330766Y-61527463D01*
X132406858Y-61393517D01*
X132406859Y-61393514D01*
X132409247Y-61389311D01*
X132424355Y-61343897D01*
X132472743Y-61198435D01*
X132472743Y-61198433D01*
X132474270Y-61193844D01*
X132479154Y-61155187D01*
X132499740Y-60992225D01*
X132500088Y-60989471D01*
X132500500Y-60960000D01*
X132498167Y-60936209D01*
X132480870Y-60759796D01*
X132480869Y-60759792D01*
X132480398Y-60754986D01*
X132477493Y-60745362D01*
X132446684Y-60643320D01*
X132420858Y-60557780D01*
X132324148Y-60375895D01*
X132193952Y-60216259D01*
X132100323Y-60138802D01*
X132065507Y-60110000D01*
X132929500Y-60110000D01*
X132929500Y-61810000D01*
X132933297Y-61829086D01*
X132940811Y-61866861D01*
X132945143Y-61888641D01*
X132989690Y-61955310D01*
X133056359Y-61999857D01*
X133065922Y-62001759D01*
X133065924Y-62001760D01*
X133091200Y-62006787D01*
X133135000Y-62015500D01*
X134835000Y-62015500D01*
X134878800Y-62006787D01*
X134904076Y-62001760D01*
X134904078Y-62001759D01*
X134913641Y-61999857D01*
X134980310Y-61955310D01*
X135024857Y-61888641D01*
X135029190Y-61866861D01*
X135036703Y-61829086D01*
X135040500Y-61810000D01*
X135040500Y-60110000D01*
X136734500Y-60110000D01*
X136734500Y-61810000D01*
X136738297Y-61829086D01*
X136745811Y-61866861D01*
X136750143Y-61888641D01*
X136794690Y-61955310D01*
X136861359Y-61999857D01*
X136870922Y-62001759D01*
X136870924Y-62001760D01*
X136896200Y-62006787D01*
X136940000Y-62015500D01*
X138640000Y-62015500D01*
X138683800Y-62006787D01*
X138709076Y-62001760D01*
X138709078Y-62001759D01*
X138718641Y-61999857D01*
X138785310Y-61955310D01*
X138829857Y-61888641D01*
X138834190Y-61866861D01*
X138841703Y-61829086D01*
X138845500Y-61810000D01*
X138845500Y-60110000D01*
X138829857Y-60031359D01*
X138785310Y-59964690D01*
X138718641Y-59920143D01*
X138709078Y-59918241D01*
X138709076Y-59918240D01*
X138683800Y-59913213D01*
X138640000Y-59904500D01*
X136940000Y-59904500D01*
X136896200Y-59913213D01*
X136870924Y-59918240D01*
X136870922Y-59918241D01*
X136861359Y-59920143D01*
X136794690Y-59964690D01*
X136750143Y-60031359D01*
X136734500Y-60110000D01*
X135040500Y-60110000D01*
X135024857Y-60031359D01*
X134980310Y-59964690D01*
X134913641Y-59920143D01*
X134904078Y-59918241D01*
X134904076Y-59918240D01*
X134878800Y-59913213D01*
X134835000Y-59904500D01*
X133135000Y-59904500D01*
X133091200Y-59913213D01*
X133065924Y-59918240D01*
X133065922Y-59918241D01*
X133056359Y-59920143D01*
X132989690Y-59964690D01*
X132945143Y-60031359D01*
X132929500Y-60110000D01*
X132065507Y-60110000D01*
X132038955Y-60088034D01*
X132038953Y-60088033D01*
X132035228Y-60084951D01*
X131926050Y-60025918D01*
X131858277Y-59989273D01*
X131858276Y-59989272D01*
X131854023Y-59986973D01*
X131782038Y-59964690D01*
X131661859Y-59927488D01*
X131661855Y-59927487D01*
X131657238Y-59926058D01*
X131652431Y-59925553D01*
X131652427Y-59925552D01*
X131457185Y-59905032D01*
X131457183Y-59905032D01*
X131452369Y-59904526D01*
X131384372Y-59910714D01*
X131252039Y-59922757D01*
X131252036Y-59922758D01*
X131247219Y-59923196D01*
X131242577Y-59924562D01*
X131242573Y-59924563D01*
X131054250Y-59979989D01*
X131054247Y-59979990D01*
X131049603Y-59981357D01*
X131045309Y-59983602D01*
X130871344Y-60074548D01*
X130871340Y-60074551D01*
X130867047Y-60076795D01*
X130863271Y-60079831D01*
X130863268Y-60079833D01*
X130825748Y-60110000D01*
X130706505Y-60205874D01*
X130671661Y-60247400D01*
X130577202Y-60359971D01*
X130577199Y-60359975D01*
X130574093Y-60363677D01*
X130474853Y-60544194D01*
X130473389Y-60548808D01*
X130473388Y-60548811D01*
X130441199Y-60650283D01*
X130412565Y-60740549D01*
X130412025Y-60745361D01*
X130412025Y-60745362D01*
X130390619Y-60936209D01*
X130389603Y-60945263D01*
X129206031Y-60945263D01*
X129206532Y-60917760D01*
X129206767Y-60912518D01*
X129206768Y-60912504D01*
X129211485Y-60846561D01*
X129212237Y-60839570D01*
X129239454Y-60650271D01*
X129240708Y-60643320D01*
X129251520Y-60593620D01*
X129253267Y-60586773D01*
X129307147Y-60403277D01*
X129309378Y-60396574D01*
X129320065Y-60367919D01*
X129327163Y-60348890D01*
X129329861Y-60342378D01*
X129340048Y-60320073D01*
X129364573Y-60266370D01*
X129409294Y-60168446D01*
X129412456Y-60162127D01*
X129436842Y-60117466D01*
X129440449Y-60111388D01*
X129460728Y-60079833D01*
X129543834Y-59950518D01*
X129547858Y-59944721D01*
X129578359Y-59903979D01*
X129582791Y-59898479D01*
X129606330Y-59871313D01*
X129708013Y-59753965D01*
X129712814Y-59748808D01*
X129748813Y-59712809D01*
X129753986Y-59707994D01*
X129797240Y-59670514D01*
X129898478Y-59582791D01*
X129903977Y-59578359D01*
X129944725Y-59547856D01*
X129950529Y-59543826D01*
X129952967Y-59542259D01*
X130111404Y-59440439D01*
X130117462Y-59436845D01*
X130162120Y-59412460D01*
X130168433Y-59409299D01*
X130331051Y-59335034D01*
X130342392Y-59329855D01*
X130348922Y-59327151D01*
X130396580Y-59309376D01*
X130403284Y-59307144D01*
X130586767Y-59253268D01*
X130593614Y-59251521D01*
X130593619Y-59251520D01*
X130643344Y-59240703D01*
X130650271Y-59239453D01*
X130839570Y-59212237D01*
X130846561Y-59211485D01*
X130912519Y-59206767D01*
X130917745Y-59206533D01*
X131025649Y-59204567D01*
X131031040Y-59203234D01*
X131031044Y-59203233D01*
X131032403Y-59202897D01*
X131056176Y-59200000D01*
X141214701Y-59200000D01*
X141272892Y-59218907D01*
G37*
%TD.AperFunction*%
%TD*%
M02*
