M48
; DRILL file {KiCad 5.99.0-unknown-881cb3182b~117~ubuntu20.04.1} date Wed Feb 24 10:04:15 2021
; FORMAT={-:-/ absolute / inch / decimal}
; #@! TF.CreationDate,2021-02-24T10:04:15+00:00
; #@! TF.GenerationSoftware,Kicad,Pcbnew,5.99.0-unknown-881cb3182b~117~ubuntu20.04.1
FMAT,2
INCH
T1C0.0118
T2C0.0394
%
G90
G05
T1
X5.1516Y-2.7504
X5.2248Y-3.4189
X5.3315Y-2.6953
X5.3988Y-2.8441
X5.4287Y-2.3445
X5.6063Y-4.2598
X5.7244Y-3.7047
X5.7283Y-2.3996
X5.7528Y-2.4496
X5.7616Y-2.3992
X5.7616Y-2.4992
X5.7616Y-2.5992
X5.7616Y-2.6992
X5.7616Y-2.7992
X5.7616Y-2.8992
X5.7616Y-2.9992
X5.7616Y-3.0992
X5.7616Y-3.1992
X5.7616Y-3.2992
X5.7616Y-3.3992
X5.7616Y-3.4992
X5.7616Y-3.5992
X5.7616Y-3.6992
X5.7616Y-3.7992
X5.7616Y-3.8992
X5.7616Y-3.9992
X5.7616Y-4.0992
X5.7616Y-4.1992
X5.7616Y-4.2992
X5.878Y-3.7283
X6.0512Y-4.1496
X6.0512Y-4.2283
X6.075Y-4.3492
X6.0984Y-4.1102
X6.0984Y-4.2283
X6.175Y-4.3492
X6.1811Y-4.0236
X6.2165Y-3.9843
X6.2205Y-4.063
X6.248Y-4.2283
X6.2559Y-4.0236
X6.275Y-4.3492
X6.2992Y-4.2283
X6.3114Y-3.5799
X6.3543Y-2.3858
X6.3543Y-2.5512
X6.3657Y-3.5996
X6.5884Y-2.3992
X6.5884Y-2.4992
X6.5884Y-2.5992
X6.5884Y-2.6992
X6.5884Y-2.7992
X6.5884Y-2.8992
X6.5884Y-2.9992
X6.5884Y-3.0992
X6.5884Y-3.1992
X6.5884Y-3.2992
X6.5884Y-3.3992
X6.5884Y-3.4992
X6.5884Y-3.5992
X6.5884Y-3.6992
X6.5884Y-3.7992
X6.5884Y-3.8992
X6.5884Y-3.9992
X6.5884Y-4.0992
X6.5884Y-4.1992
X6.5884Y-4.2992
X6.6299Y-2.3543
T2
X5.175Y-2.4
X5.175Y-2.5
X5.175Y-2.6
X5.175Y-2.7
X5.175Y-2.8
X5.175Y-2.9
X5.175Y-3.0
X5.175Y-3.1
X5.175Y-3.2
X5.175Y-3.3
X5.175Y-3.4
X5.175Y-3.5
X5.175Y-3.6
X5.175Y-3.7
X5.175Y-3.8
X5.175Y-3.9
X5.175Y-4.0
X5.175Y-4.1
X5.175Y-4.2
X5.175Y-4.3
X5.275Y-2.4
X5.275Y-2.5
X5.275Y-2.6
X5.275Y-2.7
X5.275Y-2.8
X5.275Y-2.9
X5.275Y-3.0
X5.275Y-3.1
X5.275Y-3.2
X5.275Y-3.3
X5.275Y-3.4
X5.275Y-3.5
X5.275Y-3.6
X5.275Y-3.7
X5.275Y-3.8
X5.275Y-3.9
X5.275Y-4.0
X5.275Y-4.1
X5.275Y-4.2
X5.275Y-4.3
X5.4248Y-2.4
X5.4248Y-2.65
X5.4248Y-2.9
X5.4248Y-3.15
X5.5248Y-2.4
X5.5248Y-2.65
X5.5248Y-2.9
X5.5248Y-3.15
X5.8246Y-2.3992
X5.8246Y-2.4992
X5.8246Y-2.5992
X5.8246Y-2.6992
X5.8246Y-2.7992
X5.8246Y-2.8992
X5.8246Y-2.9992
X5.8246Y-3.0992
X5.8246Y-3.1992
X5.8246Y-3.2992
X5.8246Y-3.3992
X5.8246Y-3.4992
X5.8246Y-3.5992
X5.8246Y-3.6992
X5.8246Y-3.7992
X5.8246Y-3.8992
X5.8246Y-3.9992
X5.8246Y-4.0992
X5.8246Y-4.1992
X5.8246Y-4.2992
X6.075Y-4.2862
X6.175Y-4.2862
X6.275Y-4.2862
X6.5254Y-2.3992
X6.5254Y-2.4992
X6.5254Y-2.5992
X6.5254Y-2.6992
X6.5254Y-2.7992
X6.5254Y-2.8992
X6.5254Y-2.9992
X6.5254Y-3.0992
X6.5254Y-3.1992
X6.5254Y-3.2992
X6.5254Y-3.3992
X6.5254Y-3.4992
X6.5254Y-3.5992
X6.5254Y-3.6992
X6.5254Y-3.7992
X6.5254Y-3.8992
X6.5254Y-3.9992
X6.5254Y-4.0992
X6.5254Y-4.1992
X6.5254Y-4.2992
T0
M30
